SplineFontDB: 3.2
FontName: NotoSerifBalinese-Regular
FullName: Noto Serif Balinese Regular
FamilyName: Noto Serif Balinese
Weight: Book
Copyright: Copyright 2017 Google Inc. All Rights Reserved.
Version: 2.000
ItalicAngle: 0
UnderlinePosition: -125
UnderlineWidth: 50
Ascent: 800
Descent: 200
InvalidEm: 0
sfntRevision: 0x00020000
LayerCount: 2
Layer: 0 1 "+BBcEMAQ0BD0EOAQ5 +BD8EOwQwBD0A" 1
Layer: 1 1 "+BB8ENQRABDUENAQ9BDgEOQAA +BD8EOwQwBD0A" 0
XUID: [1021 59 1751208496 22680]
StyleMap: 0x0040
FSType: 0
OS2Version: 4
OS2_WeightWidthSlopeOnly: 1
OS2_UseTypoMetrics: 1
CreationTime: 1506231763
ModificationTime: 1637876762
PfmFamily: 17
TTFWeight: 400
TTFWidth: 5
LineGap: 0
VLineGap: 0
Panose: 2 2 5 2 6 5 5 2 2 4
OS2TypoAscent: 0
OS2TypoAOffset: 1
OS2TypoDescent: 0
OS2TypoDOffset: 1
OS2TypoLinegap: 0
OS2WinAscent: 0
OS2WinAOffset: 1
OS2WinDescent: 0
OS2WinDOffset: 1
HheadAscent: 0
HheadAOffset: 1
HheadDescent: 0
HheadDOffset: 1
OS2SubXSize: 650
OS2SubYSize: 600
OS2SubXOff: 0
OS2SubYOff: 75
OS2SupXSize: 650
OS2SupYSize: 600
OS2SupXOff: 0
OS2SupYOff: 350
OS2StrikeYSize: 50
OS2StrikeYPos: 322
OS2Vendor: 'GOOG'
OS2CodePages: 00000001.00000000
OS2UnicodeRanges: 88000003.00002000.00000000.00000000
Lookup: 2 0 0 "'ccmp' +BBoEPgQ8BD8EPgQ3BDgERgQ4BE8A-/+BDQENQQ6BD4EPAQ/BD4ENwQ4BEYEOARP +BDMEOwQ4BEQEMAAA in Balinese lookup 0" { "'ccmp' +BBoEPgQ8BD8EPgQ3BDgERgQ4BE8A-/+BDQENQQ6BD4EPAQ/BD4ENwQ4BEYEOARP +BDMEOwQ4BEQEMAAA in Balinese lookup 0 subtable"  } ['ccmp' ('bali' <'dflt' > ) ]
Lookup: 4 768 1 "'liga' Standard Ligatures in Balinese lookup 1" { "'liga' Standard Ligatures in Balinese lookup 1 subtable"  } ['liga' ('bali' <'dflt' > ) ]
Lookup: 4 0 0 "'blwf' Below Base Forms in Balinese lookup 2" { "'blwf' Below Base Forms in Balinese lookup 2 subtable"  } ['blwf' ('bali' <'dflt' > ) ]
Lookup: 2 0 0 "'liga' Standard Ligatures in Balinese lookup 3" { "'liga' Standard Ligatures in Balinese lookup 3 subtable"  } ['liga' ('bali' <'dflt' > ) ]

StartChar: .notdef
Encoding: 65536 -1 0
Width: 600
Flags: W
LayerCount: 2
Fore
SplineSet
94 0 m 1,0,-1
 94 714 l 1,1,-1
 505 714 l 1,2,-1
 505 0 l 1,3,-1
 94 0 l 1,0,-1
145 663 m 1,4,-1
 145 51 l 1,5,-1
 454 51 l 1,6,-1
 454 663 l 1,7,-1
 145 663 l 1,4,-1
EndSplineSet
EndChar

StartChar: uni1B00
Encoding: 6912 6912 5
Width: 0
GlyphClass: 4
Flags: W
AnchorPoint: "+BBEENQQ3BEsEPARPBD0EPQQ+BDUA--10" -269 620 mark 0
AnchorPoint: "+BBEENQQ3BEsEPARPBD0EPQQ+BDUA--2" -269 620 mark 0
LayerCount: 2
Fore
SplineSet
-146 620 m 1,0,-1
 -171 645 l 1,1,2
 -149 676 -149 676 -139 696.5 c 128,-1,3
 -129 717 -129 717 -125.5 735.5 c 128,-1,4
 -122 754 -122 754 -122 778 c 0,5,6
 -122 837 -122 837 -161 867.5 c 128,-1,7
 -200 898 -200 898 -270 898 c 0,8,9
 -345 898 -345 898 -386.5 866.5 c 128,-1,10
 -428 835 -428 835 -428 778 c 0,11,12
 -428 754 -428 754 -424.5 735.5 c 128,-1,13
 -421 717 -421 717 -410.5 696.5 c 128,-1,14
 -400 676 -400 676 -379 645 c 1,15,-1
 -404 620 l 1,16,17
 -467 698 -467 698 -467 782 c 0,18,19
 -467 874 -467 874 -417 923 c 128,-1,20
 -367 972 -367 972 -273 972 c 0,21,22
 -182 972 -182 972 -132.5 922.5 c 128,-1,23
 -83 873 -83 873 -83 782 c 0,24,25
 -83 700 -83 700 -146 620 c 1,0,-1
-270 806 m 256,26,27
 -247 806 -247 806 -230.5 789.5 c 128,-1,28
 -214 773 -214 773 -214 749 c 0,29,30
 -214 726 -214 726 -230 709 c 128,-1,31
 -246 692 -246 692 -270 692 c 0,32,33
 -295 692 -295 692 -311 709.5 c 128,-1,34
 -327 727 -327 727 -327 749 c 0,35,36
 -327 772 -327 772 -310 789 c 128,-1,37
 -293 806 -293 806 -270 806 c 256,26,27
EndSplineSet
EndChar

StartChar: uni1B01
Encoding: 6913 6913 6
Width: 0
GlyphClass: 4
Flags: W
AnchorPoint: "+BBEENQQ3BEsEPARPBD0EPQQ+BDUA--10" -269 620 mark 0
AnchorPoint: "+BBEENQQ3BEsEPARPBD0EPQQ+BDUA--2" -269 620 mark 0
LayerCount: 2
Fore
SplineSet
-166 947 m 1,0,-1
 -142 972 l 1,1,2
 -78 893 -78 893 -78 810 c 0,3,4
 -78 719 -78 719 -127.5 669.5 c 128,-1,5
 -177 620 -177 620 -269 620 c 0,6,7
 -362 620 -362 620 -412 669 c 128,-1,8
 -462 718 -462 718 -462 810 c 0,9,10
 -462 893 -462 893 -399 972 c 1,11,-1
 -375 947 l 1,12,13
 -395 917 -395 917 -405.5 897 c 128,-1,14
 -416 877 -416 877 -419.5 858.5 c 128,-1,15
 -423 840 -423 840 -423 814 c 0,16,17
 -423 777 -423 777 -405 750 c 1,18,19
 -400 809 -400 809 -367.5 848 c 128,-1,20
 -335 887 -335 887 -285 894 c 1,21,-1
 -285 996 l 1,22,-1
 -246 996 l 1,23,-1
 -246 893 l 1,24,25
 -199 886 -199 886 -167.5 849.5 c 128,-1,26
 -136 813 -136 813 -129 758 c 1,27,28
 -117 782 -117 782 -117 814 c 0,29,30
 -117 839 -117 839 -120.5 858 c 128,-1,31
 -124 877 -124 877 -134.5 897.5 c 128,-1,32
 -145 918 -145 918 -166 947 c 1,0,-1
-368 716 m 0,33,34
 -327 693 -327 693 -265 693 c 0,35,36
 -202 693 -202 693 -166 717 c 0,37,38
 -165 722 -165 722 -165 727 c 128,-1,39
 -165 732 -165 732 -165 736 c 0,40,41
 -165 785 -165 785 -194 819.5 c 128,-1,42
 -223 854 -223 854 -268 854 c 0,43,44
 -312 854 -312 854 -341 819.5 c 128,-1,45
 -370 785 -370 785 -370 736 c 0,46,47
 -370 730 -370 730 -369.5 725 c 128,-1,48
 -369 720 -369 720 -368 716 c 0,33,34
EndSplineSet
EndChar

StartChar: uni1B02
Encoding: 6914 6914 7
Width: 0
GlyphClass: 4
Flags: W
AnchorPoint: "+BBEENQQ3BEsEPARPBD0EPQQ+BDUA--10" -147 620 mark 0
AnchorPoint: "+BBEENQQ3BEsEPARPBD0EPQQ+BDUA--2" -147 620 mark 0
LayerCount: 2
Fore
SplineSet
-38 639 m 1,0,-1
 -73 620 l 1,1,-1
 -147 806 l 2,2,3
 -160 839 -160 839 -171.5 862.5 c 128,-1,4
 -183 886 -183 886 -194 900 c 0,5,6
 -215 927 -215 927 -238 927 c 0,7,8
 -258 927 -258 927 -269 912 c 128,-1,9
 -280 897 -280 897 -281 872 c 1,10,-1
 -313 875 l 1,11,12
 -313 910 -313 910 -305 941 c 128,-1,13
 -297 972 -297 972 -281.5 991.5 c 128,-1,14
 -266 1011 -266 1011 -245 1011 c 0,15,16
 -217 1011 -217 1011 -187 974 c 0,17,18
 -172 955 -172 955 -156 924 c 128,-1,19
 -140 893 -140 893 -123 849 c 2,20,-1
 -38 639 l 1,0,-1
EndSplineSet
EndChar

StartChar: uni1B03
Encoding: 6915 6915 8
Width: 0
GlyphClass: 4
Flags: W
AnchorPoint: "+BBEENQQ3BEsEPARPBD0EPQQ+BDUA--10" -196 620 mark 0
AnchorPoint: "+BBEENQQ3BEsEPARPBD0EPQQ+BDUA--2" -196 620 mark 0
LayerCount: 2
Fore
SplineSet
-3 650 m 1,0,-1
 -15 621 l 1,1,2
 -94 626 -94 626 -168 657.5 c 128,-1,3
 -242 689 -242 689 -305 741 c 128,-1,4
 -368 793 -368 793 -414 862 c 128,-1,5
 -460 931 -460 931 -484 1011 c 1,6,-1
 -389 989 l 1,7,8
 -338 843 -338 843 -238 755 c 128,-1,9
 -138 667 -138 667 -3 650 c 1,0,-1
EndSplineSet
EndChar

StartChar: uni1B04
Encoding: 6916 6916 9
Width: 412
GlyphClass: 2
Flags: W
LayerCount: 2
Fore
SplineSet
94 180 m 1,0,-1
 99 219 l 1,1,-1
 125 219 l 2,2,3
 292 219 292 219 292 352 c 0,4,5
 292 405 292 405 263.5 434 c 128,-1,6
 235 463 235 463 188 463 c 0,7,8
 138 463 138 463 109 430 c 128,-1,9
 80 397 80 397 78 336 c 1,10,11
 66 332 66 332 57 332 c 2,12,-1
 39 335 l 1,13,14
 39 431 39 431 77.5 488.5 c 128,-1,15
 116 546 116 546 187 546 c 0,16,17
 257 546 257 546 299 493 c 128,-1,18
 341 440 341 440 341 349 c 0,19,20
 341 304 341 304 313.5 264 c 128,-1,21
 286 224 286 224 237 200 c 1,22,23
 363 148 363 148 363 14 c 0,24,25
 363 -44 363 -44 347 -104.5 c 128,-1,26
 331 -165 331 -165 298 -226 c 0,27,28
 232 -347 232 -347 232 -421 c 0,29,30
 232 -479 232 -479 249 -527 c 1,31,-1
 224 -546 l 1,32,33
 214 -532 214 -532 205 -503.5 c 128,-1,34
 196 -475 196 -475 190 -443.5 c 128,-1,35
 184 -412 184 -412 184 -392 c 0,36,37
 184 -273 184 -273 249 -164 c 0,38,39
 314 -54 314 -54 314 46 c 0,40,41
 314 111 314 111 260 145.5 c 128,-1,42
 206 180 206 180 114 180 c 2,43,-1
 94 180 l 1,0,-1
EndSplineSet
EndChar

StartChar: uni1B05
Encoding: 6917 6917 10
Width: 1103
GlyphClass: 2
Flags: W
AnchorPoint: "+BBEENQQ3BEsEPARPBD0EPQQ+BDUA--3" 1009 0 basechar 0
AnchorPoint: "+BBEENQQ3BEsEPARPBD0EPQQ+BDUA--2" 585 620 basechar 0
LayerCount: 2
Fore
SplineSet
232 342 m 1,0,-1
 215 354 l 1,1,2
 232 406 232 406 264 437.5 c 128,-1,3
 296 469 296 469 334 469 c 0,4,5
 377 469 377 469 406.5 441.5 c 128,-1,6
 436 414 436 414 436 373 c 0,7,8
 436 300 436 300 377 262 c 1,9,10
 417 250 417 250 438 222 c 128,-1,11
 459 194 459 194 459 157 c 0,12,13
 459 83 459 83 411 36.5 c 128,-1,14
 363 -10 363 -10 283 -10 c 0,15,16
 217 -10 217 -10 164 30 c 128,-1,17
 111 70 111 70 80 138.5 c 128,-1,18
 49 207 49 207 49 292 c 0,19,20
 49 366 49 366 74.5 422 c 128,-1,21
 100 478 100 478 141.5 515.5 c 128,-1,22
 183 553 183 553 234 572 c 128,-1,23
 285 591 285 591 336 591 c 0,24,25
 435 591 435 591 514 542.5 c 128,-1,26
 593 494 593 494 631 412 c 1,27,-1
 597 390 l 1,28,29
 556 451 556 451 515.5 484 c 128,-1,30
 475 517 475 517 431.5 529.5 c 128,-1,31
 388 542 388 542 337 542 c 0,32,33
 270 542 270 542 216 511 c 128,-1,34
 162 480 162 480 130 424.5 c 128,-1,35
 98 369 98 369 98 295 c 0,36,37
 98 187 98 187 146 130 c 128,-1,38
 194 73 194 73 283 73 c 0,39,40
 351 73 351 73 380.5 96 c 128,-1,41
 410 119 410 119 410 162 c 0,42,43
 410 194 410 194 383.5 213 c 128,-1,44
 357 232 357 232 305 232 c 2,45,-1
 260 232 l 1,46,-1
 265 271 l 1,47,-1
 303 271 l 1,48,49
 338 275 338 275 362.5 295 c 128,-1,50
 387 315 387 315 387 337 c 0,51,52
 387 360 387 360 369 373 c 128,-1,53
 351 386 351 386 325 386 c 0,54,55
 259 386 259 386 232 342 c 1,0,-1
1088 207 m 1,56,-1
 1076 169 l 1,57,-1
 1010 197 l 1,58,-1
 1010 0 l 1,59,-1
 971 0 l 1,60,-1
 971 214 l 1,61,62
 943 227 943 227 921 235.5 c 128,-1,63
 899 244 899 244 885 249 c 1,64,-1
 885 237 l 2,65,66
 885 113 885 113 840.5 51.5 c 128,-1,67
 796 -10 796 -10 710 -10 c 0,68,69
 627 -10 627 -10 578.5 39.5 c 128,-1,70
 530 89 530 89 520 181 c 1,71,-1
 552 190 l 1,72,73
 560 134 560 134 600 103.5 c 128,-1,74
 640 73 640 73 710 73 c 0,75,76
 776 73 776 73 811 115 c 128,-1,77
 846 157 846 157 846 242 c 2,78,-1
 846 259 l 1,79,80
 836 262 836 262 827 263 c 128,-1,81
 818 264 818 264 812 264 c 0,82,83
 792 264 792 264 778.5 253.5 c 128,-1,84
 765 243 765 243 765 224 c 0,85,86
 765 203 765 203 786 182 c 1,87,-1
 761 162 l 1,88,89
 733 185 733 185 716 214.5 c 128,-1,90
 699 244 699 244 699 269 c 0,91,92
 699 293 699 293 716.5 307.5 c 128,-1,93
 734 322 734 322 761 322 c 0,94,95
 790 322 790 322 846 305 c 1,96,-1
 846 537 l 1,97,-1
 869 537 l 2,98,99
 921 537 921 537 952.5 516.5 c 128,-1,100
 984 496 984 496 997 452 c 0,101,102
 1010 409 1010 409 1010 310 c 2,103,-1
 1010 240 l 1,104,-1
 1088 207 l 1,56,-1
885 454 m 1,105,-1
 885 292 l 1,106,-1
 971 257 l 1,107,-1
 971 306 l 2,108,109
 971 454 971 454 898 454 c 2,110,-1
 885 454 l 1,105,-1
EndSplineSet
EndChar

StartChar: uni1B06
Encoding: 6918 6918 11
Width: 1402
GlyphClass: 2
Flags: W
AnchorPoint: "+BBEENQQ3BEsEPARPBD0EPQQ+BDUA--3" 1149 0 basechar 0
AnchorPoint: "+BBEENQQ3BEsEPARPBD0EPQQ+BDUA--2" 677 620 basechar 0
LayerCount: 2
Fore
SplineSet
232 342 m 1,0,-1
 215 354 l 1,1,2
 232 406 232 406 264 437.5 c 128,-1,3
 296 469 296 469 334 469 c 0,4,5
 377 469 377 469 406.5 441.5 c 128,-1,6
 436 414 436 414 436 373 c 0,7,8
 436 300 436 300 377 262 c 1,9,10
 417 250 417 250 438 222 c 128,-1,11
 459 194 459 194 459 157 c 0,12,13
 459 83 459 83 411 36.5 c 128,-1,14
 363 -10 363 -10 283 -10 c 0,15,16
 217 -10 217 -10 164 30 c 128,-1,17
 111 70 111 70 80 138.5 c 128,-1,18
 49 207 49 207 49 292 c 0,19,20
 49 366 49 366 74 422 c 128,-1,21
 99 478 99 478 141 515.5 c 128,-1,22
 183 553 183 553 234 572 c 128,-1,23
 285 591 285 591 336 591 c 0,24,25
 435 591 435 591 514 542.5 c 128,-1,26
 593 494 593 494 631 412 c 1,27,-1
 597 390 l 1,28,29
 556 451 556 451 515.5 484 c 128,-1,30
 475 517 475 517 431.5 529.5 c 128,-1,31
 388 542 388 542 337 542 c 0,32,33
 270 542 270 542 216 511 c 128,-1,34
 162 480 162 480 130 424.5 c 128,-1,35
 98 369 98 369 98 295 c 0,36,37
 98 187 98 187 146 130 c 128,-1,38
 194 73 194 73 283 73 c 0,39,40
 351 73 351 73 380.5 96 c 128,-1,41
 410 119 410 119 410 162 c 0,42,43
 410 194 410 194 383.5 213 c 128,-1,44
 357 232 357 232 305 232 c 2,45,-1
 260 232 l 1,46,-1
 265 271 l 1,47,-1
 303 271 l 2,48,49
 338 271 338 271 362.5 293 c 128,-1,50
 387 315 387 315 387 337 c 0,51,52
 387 360 387 360 369 373 c 128,-1,53
 351 386 351 386 325 386 c 0,54,55
 259 386 259 386 232 342 c 1,0,-1
1008 98 m 1,56,-1
 982 67 l 1,57,-1
 882 174 l 1,58,59
 861 -10 861 -10 710 -10 c 0,60,61
 627 -10 627 -10 578.5 39.5 c 128,-1,62
 530 89 530 89 520 181 c 1,63,-1
 552 190 l 1,64,65
 560 134 560 134 600 103.5 c 128,-1,66
 640 73 640 73 710 73 c 0,67,68
 831 73 831 73 845 210 c 1,69,70
 800 250 800 250 775 250 c 0,71,72
 758 250 758 250 746.5 237.5 c 128,-1,73
 735 225 735 225 735 208 c 0,74,75
 735 195 735 195 741 180 c 1,76,-1
 710 170 l 1,77,78
 700 192 700 192 694 213 c 128,-1,79
 688 234 688 234 688 255 c 0,80,81
 688 287 688 287 703 306 c 128,-1,82
 718 325 718 325 743 325 c 0,83,84
 782 325 782 325 846 265 c 1,85,86
 846 347 846 347 878.5 410 c 128,-1,87
 911 473 911 473 967 509 c 128,-1,88
 1023 545 1023 545 1093 545 c 0,89,90
 1170 545 1170 545 1228.5 510 c 128,-1,91
 1287 475 1287 475 1320 414 c 128,-1,92
 1353 353 1353 353 1353 274 c 0,93,94
 1353 184 1353 184 1324 120.5 c 128,-1,95
 1295 57 1295 57 1246.5 23.5 c 128,-1,96
 1198 -10 1198 -10 1139 -10 c 0,97,98
 1085 -10 1085 -10 1050 11 c 1,99,-1
 1075 50 l 1,100,101
 1086 44 1086 44 1107 41.5 c 128,-1,102
 1128 39 1128 39 1144 39 c 0,103,104
 1188 39 1188 39 1224.5 67.5 c 128,-1,105
 1261 96 1261 96 1282.5 148 c 128,-1,106
 1304 200 1304 200 1304 270 c 0,107,108
 1304 359 1304 359 1247 410.5 c 128,-1,109
 1190 462 1190 462 1095 462 c 0,110,111
 998 462 998 462 941.5 408 c 128,-1,112
 885 354 885 354 885 264 c 2,113,-1
 885 227 l 1,114,-1
 1008 98 l 1,56,-1
EndSplineSet
EndChar

StartChar: uni1B07
Encoding: 6919 6919 12
Width: 933
GlyphClass: 2
Flags: W
AnchorPoint: "+BBEENQQ3BEsEPARPBD0EPQQ+BDUA--3" 870 0 basechar 0
AnchorPoint: "+BBEENQQ3BEsEPARPBD0EPQQ+BDUA--2" 521 620 basechar 0
LayerCount: 2
Fore
SplineSet
338 0 m 2,0,1
 287 0 287 0 259 18.5 c 128,-1,2
 231 37 231 37 218 68.5 c 128,-1,3
 205 100 205 100 202 141 c 128,-1,4
 199 182 199 182 199 227 c 2,5,-1
 199 322 l 2,6,7
 199 399 199 399 187.5 431 c 128,-1,8
 176 463 176 463 141 463 c 0,9,10
 111 463 111 463 98 446.5 c 128,-1,11
 85 430 85 430 82 401.5 c 128,-1,12
 79 373 79 373 78 336 c 1,13,14
 73 335 73 335 69 333.5 c 128,-1,15
 65 332 65 332 57 332 c 0,16,17
 50 332 50 332 47 333 c 128,-1,18
 44 334 44 334 39 335 c 1,19,20
 39 361 39 361 41 397 c 128,-1,21
 43 433 43 433 52.5 467 c 128,-1,22
 62 501 62 501 82.5 523.5 c 128,-1,23
 103 546 103 546 140 546 c 0,24,25
 176 546 176 546 196 525.5 c 128,-1,26
 216 505 216 505 225 471 c 128,-1,27
 234 437 234 437 236 397.5 c 128,-1,28
 238 358 238 358 238 319 c 2,29,-1
 238 204 l 2,30,31
 238 142 238 142 258.5 112.5 c 128,-1,32
 279 83 279 83 310 83 c 2,33,-1
 322 83 l 1,34,-1
 322 301 l 2,35,36
 322 431 322 431 355.5 488.5 c 128,-1,37
 389 546 389 546 474 546 c 0,38,39
 521 546 521 546 550.5 520 c 128,-1,40
 580 494 580 494 596 445 c 1,41,42
 612 494 612 494 641.5 520 c 128,-1,43
 671 546 671 546 718 546 c 0,44,45
 803 546 803 546 836 488.5 c 128,-1,46
 869 431 869 431 869 301 c 2,47,-1
 869 0 l 1,48,-1
 830 0 l 1,49,-1
 830 301 l 2,50,51
 830 366 830 366 816.5 401 c 128,-1,52
 803 436 803 436 778 449.5 c 128,-1,53
 753 463 753 463 718 463 c 0,54,55
 681 463 681 463 649.5 437 c 128,-1,56
 618 411 618 411 613 358 c 1,57,-1
 579 358 l 1,58,59
 579 385 579 385 565 409 c 128,-1,60
 551 433 551 433 527 448 c 128,-1,61
 503 463 503 463 474 463 c 0,62,63
 440 463 440 463 414.5 449.5 c 128,-1,64
 389 436 389 436 375 401 c 128,-1,65
 361 366 361 366 361 301 c 2,66,-1
 361 0 l 1,67,-1
 338 0 l 2,0,1
599 -352 m 0,68,69
 564 -352 564 -352 527.5 -336.5 c 128,-1,70
 491 -321 491 -321 462.5 -295.5 c 128,-1,71
 434 -270 434 -270 424 -240 c 1,72,-1
 442 -227 l 1,73,74
 452 -242 452 -242 478 -253.5 c 128,-1,75
 504 -265 504 -265 534.5 -272 c 128,-1,76
 565 -279 565 -279 589 -279 c 0,77,78
 602 -279 602 -279 625 -275.5 c 128,-1,79
 648 -272 648 -272 667 -262 c 128,-1,80
 686 -252 686 -252 686 -234 c 0,81,82
 686 -212 686 -212 665 -200.5 c 128,-1,83
 644 -189 644 -189 613 -182 c 128,-1,84
 582 -175 582 -175 550.5 -167 c 128,-1,85
 519 -159 519 -159 498 -145 c 128,-1,86
 477 -131 477 -131 477 -104 c 0,87,88
 477 -66 477 -66 511.5 -45 c 128,-1,89
 546 -24 546 -24 590 -24 c 0,90,91
 625 -24 625 -24 645.5 -31 c 128,-1,92
 666 -38 666 -38 683 -47 c 1,93,-1
 664 -82 l 1,94,95
 635 -63 635 -63 587 -63 c 0,96,97
 574 -63 574 -63 558 -66.5 c 128,-1,98
 542 -70 542 -70 530 -77.5 c 128,-1,99
 518 -85 518 -85 518 -98 c 0,100,101
 518 -114 518 -114 539 -122 c 128,-1,102
 560 -130 560 -130 591.5 -137 c 128,-1,103
 623 -144 623 -144 654.5 -155 c 128,-1,104
 686 -166 686 -166 707 -186 c 128,-1,105
 728 -206 728 -206 728 -241 c 0,106,107
 728 -268 728 -268 713 -293.5 c 128,-1,108
 698 -319 698 -319 669.5 -335.5 c 128,-1,109
 641 -352 641 -352 599 -352 c 0,68,69
EndSplineSet
EndChar

StartChar: uni1B09
Encoding: 6921 6921 14
Width: 749
GlyphClass: 2
Flags: W
AnchorPoint: "+BBEENQQ3BEsEPARPBD0EPQQ+BDUA--3" 690 -547 basechar 0
AnchorPoint: "+BBEENQQ3BEsEPARPBD0EPQQ+BDUA--2" 419 620 basechar 0
LayerCount: 2
Fore
SplineSet
686 -546 m 1,0,-1
 646 -546 l 1,1,-1
 646 -403 l 2,2,3
 646 -317 646 -317 601 -277.5 c 128,-1,4
 556 -238 556 -238 456 -238 c 256,5,6
 356 -238 356 -238 311 -278 c 128,-1,7
 266 -318 266 -318 266 -401 c 2,8,-1
 266 -546 l 1,9,-1
 243 -546 l 2,10,11
 159 -546 159 -546 111 -489 c 128,-1,12
 63 -432 63 -432 63 -330 c 0,13,14
 63 -272 63 -272 85.5 -217.5 c 128,-1,15
 108 -163 108 -163 160.5 -101.5 c 128,-1,16
 213 -40 213 -40 303 36 c 0,17,18
 371 93 371 93 416 138.5 c 128,-1,19
 461 184 461 184 483 218 c 0,20,21
 528 286 528 286 528 352 c 0,22,23
 528 405 528 405 500 434 c 128,-1,24
 472 463 472 463 425 463 c 0,25,26
 374 463 374 463 345 430 c 128,-1,27
 316 397 316 397 314 336 c 1,28,29
 302 332 302 332 293 332 c 256,30,31
 284 332 284 332 275 335 c 1,32,33
 275 431 275 431 313.5 488.5 c 128,-1,34
 352 546 352 546 423 546 c 256,35,36
 494 546 494 546 535.5 493 c 128,-1,37
 577 440 577 440 577 349 c 0,38,39
 577 189 577 189 445 56 c 0,40,41
 378 -13 378 -13 285 -86 c 256,42,43
 192 -159 192 -159 152 -218 c 128,-1,44
 112 -277 112 -277 112 -333 c 0,45,46
 112 -370 112 -370 127.5 -399.5 c 128,-1,47
 143 -429 143 -429 166.5 -446 c 128,-1,48
 190 -463 190 -463 214 -463 c 2,49,-1
 227 -463 l 1,50,-1
 227 -401 l 2,51,52
 227 -282 227 -282 285.5 -218.5 c 128,-1,53
 344 -155 344 -155 456 -155 c 0,54,55
 566 -155 566 -155 626 -216 c 128,-1,56
 686 -277 686 -277 686 -402 c 2,57,-1
 686 -546 l 1,0,-1
EndSplineSet
EndChar

StartChar: uni1B0B
Encoding: 6923 6923 16
Width: 807
GlyphClass: 2
Flags: W
AnchorPoint: "+BBEENQQ3BEsEPARPBD0EPQQ+BDUA--3" 751 0 basechar 0
AnchorPoint: "+BBEENQQ3BEsEPARPBD0EPQQ+BDUA--2" 430 620 basechar 0
LayerCount: 2
Fore
SplineSet
410 -10 m 0,0,1
 309 -10 309 -10 254 48 c 128,-1,2
 199 106 199 106 199 227 c 2,3,-1
 199 322 l 2,4,5
 199 399 199 399 187.5 431 c 128,-1,6
 176 463 176 463 141 463 c 0,7,8
 111 463 111 463 98 446.5 c 128,-1,9
 85 430 85 430 82 401.5 c 128,-1,10
 79 373 79 373 78 336 c 1,11,12
 73 335 73 335 69 333.5 c 128,-1,13
 65 332 65 332 57 332 c 0,14,15
 50 332 50 332 47 333 c 128,-1,16
 44 334 44 334 39 335 c 1,17,18
 39 361 39 361 41 397 c 128,-1,19
 43 433 43 433 52.5 467 c 128,-1,20
 62 501 62 501 82.5 523.5 c 128,-1,21
 103 546 103 546 140 546 c 0,22,23
 176 546 176 546 196 525.5 c 128,-1,24
 216 505 216 505 225 471 c 128,-1,25
 234 437 234 437 236 397.5 c 128,-1,26
 238 358 238 358 238 319 c 2,27,-1
 238 237 l 2,28,29
 238 153 238 153 275.5 113 c 128,-1,30
 313 73 313 73 409 73 c 0,31,32
 460 73 460 73 498.5 86.5 c 128,-1,33
 537 100 537 100 558.5 135.5 c 128,-1,34
 580 171 580 171 580 235 c 2,35,-1
 580 537 l 1,36,-1
 603 537 l 2,37,38
 654 537 654 537 682.5 518.5 c 128,-1,39
 711 500 711 500 724 468.5 c 128,-1,40
 737 437 737 437 740.5 396 c 128,-1,41
 744 355 744 355 744 310 c 2,42,-1
 744 0 l 1,43,-1
 705 0 l 1,44,-1
 705 306 l 2,45,46
 705 383 705 383 686 418.5 c 128,-1,47
 667 454 667 454 632 454 c 2,48,-1
 619 454 l 1,49,-1
 619 235 l 2,50,51
 619 105 619 105 562 47.5 c 128,-1,52
 505 -10 505 -10 410 -10 c 0,0,1
418 -376 m 0,53,54
 384 -376 384 -376 347.5 -360.5 c 128,-1,55
 311 -345 311 -345 282.5 -319.5 c 128,-1,56
 254 -294 254 -294 243 -264 c 1,57,-1
 262 -251 l 1,58,59
 272 -266 272 -266 297.5 -278 c 128,-1,60
 323 -290 323 -290 353.5 -296.5 c 128,-1,61
 384 -303 384 -303 408 -303 c 0,62,63
 421 -303 421 -303 444 -299.5 c 128,-1,64
 467 -296 467 -296 486 -286.5 c 128,-1,65
 505 -277 505 -277 505 -259 c 0,66,67
 505 -237 505 -237 484 -225.5 c 128,-1,68
 463 -214 463 -214 432 -207 c 128,-1,69
 401 -200 401 -200 369.5 -192 c 128,-1,70
 338 -184 338 -184 317 -169.5 c 128,-1,71
 296 -155 296 -155 296 -128 c 0,72,73
 296 -90 296 -90 331 -69.5 c 128,-1,74
 366 -49 366 -49 409 -49 c 0,75,76
 444 -49 444 -49 464.5 -55.5 c 128,-1,77
 485 -62 485 -62 502 -71 c 1,78,-1
 483 -106 l 1,79,80
 455 -88 455 -88 407 -88 c 0,81,82
 394 -88 394 -88 377.5 -91 c 128,-1,83
 361 -94 361 -94 349 -101.5 c 128,-1,84
 337 -109 337 -109 337 -122 c 0,85,86
 337 -138 337 -138 358 -146.5 c 128,-1,87
 379 -155 379 -155 410.5 -162 c 128,-1,88
 442 -169 442 -169 473.5 -179.5 c 128,-1,89
 505 -190 505 -190 526 -210.5 c 128,-1,90
 547 -231 547 -231 547 -266 c 0,91,92
 547 -293 547 -293 532 -318.5 c 128,-1,93
 517 -344 517 -344 488.5 -360 c 128,-1,94
 460 -376 460 -376 418 -376 c 0,53,54
EndSplineSet
EndChar

StartChar: uni1B0D
Encoding: 6925 6925 18
Width: 947
GlyphClass: 2
Flags: W
AnchorPoint: "+BBEENQQ3BEsEPARPBD0EPQQ+BDUA--3" 789 -495 basechar 0
AnchorPoint: "+BBEENQQ3BEsEPARPBD0EPQQ+BDUA--2" 516 620 basechar 0
LayerCount: 2
Fore
SplineSet
1021 -211 m 1,0,1
 991 -230 991 -230 953 -239 c 128,-1,2
 915 -248 915 -248 883 -248 c 0,3,4
 877 -248 877 -248 870.5 -248 c 128,-1,5
 864 -248 864 -248 858 -247 c 1,6,7
 840 -335 840 -335 817 -410.5 c 128,-1,8
 794 -486 794 -486 771 -547 c 1,9,-1
 732 -537 l 1,10,-1
 737 -520 l 1,11,12
 735 -494 735 -494 708 -476 c 128,-1,13
 681 -458 681 -458 638 -444 c 128,-1,14
 595 -430 595 -430 542.5 -418 c 128,-1,15
 490 -406 490 -406 436 -392 c 0,16,17
 372 -375 372 -375 314.5 -352.5 c 128,-1,18
 257 -330 257 -330 221.5 -295.5 c 128,-1,19
 186 -261 186 -261 186 -209 c 0,20,21
 186 -174 186 -174 206.5 -141.5 c 128,-1,22
 227 -109 227 -109 266.5 -88.5 c 128,-1,23
 306 -68 306 -68 363 -68 c 0,24,25
 434 -68 434 -68 499 -88.5 c 128,-1,26
 564 -109 564 -109 626 -134 c 0,27,28
 674 -153 674 -153 722 -169.5 c 128,-1,29
 770 -186 770 -186 819 -194 c 1,30,31
 833 -118 833 -118 841.5 -37 c 128,-1,32
 850 44 850 44 850 126 c 0,33,34
 850 224 850 224 837.5 300 c 128,-1,35
 825 376 825 376 796.5 419.5 c 128,-1,36
 768 463 768 463 718 463 c 0,37,38
 681 463 681 463 649.5 437 c 128,-1,39
 618 411 618 411 613 358 c 1,40,-1
 579 358 l 1,41,42
 579 385 579 385 565 409 c 128,-1,43
 551 433 551 433 527 448 c 128,-1,44
 503 463 503 463 474 463 c 0,45,46
 440 463 440 463 414.5 449.5 c 128,-1,47
 389 436 389 436 375 401 c 128,-1,48
 361 366 361 366 361 301 c 2,49,-1
 361 0 l 1,50,-1
 338 0 l 2,51,52
 287 0 287 0 259 18.5 c 128,-1,53
 231 37 231 37 218 68.5 c 128,-1,54
 205 100 205 100 202 141 c 128,-1,55
 199 182 199 182 199 227 c 2,56,-1
 199 322 l 2,57,58
 199 399 199 399 187.5 431 c 128,-1,59
 176 463 176 463 141 463 c 0,60,61
 111 463 111 463 98 446.5 c 128,-1,62
 85 430 85 430 82 401.5 c 128,-1,63
 79 373 79 373 78 336 c 1,64,65
 73 335 73 335 69 333.5 c 128,-1,66
 65 332 65 332 57 332 c 0,67,68
 50 332 50 332 47 333 c 128,-1,69
 44 334 44 334 39 335 c 1,70,71
 39 361 39 361 41 397 c 128,-1,72
 43 433 43 433 52.5 467 c 128,-1,73
 62 501 62 501 82.5 523.5 c 128,-1,74
 103 546 103 546 140 546 c 0,75,76
 176 546 176 546 196 525.5 c 128,-1,77
 216 505 216 505 225 471 c 128,-1,78
 234 437 234 437 236 397.5 c 128,-1,79
 238 358 238 358 238 319 c 2,80,-1
 238 204 l 2,81,82
 238 142 238 142 258.5 112.5 c 128,-1,83
 279 83 279 83 310 83 c 2,84,-1
 322 83 l 1,85,-1
 322 301 l 2,86,87
 322 431 322 431 355.5 488.5 c 128,-1,88
 389 546 389 546 474 546 c 0,89,90
 521 546 521 546 550.5 520 c 128,-1,91
 580 494 580 494 596 445 c 1,92,93
 612 494 612 494 641.5 520 c 128,-1,94
 671 546 671 546 718 546 c 0,95,96
 769 546 769 546 803.5 513 c 128,-1,97
 838 480 838 480 858.5 422 c 128,-1,98
 879 364 879 364 888.5 289.5 c 128,-1,99
 898 215 898 215 898 131 c 0,100,101
 898 43 898 43 889.5 -39.5 c 128,-1,102
 881 -122 881 -122 867 -199 c 1,103,-1
 878 -199 l 2,104,105
 964 -199 964 -199 1004 -176 c 1,106,-1
 1021 -211 l 1,0,1
757 -457 m 1,107,108
 771 -410 771 -410 784.5 -356 c 128,-1,109
 798 -302 798 -302 810 -244 c 1,110,111
 759 -238 759 -238 709 -226 c 128,-1,112
 659 -214 659 -214 612 -201 c 0,113,114
 537 -179 537 -179 467 -160.5 c 128,-1,115
 397 -142 397 -142 333 -142 c 0,116,117
 281 -142 281 -142 257.5 -160.5 c 128,-1,118
 234 -179 234 -179 234 -211 c 0,119,120
 234 -246 234 -246 264 -271.5 c 128,-1,121
 294 -297 294 -297 342.5 -315.5 c 128,-1,122
 391 -334 391 -334 448 -349 c 0,123,124
 511 -365 511 -365 574 -380.5 c 128,-1,125
 637 -396 637 -396 686.5 -414 c 128,-1,126
 736 -432 736 -432 757 -457 c 1,107,108
EndSplineSet
EndChar

StartChar: uni1B0E
Encoding: 6926 6926 19
Width: 1149
GlyphClass: 2
Flags: W
AnchorPoint: "+BBEENQQ3BEsEPARPBD0EPQQ+BDUA--3" 778 -538 basechar 0
AnchorPoint: "+BBEENQQ3BEsEPARPBD0EPQQ+BDUA--2" 521 620 basechar 0
LayerCount: 2
Fore
SplineSet
1128 -293 m 1,0,1
 1169 -306 1169 -306 1183.5 -336.5 c 128,-1,2
 1198 -367 1198 -367 1198 -391 c 0,3,4
 1198 -452 1198 -452 1156.5 -494 c 128,-1,5
 1115 -536 1115 -536 1045 -536 c 0,6,7
 996 -536 996 -536 955.5 -510 c 128,-1,8
 915 -484 915 -484 888 -440 c 1,9,-1
 918 -411 l 1,10,11
 937 -439 937 -439 968.5 -451 c 128,-1,12
 1000 -463 1000 -463 1045 -463 c 0,13,14
 1104 -463 1104 -463 1129 -443.5 c 128,-1,15
 1154 -424 1154 -424 1154 -387 c 0,16,17
 1154 -360 1154 -360 1131 -342.5 c 128,-1,18
 1108 -325 1108 -325 1064 -325 c 2,19,-1
 1026 -325 l 1,20,-1
 1030 -286 l 1,21,-1
 1062 -286 l 2,22,23
 1097 -286 1097 -286 1117 -263.5 c 128,-1,24
 1137 -241 1137 -241 1137 -221 c 0,25,26
 1137 -198 1137 -198 1127.5 -185 c 128,-1,27
 1118 -172 1118 -172 1090 -172 c 0,28,29
 1058 -172 1058 -172 1034 -183.5 c 128,-1,30
 1010 -195 1010 -195 986 -210 c 128,-1,31
 962 -225 962 -225 932 -236.5 c 128,-1,32
 902 -248 902 -248 858 -248 c 1,33,34
 839 -336 839 -336 816.5 -411.5 c 128,-1,35
 794 -487 794 -487 771 -547 c 1,36,-1
 732 -537 l 1,37,-1
 737 -521 l 1,38,39
 736 -495 736 -495 708 -476 c 128,-1,40
 680 -457 680 -457 638 -444 c 0,41,42
 607 -434 607 -434 571 -425 c 128,-1,43
 535 -416 535 -416 496 -407 c 0,44,45
 441 -394 441 -394 386 -378 c 128,-1,46
 331 -362 331 -362 285.5 -339.5 c 128,-1,47
 240 -317 240 -317 213 -285.5 c 128,-1,48
 186 -254 186 -254 186 -209 c 0,49,50
 186 -174 186 -174 206.5 -141.5 c 128,-1,51
 227 -109 227 -109 266.5 -88.5 c 128,-1,52
 306 -68 306 -68 363 -68 c 0,53,54
 427 -68 427 -68 485.5 -84.5 c 128,-1,55
 544 -101 544 -101 600 -124 c 0,56,57
 654 -146 654 -146 708.5 -166 c 128,-1,58
 763 -186 763 -186 819 -194 c 1,59,60
 833 -118 833 -118 841.5 -37 c 128,-1,61
 850 44 850 44 850 126 c 0,62,63
 850 224 850 224 837.5 300 c 128,-1,64
 825 376 825 376 796.5 419.5 c 128,-1,65
 768 463 768 463 718 463 c 0,66,67
 681 463 681 463 649.5 437 c 128,-1,68
 618 411 618 411 613 358 c 1,69,-1
 579 358 l 1,70,71
 579 385 579 385 565 409 c 128,-1,72
 551 433 551 433 527 448 c 128,-1,73
 503 463 503 463 474 463 c 0,74,75
 440 463 440 463 414.5 449.5 c 128,-1,76
 389 436 389 436 375 401 c 128,-1,77
 361 366 361 366 361 301 c 2,78,-1
 361 0 l 1,79,-1
 338 0 l 2,80,81
 287 0 287 0 259 18.5 c 128,-1,82
 231 37 231 37 218 68.5 c 128,-1,83
 205 100 205 100 202 141 c 128,-1,84
 199 182 199 182 199 227 c 2,85,-1
 199 322 l 2,86,87
 199 399 199 399 187.5 431 c 128,-1,88
 176 463 176 463 141 463 c 0,89,90
 111 463 111 463 98 446.5 c 128,-1,91
 85 430 85 430 82 401.5 c 128,-1,92
 79 373 79 373 78 336 c 1,93,94
 73 335 73 335 69 333.5 c 128,-1,95
 65 332 65 332 57 332 c 0,96,97
 50 332 50 332 47 333 c 128,-1,98
 44 334 44 334 39 335 c 1,99,100
 39 361 39 361 41 397 c 128,-1,101
 43 433 43 433 52.5 467 c 128,-1,102
 62 501 62 501 82.5 523.5 c 128,-1,103
 103 546 103 546 140 546 c 0,104,105
 176 546 176 546 196 525.5 c 128,-1,106
 216 505 216 505 225 471 c 128,-1,107
 234 437 234 437 236 397.5 c 128,-1,108
 238 358 238 358 238 319 c 2,109,-1
 238 204 l 2,110,111
 238 142 238 142 258.5 112.5 c 128,-1,112
 279 83 279 83 310 83 c 2,113,-1
 322 83 l 1,114,-1
 322 301 l 2,115,116
 322 431 322 431 355.5 488.5 c 128,-1,117
 389 546 389 546 474 546 c 0,118,119
 521 546 521 546 550.5 520 c 128,-1,120
 580 494 580 494 596 445 c 1,121,122
 612 494 612 494 641.5 520 c 128,-1,123
 671 546 671 546 718 546 c 0,124,125
 769 546 769 546 803.5 513 c 128,-1,126
 838 480 838 480 858.5 422 c 128,-1,127
 879 364 879 364 888.5 289.5 c 128,-1,128
 898 215 898 215 898 131 c 0,129,130
 898 43 898 43 889.5 -39.5 c 128,-1,131
 881 -122 881 -122 867 -199 c 1,132,-1
 878 -199 l 2,133,134
 916 -199 916 -199 940 -190 c 128,-1,135
 964 -181 964 -181 981 -168 c 128,-1,136
 998 -155 998 -155 1013.5 -142.5 c 128,-1,137
 1029 -130 1029 -130 1050 -121 c 128,-1,138
 1071 -112 1071 -112 1103 -112 c 0,139,140
 1138 -112 1138 -112 1159.5 -137.5 c 128,-1,141
 1181 -163 1181 -163 1181 -198 c 0,142,143
 1181 -229 1181 -229 1167.5 -252.5 c 128,-1,144
 1154 -276 1154 -276 1128 -293 c 1,0,1
757 -457 m 1,145,146
 771 -410 771 -410 784.5 -357 c 128,-1,147
 798 -304 798 -304 810 -246 c 1,148,149
 752 -240 752 -240 691 -223.5 c 128,-1,150
 630 -207 630 -207 571 -189 c 0,151,152
 509 -170 509 -170 447.5 -156 c 128,-1,153
 386 -142 386 -142 333 -142 c 0,154,155
 281 -142 281 -142 257.5 -160.5 c 128,-1,156
 234 -179 234 -179 234 -211 c 256,157,158
 234 -243 234 -243 260 -267.5 c 128,-1,159
 286 -292 286 -292 327 -310 c 128,-1,160
 368 -328 368 -328 415.5 -341 c 128,-1,161
 463 -354 463 -354 505 -364 c 0,162,163
 543 -373 543 -373 580 -382 c 128,-1,164
 617 -391 617 -391 648 -401 c 0,165,166
 686 -412 686 -412 714.5 -426 c 128,-1,167
 743 -440 743 -440 757 -457 c 1,145,146
EndSplineSet
EndChar

StartChar: uni1B0F
Encoding: 6927 6927 20
Width: 718
GlyphClass: 2
Flags: W
AnchorPoint: "+BBEENQQ3BEsEPARPBD0EPQQ+BDUA--3" 649 0 basechar 0
AnchorPoint: "+BBEENQQ3BEsEPARPBD0EPQQ+BDUA--2" 392 620 basechar 0
LayerCount: 2
Fore
SplineSet
659 0 m 1,0,-1
 610 -10 l 1,1,2
 610 -2 610 -2 610.5 6 c 128,-1,3
 611 14 611 14 611 21 c 0,4,5
 611 110 611 110 554.5 160 c 128,-1,6
 498 210 498 210 401 210 c 256,7,8
 304 210 304 210 248 156 c 128,-1,9
 192 102 192 102 192 12 c 2,10,-1
 192 -12 l 1,11,12
 129 26 129 26 94 99.5 c 128,-1,13
 59 173 59 173 59 262 c 0,14,15
 59 343 59 343 87 400 c 128,-1,16
 115 457 115 457 159.5 493 c 128,-1,17
 204 529 204 529 253.5 545.5 c 128,-1,18
 303 562 303 562 346 562 c 0,19,20
 377 562 377 562 408 556 c 1,21,-1
 397 509 l 1,22,23
 384 511 384 511 371 512 c 128,-1,24
 358 513 358 513 347 513 c 0,25,26
 280 513 280 513 225.5 482 c 128,-1,27
 171 451 171 451 139 395.5 c 128,-1,28
 107 340 107 340 107 266 c 0,29,30
 107 149 107 149 161 90 c 1,31,32
 175 152 175 152 209 197.5 c 128,-1,33
 243 243 243 243 292.5 268 c 128,-1,34
 342 293 342 293 400 293 c 0,35,36
 477 293 477 293 535.5 258.5 c 128,-1,37
 594 224 594 224 627 163.5 c 128,-1,38
 660 103 660 103 660 25 c 0,39,40
 660 19 660 19 659.5 12.5 c 128,-1,41
 659 6 659 6 659 0 c 1,0,-1
EndSplineSet
EndChar

StartChar: uni1B10
Encoding: 6928 6928 21
Width: 1144
GlyphClass: 2
Flags: W
AnchorPoint: "+BBEENQQ3BEsEPARPBD0EPQQ+BDUA--3" 950 -516 basechar 0
AnchorPoint: "+BBEENQQ3BEsEPARPBD0EPQQ+BDUA--2" 516 620 basechar 0
LayerCount: 2
Fore
SplineSet
999 508 m 1,0,-1
 999 -301 l 2,1,2
 999 -427 999 -427 962 -486.5 c 128,-1,3
 925 -546 925 -546 842 -546 c 0,4,5
 793 -546 793 -546 763 -496 c 0,6,7
 733 -445 733 -445 690 -445 c 0,8,9
 650 -445 650 -445 619 -496 c 0,10,11
 589 -546 589 -546 540 -546 c 0,12,13
 458 -546 458 -546 410 -487 c 128,-1,14
 362 -428 362 -428 362 -331 c 0,15,16
 362 -276 362 -276 382 -225.5 c 128,-1,17
 402 -175 402 -175 452.5 -118 c 128,-1,18
 503 -61 503 -61 594 11 c 0,19,20
 686 84 686 84 736.5 140.5 c 128,-1,21
 787 197 787 197 807 247.5 c 128,-1,22
 827 298 827 298 827 352 c 0,23,24
 827 404 827 404 798 433.5 c 128,-1,25
 769 463 769 463 718 463 c 0,26,27
 677 463 677 463 647.5 434.5 c 128,-1,28
 618 406 618 406 613 358 c 1,29,-1
 579 358 l 1,30,31
 579 386 579 386 564.5 409.5 c 128,-1,32
 550 433 550 433 526 448 c 128,-1,33
 502 463 502 463 474 463 c 0,34,35
 413 463 413 463 387 424 c 128,-1,36
 361 385 361 385 361 301 c 2,37,-1
 361 0 l 1,38,-1
 338 0 l 2,39,40
 239 0 239 0 212 85 c 0,41,42
 199 127 199 127 199 227 c 2,43,-1
 199 320 l 2,44,45
 199 362 199 362 196 394 c 128,-1,46
 193 426 193 426 180.5 444.5 c 128,-1,47
 168 463 168 463 141 463 c 0,48,49
 110 463 110 463 97.5 447 c 128,-1,50
 85 431 85 431 82 402.5 c 128,-1,51
 79 374 79 374 78 336 c 1,52,53
 66 332 66 332 57 332 c 256,54,55
 48 332 48 332 39 335 c 1,56,57
 39 390 39 390 47 438 c 128,-1,58
 55 486 55 486 76.5 516 c 128,-1,59
 98 546 98 546 140 546 c 0,60,61
 184 546 184 546 205 515 c 128,-1,62
 226 484 226 484 232 432.5 c 128,-1,63
 238 381 238 381 238 319 c 2,64,-1
 238 204 l 2,65,66
 238 145 238 145 257 114 c 128,-1,67
 276 83 276 83 310 83 c 2,68,-1
 322 83 l 1,69,-1
 322 301 l 2,70,71
 322 435 322 435 357 490.5 c 128,-1,72
 392 546 392 546 474 546 c 0,73,74
 563 546 563 546 596 445 c 1,75,76
 629 546 629 546 718 546 c 0,77,78
 792 546 792 546 833.5 494.5 c 128,-1,79
 875 443 875 443 875 349 c 0,80,81
 875 261 875 261 845.5 185 c 128,-1,82
 816 109 816 109 750 41 c 0,83,84
 718 8 718 8 676 -28.5 c 128,-1,85
 634 -65 634 -65 582 -103 c 0,86,87
 513 -153 513 -153 476 -192 c 128,-1,88
 439 -231 439 -231 425 -265 c 128,-1,89
 411 -299 411 -299 411 -333 c 0,90,91
 411 -395 411 -395 447 -429 c 128,-1,92
 483 -463 483 -463 549 -463 c 0,93,94
 583 -463 583 -463 604.5 -444 c 128,-1,95
 626 -425 626 -425 644 -392 c 0,96,97
 662 -358 662 -358 690 -358 c 0,98,99
 727 -358 727 -358 755 -410 c 0,100,101
 784 -463 784 -463 832 -463 c 0,102,103
 907 -463 907 -463 933 -423.5 c 128,-1,104
 959 -384 959 -384 959 -301 c 2,105,-1
 959 509 l 1,106,107
 889 520 889 520 846.5 565 c 128,-1,108
 804 610 804 610 804 677 c 0,109,110
 804 718 804 718 826.5 742.5 c 128,-1,111
 849 767 849 767 887 767 c 0,112,113
 919 767 919 767 943.5 744 c 128,-1,114
 968 721 968 721 982.5 681.5 c 128,-1,115
 997 642 997 642 999 592 c 1,116,117
 1042 592 1042 592 1074 624.5 c 128,-1,118
 1106 657 1106 657 1110 714 c 1,119,-1
 1144 693 l 1,120,121
 1138 610 1138 610 1098 560 c 128,-1,122
 1058 510 1058 510 999 508 c 1,0,-1
848 677 m 0,123,124
 848 640 848 640 877.5 618.5 c 128,-1,125
 907 597 907 597 959 592 c 1,126,127
 958 647 958 647 937 682.5 c 128,-1,128
 916 718 916 718 889 718 c 0,129,130
 848 718 848 718 848 677 c 0,123,124
EndSplineSet
EndChar

StartChar: uni1B11
Encoding: 6929 6929 22
Width: 983
GlyphClass: 2
Flags: W
AnchorPoint: "+BBEENQQ3BEsEPARPBD0EPQQ+BDUA--3" 991 -511 basechar 0
AnchorPoint: "+BBEENQQ3BEsEPARPBD0EPQQ+BDUA--2" 516 620 basechar 0
LayerCount: 2
Fore
SplineSet
541 -546 m 2,0,1
 473 -546 473 -546 434 -514 c 128,-1,2
 395 -482 395 -482 378.5 -432 c 128,-1,3
 362 -382 362 -382 362 -330 c 0,4,5
 362 -265 362 -265 387 -212.5 c 128,-1,6
 412 -160 412 -160 453.5 -115 c 128,-1,7
 495 -70 495 -70 545 -29.5 c 128,-1,8
 595 11 595 11 644.5 52 c 128,-1,9
 694 93 694 93 735.5 138 c 128,-1,10
 777 183 777 183 802 235.5 c 128,-1,11
 827 288 827 288 827 352 c 0,12,13
 827 402 827 402 799 432.5 c 128,-1,14
 771 463 771 463 718 463 c 0,15,16
 681 463 681 463 649.5 437 c 128,-1,17
 618 411 618 411 613 358 c 1,18,-1
 579 358 l 1,19,20
 579 385 579 385 565 409 c 128,-1,21
 551 433 551 433 527 448 c 128,-1,22
 503 463 503 463 474 463 c 0,23,24
 440 463 440 463 414.5 449.5 c 128,-1,25
 389 436 389 436 375 401 c 128,-1,26
 361 366 361 366 361 301 c 2,27,-1
 361 0 l 1,28,-1
 338 0 l 2,29,30
 287 0 287 0 259 18.5 c 128,-1,31
 231 37 231 37 218 68.5 c 128,-1,32
 205 100 205 100 202 141 c 128,-1,33
 199 182 199 182 199 227 c 2,34,-1
 199 322 l 2,35,36
 199 399 199 399 187.5 431 c 128,-1,37
 176 463 176 463 141 463 c 0,38,39
 111 463 111 463 98 446.5 c 128,-1,40
 85 430 85 430 82 401.5 c 128,-1,41
 79 373 79 373 78 336 c 1,42,43
 73 335 73 335 69 333.5 c 128,-1,44
 65 332 65 332 57 332 c 0,45,46
 50 332 50 332 47 333 c 128,-1,47
 44 334 44 334 39 335 c 1,48,49
 39 361 39 361 41 397 c 128,-1,50
 43 433 43 433 52.5 467 c 128,-1,51
 62 501 62 501 82.5 523.5 c 128,-1,52
 103 546 103 546 140 546 c 0,53,54
 176 546 176 546 196 525.5 c 128,-1,55
 216 505 216 505 225 471 c 128,-1,56
 234 437 234 437 236 397.5 c 128,-1,57
 238 358 238 358 238 319 c 2,58,-1
 238 204 l 2,59,60
 238 142 238 142 258.5 112.5 c 128,-1,61
 279 83 279 83 310 83 c 2,62,-1
 322 83 l 1,63,-1
 322 301 l 2,64,65
 322 431 322 431 355.5 488.5 c 128,-1,66
 389 546 389 546 474 546 c 0,67,68
 521 546 521 546 550.5 520 c 128,-1,69
 580 494 580 494 596 445 c 1,70,71
 612 494 612 494 641.5 520 c 128,-1,72
 671 546 671 546 718 546 c 0,73,74
 775 546 775 546 809.5 519 c 128,-1,75
 844 492 844 492 859.5 447.5 c 128,-1,76
 875 403 875 403 875 349 c 0,77,78
 875 264 875 264 850 197.5 c 128,-1,79
 825 131 825 131 783.5 79.5 c 128,-1,80
 742 28 742 28 692.5 -14 c 128,-1,81
 643 -56 643 -56 593.5 -93 c 128,-1,82
 544 -130 544 -130 502.5 -166.5 c 128,-1,83
 461 -203 461 -203 436 -243 c 128,-1,84
 411 -283 411 -283 411 -333 c 0,85,86
 411 -359 411 -359 423 -389.5 c 128,-1,87
 435 -420 435 -420 457.5 -441.5 c 128,-1,88
 480 -463 480 -463 512 -463 c 2,89,-1
 524 -463 l 1,90,-1
 524 -401 l 2,91,92
 524 -314 524 -314 552.5 -260 c 128,-1,93
 581 -206 581 -206 633 -180.5 c 128,-1,94
 685 -155 685 -155 753 -155 c 0,95,96
 863 -155 863 -155 923 -216 c 128,-1,97
 983 -277 983 -277 983 -402 c 2,98,-1
 983 -546 l 1,99,-1
 944 -546 l 1,100,-1
 944 -403 l 2,101,102
 944 -320 944 -320 901 -279 c 128,-1,103
 858 -238 858 -238 754 -238 c 0,104,105
 699 -238 699 -238 656 -252 c 128,-1,106
 613 -266 613 -266 588 -301 c 128,-1,107
 563 -336 563 -336 563 -401 c 2,108,-1
 563 -546 l 1,109,-1
 541 -546 l 2,0,1
EndSplineSet
EndChar

StartChar: uni1B13
Encoding: 6931 6931 24
Width: 1111
GlyphClass: 2
Flags: W
AnchorPoint: "+BBEENQQ3BEsEPARPBD0EPQQ+BDUA--7" 1051 0 basechar 0
AnchorPoint: "+BBEENQQ3BEsEPARPBD0EPQQ+BDUA--6" 1416 0 basechar 0
AnchorPoint: "+BBEENQQ3BEsEPARPBD0EPQQ+BDUA--5" 1123 0 basechar 0
AnchorPoint: "+BBEENQQ3BEsEPARPBD0EPQQ+BDUA--4" 1112 0 basechar 0
AnchorPoint: "+BBEENQQ3BEsEPARPBD0EPQQ+BDUA--3" 1054 0 basechar 0
AnchorPoint: "+BBEENQQ3BEsEPARPBD0EPQQ+BDUA--2" 556 620 basechar 0
LayerCount: 2
Fore
SplineSet
153 -10 m 0,0,1
 125 -10 125 -10 106.5 5 c 128,-1,2
 88 20 88 20 78 43.5 c 128,-1,3
 68 67 68 67 68 92 c 0,4,5
 68 170 68 170 113.5 218.5 c 128,-1,6
 159 267 159 267 223 286 c 1,7,-1
 223 322 l 2,8,9
 223 399 223 399 204.5 431 c 128,-1,10
 186 463 186 463 151 463 c 0,11,12
 119 463 119 463 104 446.5 c 128,-1,13
 89 430 89 430 84 401.5 c 128,-1,14
 79 373 79 373 78 336 c 1,15,16
 73 335 73 335 69 333.5 c 128,-1,17
 65 332 65 332 57 332 c 0,18,19
 50 332 50 332 47 333 c 128,-1,20
 44 334 44 334 39 335 c 1,21,22
 39 361 39 361 41.5 397 c 128,-1,23
 44 433 44 433 54.5 467 c 128,-1,24
 65 501 65 501 89 523.5 c 128,-1,25
 113 546 113 546 156 546 c 0,26,27
 193 546 193 546 214.5 525.5 c 128,-1,28
 236 505 236 505 246 471 c 128,-1,29
 256 437 256 437 259 397.5 c 128,-1,30
 262 358 262 358 262 319 c 2,31,-1
 262 294 l 1,32,33
 269 296 269 296 279.5 296.5 c 128,-1,34
 290 297 290 297 317 298 c 1,35,-1
 317 319 l 2,36,37
 317 396 317 396 348 446.5 c 128,-1,38
 379 497 379 497 433 521.5 c 128,-1,39
 487 546 487 546 556 546 c 0,40,41
 666 546 666 546 728.5 485.5 c 128,-1,42
 791 425 791 425 791 300 c 2,43,-1
 791 178 l 2,44,45
 791 111 791 111 803 87 c 128,-1,46
 815 63 815 63 844 63 c 0,47,48
 864 63 864 63 874 85 c 128,-1,49
 884 107 884 107 884 138 c 2,50,-1
 884 537 l 1,51,-1
 907 537 l 2,52,53
 958 537 958 537 986.5 518.5 c 128,-1,54
 1015 500 1015 500 1028 468.5 c 128,-1,55
 1041 437 1041 437 1044 396 c 128,-1,56
 1047 355 1047 355 1047 310 c 2,57,-1
 1047 0 l 1,58,-1
 1008 0 l 1,59,-1
 1008 306 l 2,60,61
 1008 383 1008 383 989.5 418.5 c 128,-1,62
 971 454 971 454 936 454 c 2,63,-1
 923 454 l 1,64,-1
 923 108 l 2,65,66
 923 83 923 83 916 55.5 c 128,-1,67
 909 28 909 28 891.5 9 c 128,-1,68
 874 -10 874 -10 843 -10 c 0,69,70
 802 -10 802 -10 782.5 16.5 c 128,-1,71
 763 43 763 43 757.5 87 c 128,-1,72
 752 131 752 131 752 182 c 2,73,-1
 752 299 l 2,74,75
 752 383 752 383 706.5 423 c 128,-1,76
 661 463 661 463 557 463 c 0,77,78
 455 463 455 463 405.5 420.5 c 128,-1,79
 356 378 356 378 356 297 c 1,80,81
 411 294 411 294 464 282.5 c 128,-1,82
 517 271 517 271 560 248 c 128,-1,83
 603 225 603 225 629 188.5 c 128,-1,84
 655 152 655 152 655 99 c 0,85,86
 655 59 655 59 635.5 35 c 128,-1,87
 616 11 616 11 585.5 0.5 c 128,-1,88
 555 -10 555 -10 522 -10 c 0,89,90
 488 -10 488 -10 452 4 c 128,-1,91
 416 18 416 18 385.5 45.5 c 128,-1,92
 355 73 355 73 336 112.5 c 128,-1,93
 317 152 317 152 317 203 c 2,94,-1
 317 215 l 1,95,96
 302 215 302 215 289 214.5 c 128,-1,97
 276 214 276 214 262 212 c 1,98,-1
 262 182 l 2,99,100
 262 131 262 131 253 87 c 128,-1,101
 244 43 244 43 220.5 16.5 c 128,-1,102
 197 -10 197 -10 153 -10 c 0,0,1
527 39 m 0,103,104
 555 39 555 39 580.5 49.5 c 128,-1,105
 606 60 606 60 606 85 c 0,106,107
 606 115 606 115 584 138 c 128,-1,108
 562 161 562 161 526 176.5 c 128,-1,109
 490 192 490 192 445.5 201 c 128,-1,110
 401 210 401 210 356 213 c 1,111,-1
 356 199 l 2,112,113
 356 143 356 143 383.5 107.5 c 128,-1,114
 411 72 411 72 451 55.5 c 128,-1,115
 491 39 491 39 527 39 c 0,103,104
155 39 m 0,116,117
 185 39 185 39 204 70.5 c 128,-1,118
 223 102 223 102 223 178 c 2,119,-1
 223 206 l 1,120,121
 174 194 174 194 143 167.5 c 128,-1,122
 112 141 112 141 112 98 c 0,123,124
 112 67 112 67 124 53 c 128,-1,125
 136 39 136 39 155 39 c 0,116,117
EndSplineSet
Position2: "Single Positioning lookup 15 subtable" dx=0 dy=0 dh=98 dv=0
Position2: "Single Positioning lookup 14 subtable" dx=0 dy=0 dh=98 dv=0
Position2: "Single Positioning lookup 13 subtable" dx=0 dy=0 dh=259 dv=0
Position2: "Single Positioning lookup 12 subtable" dx=0 dy=0 dh=176 dv=0
EndChar

StartChar: uni1B14
Encoding: 6932 6932 25
Width: 1131
GlyphClass: 2
Flags: W
AnchorPoint: "+BBEENQQ3BEsEPARPBD0EPQQ+BDUA--7" 1084 0 basechar 0
AnchorPoint: "+BBEENQQ3BEsEPARPBD0EPQQ+BDUA--6" 1416 0 basechar 0
AnchorPoint: "+BBEENQQ3BEsEPARPBD0EPQQ+BDUA--5" 1171 0 basechar 0
AnchorPoint: "+BBEENQQ3BEsEPARPBD0EPQQ+BDUA--4" 1130 0 basechar 0
AnchorPoint: "+BBEENQQ3BEsEPARPBD0EPQQ+BDUA--3" 1054 0 basechar 0
AnchorPoint: "+BBEENQQ3BEsEPARPBD0EPQQ+BDUA--2" 439 620 basechar 0
LayerCount: 2
Fore
SplineSet
1155 -88 m 1,0,-1
 1123 -98 l 1,1,2
 1117 -52 1117 -52 1078 -28.5 c 128,-1,3
 1039 -5 1039 -5 944 -5 c 0,4,5
 752 -5 752 -5 752 198 c 2,6,-1
 752 299 l 2,7,8
 752 386 752 386 704.5 424.5 c 128,-1,9
 657 463 657 463 557 463 c 0,10,11
 451 463 451 463 403.5 426 c 128,-1,12
 356 389 356 389 356 311 c 2,13,-1
 356 297 l 1,14,15
 496 290 496 290 575.5 239 c 128,-1,16
 655 188 655 188 655 99 c 0,17,18
 655 49 655 49 619.5 19.5 c 128,-1,19
 584 -10 584 -10 522 -10 c 0,20,21
 472 -10 472 -10 425 17 c 128,-1,22
 378 44 378 44 347.5 92 c 128,-1,23
 317 140 317 140 317 202 c 2,24,-1
 317 214 l 1,25,26
 299 214 299 214 285.5 214 c 128,-1,27
 272 214 272 214 262 212 c 1,28,-1
 262 182 l 2,29,30
 262 82 262 82 235 36 c 128,-1,31
 208 -10 208 -10 153 -10 c 0,32,33
 116 -10 116 -10 92 19.5 c 128,-1,34
 68 49 68 49 68 92 c 0,35,36
 68 163 68 163 109 214 c 128,-1,37
 150 265 150 265 223 286 c 1,38,-1
 223 322 l 2,39,40
 223 463 223 463 151 463 c 0,41,42
 115 463 115 463 98 439 c 0,43,44
 79 413 79 413 78 336 c 1,45,46
 66 332 66 332 57 332 c 0,47,48
 53 332 53 332 48.5 333 c 128,-1,49
 44 334 44 334 39 335 c 1,50,51
 39 448 39 448 68.5 497 c 128,-1,52
 98 546 98 546 156 546 c 0,53,54
 208 546 208 546 235 499 c 0,55,56
 262 451 262 451 262 319 c 2,57,-1
 262 294 l 1,58,59
 279 298 279 298 317 298 c 1,60,-1
 317 319 l 2,61,62
 317 426 317 426 380.5 486 c 128,-1,63
 444 546 444 546 556 546 c 0,64,65
 672 546 672 546 731.5 483 c 128,-1,66
 791 420 791 420 791 300 c 2,67,-1
 791 203 l 2,68,69
 791 139 791 139 829 109.5 c 128,-1,70
 867 80 867 80 954 78 c 0,71,72
 1041 77 1041 77 1093 35 c 128,-1,73
 1145 -7 1145 -7 1155 -88 c 1,0,-1
356 213 m 1,74,-1
 356 199 l 2,75,76
 356 148 356 148 381.5 112 c 128,-1,77
 407 76 407 76 446 57.5 c 128,-1,78
 485 39 485 39 527 39 c 0,79,80
 561 39 561 39 583.5 51 c 128,-1,81
 606 63 606 63 606 85 c 0,82,83
 606 120 606 120 574.5 147 c 128,-1,84
 543 174 543 174 487 191.5 c 128,-1,85
 431 209 431 209 356 213 c 1,74,-1
223 178 m 2,86,-1
 223 206 l 1,87,88
 168 193 168 193 140 164.5 c 128,-1,89
 112 136 112 136 112 98 c 0,90,91
 112 39 112 39 155 39 c 0,92,93
 223 39 223 39 223 178 c 2,86,-1
EndSplineSet
Position2: "Single Positioning lookup 15 subtable" dx=0 dy=0 dh=98 dv=0
Position2: "Single Positioning lookup 14 subtable" dx=0 dy=0 dh=98 dv=0
Position2: "Single Positioning lookup 13 subtable" dx=0 dy=0 dh=259 dv=0
Position2: "Single Positioning lookup 12 subtable" dx=0 dy=0 dh=176 dv=0
EndChar

StartChar: uni1B15
Encoding: 6933 6933 26
Width: 1092
GlyphClass: 2
Flags: W
AnchorPoint: "+BBEENQQ3BEsEPARPBD0EPQQ+BDUA--7" 1033 0 basechar 0
AnchorPoint: "+BBEENQQ3BEsEPARPBD0EPQQ+BDUA--6" 1416 0 basechar 0
AnchorPoint: "+BBEENQQ3BEsEPARPBD0EPQQ+BDUA--5" 1171 0 basechar 0
AnchorPoint: "+BBEENQQ3BEsEPARPBD0EPQQ+BDUA--4" 1092 0 basechar 0
AnchorPoint: "+BBEENQQ3BEsEPARPBD0EPQQ+BDUA--3" 1035 0 basechar 0
AnchorPoint: "+BBEENQQ3BEsEPARPBD0EPQQ+BDUA--2" 546 620 basechar 0
LayerCount: 2
Fore
SplineSet
888 537 m 2,0,1
 939 537 939 537 967.5 518.5 c 128,-1,2
 996 500 996 500 1009 468.5 c 128,-1,3
 1022 437 1022 437 1025.5 396 c 128,-1,4
 1029 355 1029 355 1029 310 c 2,5,-1
 1029 0 l 1,6,-1
 990 0 l 1,7,-1
 990 306 l 2,8,9
 990 383 990 383 971 418.5 c 128,-1,10
 952 454 952 454 917 454 c 2,11,-1
 904 454 l 1,12,-1
 904 227 l 2,13,14
 904 182 904 182 901 141 c 128,-1,15
 898 100 898 100 885 68.5 c 128,-1,16
 872 37 872 37 844 18.5 c 128,-1,17
 816 0 816 0 765 0 c 2,18,-1
 742 0 l 1,19,-1
 742 299 l 2,20,21
 742 383 742 383 698.5 423 c 128,-1,22
 655 463 655 463 552 463 c 0,23,24
 497 463 497 463 453.5 449.5 c 128,-1,25
 410 436 410 436 385.5 401 c 128,-1,26
 361 366 361 366 361 301 c 2,27,-1
 361 0 l 1,28,-1
 338 0 l 2,29,30
 287 0 287 0 259 18.5 c 128,-1,31
 231 37 231 37 218 68.5 c 128,-1,32
 205 100 205 100 202 141 c 128,-1,33
 199 182 199 182 199 227 c 2,34,-1
 199 322 l 2,35,36
 199 399 199 399 187.5 431 c 128,-1,37
 176 463 176 463 141 463 c 0,38,39
 111 463 111 463 98 447 c 128,-1,40
 85 431 85 431 82 402.5 c 128,-1,41
 79 374 79 374 78 336 c 1,42,43
 73 335 73 335 69 333.5 c 128,-1,44
 65 332 65 332 57 332 c 0,45,46
 50 332 50 332 47 333 c 128,-1,47
 44 334 44 334 39 335 c 1,48,49
 39 361 39 361 41 397 c 128,-1,50
 43 433 43 433 52.5 467 c 128,-1,51
 62 501 62 501 82.5 523.5 c 128,-1,52
 103 546 103 546 140 546 c 0,53,54
 176 546 176 546 196 525.5 c 128,-1,55
 216 505 216 505 225 471 c 128,-1,56
 234 437 234 437 236 397.5 c 128,-1,57
 238 358 238 358 238 319 c 2,58,-1
 238 204 l 2,59,60
 238 142 238 142 258.5 112.5 c 128,-1,61
 279 83 279 83 310 83 c 2,62,-1
 322 83 l 1,63,-1
 322 301 l 2,64,65
 322 388 322 388 350.5 442 c 128,-1,66
 379 496 379 496 431 521 c 128,-1,67
 483 546 483 546 551 546 c 0,68,69
 661 546 661 546 721 485.5 c 128,-1,70
 781 425 781 425 781 300 c 2,71,-1
 781 83 l 1,72,-1
 794 83 l 2,73,74
 826 83 826 83 845.5 112.5 c 128,-1,75
 865 142 865 142 865 204 c 2,76,-1
 865 537 l 1,77,-1
 888 537 l 2,0,1
EndSplineSet
Position2: "Single Positioning lookup 15 subtable" dx=0 dy=0 dh=98 dv=0
Position2: "Single Positioning lookup 14 subtable" dx=0 dy=0 dh=98 dv=0
Position2: "Single Positioning lookup 13 subtable" dx=0 dy=0 dh=259 dv=0
Position2: "Single Positioning lookup 12 subtable" dx=0 dy=0 dh=176 dv=0
EndChar

StartChar: uni1B16
Encoding: 6934 6934 27
Width: 1168
GlyphClass: 2
Flags: W
AnchorPoint: "+BBEENQQ3BEsEPARPBD0EPQQ+BDUA--7" 1108 0 basechar 0
AnchorPoint: "+BBEENQQ3BEsEPARPBD0EPQQ+BDUA--6" 1416 0 basechar 0
AnchorPoint: "+BBEENQQ3BEsEPARPBD0EPQQ+BDUA--5" 1171 0 basechar 0
AnchorPoint: "+BBEENQQ3BEsEPARPBD0EPQQ+BDUA--4" 1167 0 basechar 0
AnchorPoint: "+BBEENQQ3BEsEPARPBD0EPQQ+BDUA--3" 1113 0 basechar 0
AnchorPoint: "+BBEENQQ3BEsEPARPBD0EPQQ+BDUA--2" 585 620 basechar 0
LayerCount: 2
Fore
SplineSet
939 546 m 0,0,1
 1001 546 1001 546 1037 514.5 c 128,-1,2
 1073 483 1073 483 1088.5 430 c 128,-1,3
 1104 377 1104 377 1104 310 c 2,4,-1
 1104 0 l 1,5,-1
 1065 0 l 1,6,-1
 1065 306 l 2,7,8
 1065 366 1065 366 1049.5 400 c 128,-1,9
 1034 434 1034 434 1009.5 448.5 c 128,-1,10
 985 463 985 463 958 463 c 0,11,12
 950 463 950 463 938 461 c 128,-1,13
 926 459 926 459 919 456 c 1,14,15
 965 418 965 418 979.5 372 c 128,-1,16
 994 326 994 326 994 273 c 2,17,-1
 994 235 l 2,18,19
 994 105 994 105 966 47.5 c 128,-1,20
 938 -10 938 -10 872 -10 c 0,21,22
 846 -10 846 -10 830 0 c 128,-1,23
 814 10 814 10 803 25.5 c 128,-1,24
 792 41 792 41 782 56 c 128,-1,25
 772 71 772 71 757.5 81 c 128,-1,26
 743 91 743 91 720 91 c 256,27,28
 697 91 697 91 683 81 c 128,-1,29
 669 71 669 71 658.5 56 c 128,-1,30
 648 41 648 41 637.5 25.5 c 128,-1,31
 627 10 627 10 611 0 c 128,-1,32
 595 -10 595 -10 569 -10 c 0,33,34
 503 -10 503 -10 475 47.5 c 128,-1,35
 447 105 447 105 447 235 c 2,36,-1
 447 454 l 1,37,-1
 434 454 l 2,38,39
 400 454 400 454 380.5 418.5 c 128,-1,40
 361 383 361 383 361 306 c 2,41,-1
 361 0 l 1,42,-1
 338 0 l 2,43,44
 287 0 287 0 259 18.5 c 128,-1,45
 231 37 231 37 218 68.5 c 128,-1,46
 205 100 205 100 202 141 c 128,-1,47
 199 182 199 182 199 227 c 2,48,-1
 199 322 l 2,49,50
 199 399 199 399 187.5 431 c 128,-1,51
 176 463 176 463 141 463 c 0,52,53
 111 463 111 463 98 446.5 c 128,-1,54
 85 430 85 430 82 401.5 c 128,-1,55
 79 373 79 373 78 336 c 1,56,57
 73 335 73 335 69 333.5 c 128,-1,58
 65 332 65 332 57 332 c 0,59,60
 50 332 50 332 47 333 c 128,-1,61
 44 334 44 334 39 335 c 1,62,63
 39 361 39 361 41 397 c 128,-1,64
 43 433 43 433 52.5 467 c 128,-1,65
 62 501 62 501 82.5 523.5 c 128,-1,66
 103 546 103 546 140 546 c 0,67,68
 176 546 176 546 196 525.5 c 128,-1,69
 216 505 216 505 225 471 c 128,-1,70
 234 437 234 437 236 397.5 c 128,-1,71
 238 358 238 358 238 319 c 2,72,-1
 238 204 l 2,73,74
 238 142 238 142 258.5 112.5 c 128,-1,75
 279 83 279 83 310 83 c 2,76,-1
 322 83 l 1,77,-1
 322 310 l 2,78,79
 322 355 322 355 325.5 396 c 128,-1,80
 329 437 329 437 342 468.5 c 128,-1,81
 355 500 355 500 383.5 518.5 c 128,-1,82
 412 537 412 537 463 537 c 2,83,-1
 486 537 l 1,84,-1
 486 235 l 2,85,86
 486 171 486 171 497 135.5 c 128,-1,87
 508 100 508 100 529 86.5 c 128,-1,88
 550 73 550 73 579 73 c 0,89,90
 607 73 607 73 624 83.5 c 128,-1,91
 641 94 641 94 651.5 109.5 c 128,-1,92
 662 125 662 125 670.5 141 c 128,-1,93
 679 157 679 157 690.5 167.5 c 128,-1,94
 702 178 702 178 720 178 c 0,95,96
 745 178 745 178 759 162 c 128,-1,97
 773 146 773 146 784.5 125.5 c 128,-1,98
 796 105 796 105 813.5 89 c 128,-1,99
 831 73 831 73 862 73 c 0,100,101
 892 73 892 73 912.5 86.5 c 128,-1,102
 933 100 933 100 944 135.5 c 128,-1,103
 955 171 955 171 955 235 c 2,104,-1
 955 261 l 2,105,106
 955 290 955 290 947.5 323 c 128,-1,107
 940 356 940 356 923 386 c 128,-1,108
 906 416 906 416 877 435 c 128,-1,109
 848 454 848 454 804 454 c 1,110,111
 824 495 824 495 856.5 520.5 c 128,-1,112
 889 546 889 546 939 546 c 0,0,1
EndSplineSet
Position2: "Single Positioning lookup 15 subtable" dx=0 dy=0 dh=98 dv=0
Position2: "Single Positioning lookup 14 subtable" dx=0 dy=0 dh=98 dv=0
Position2: "Single Positioning lookup 13 subtable" dx=0 dy=0 dh=259 dv=0
Position2: "Single Positioning lookup 12 subtable" dx=0 dy=0 dh=176 dv=0
EndChar

StartChar: uni1B17
Encoding: 6935 6935 28
Width: 933
GlyphClass: 2
Flags: W
AnchorPoint: "+BBEENQQ3BEsEPARPBD0EPQQ+BDUA--7" 873 0 basechar 0
AnchorPoint: "+BBEENQQ3BEsEPARPBD0EPQQ+BDUA--6" 1416 0 basechar 0
AnchorPoint: "+BBEENQQ3BEsEPARPBD0EPQQ+BDUA--5" 1171 0 basechar 0
AnchorPoint: "+BBEENQQ3BEsEPARPBD0EPQQ+BDUA--4" 932 0 basechar 0
AnchorPoint: "+BBEENQQ3BEsEPARPBD0EPQQ+BDUA--3" 877 0 basechar 0
AnchorPoint: "+BBEENQQ3BEsEPARPBD0EPQQ+BDUA--2" 512 620 basechar 0
LayerCount: 2
Fore
SplineSet
338 0 m 2,0,1
 287 0 287 0 259 18.5 c 128,-1,2
 231 37 231 37 218 68.5 c 128,-1,3
 205 100 205 100 202 141 c 128,-1,4
 199 182 199 182 199 227 c 2,5,-1
 199 322 l 2,6,7
 199 399 199 399 187.5 431 c 128,-1,8
 176 463 176 463 141 463 c 0,9,10
 111 463 111 463 98 446.5 c 128,-1,11
 85 430 85 430 82 401.5 c 128,-1,12
 79 373 79 373 78 336 c 1,13,14
 73 335 73 335 69 333.5 c 128,-1,15
 65 332 65 332 57 332 c 0,16,17
 50 332 50 332 47 333 c 128,-1,18
 44 334 44 334 39 335 c 1,19,20
 39 361 39 361 41 397 c 128,-1,21
 43 433 43 433 52.5 467 c 128,-1,22
 62 501 62 501 82.5 523.5 c 128,-1,23
 103 546 103 546 140 546 c 0,24,25
 176 546 176 546 196 525.5 c 128,-1,26
 216 505 216 505 225 471 c 128,-1,27
 234 437 234 437 236 397.5 c 128,-1,28
 238 358 238 358 238 319 c 2,29,-1
 238 204 l 2,30,31
 238 142 238 142 258.5 112.5 c 128,-1,32
 279 83 279 83 310 83 c 2,33,-1
 322 83 l 1,34,-1
 322 301 l 2,35,36
 322 431 322 431 355.5 488.5 c 128,-1,37
 389 546 389 546 474 546 c 0,38,39
 521 546 521 546 550.5 520 c 128,-1,40
 580 494 580 494 596 445 c 1,41,42
 612 494 612 494 641.5 520 c 128,-1,43
 671 546 671 546 718 546 c 0,44,45
 803 546 803 546 836 488.5 c 128,-1,46
 869 431 869 431 869 301 c 2,47,-1
 869 0 l 1,48,-1
 830 0 l 1,49,-1
 830 301 l 2,50,51
 830 366 830 366 816.5 401 c 128,-1,52
 803 436 803 436 778 449.5 c 128,-1,53
 753 463 753 463 718 463 c 0,54,55
 681 463 681 463 649.5 437 c 128,-1,56
 618 411 618 411 613 358 c 1,57,-1
 579 358 l 1,58,59
 579 385 579 385 565 409 c 128,-1,60
 551 433 551 433 527 448 c 128,-1,61
 503 463 503 463 474 463 c 0,62,63
 440 463 440 463 414.5 449.5 c 128,-1,64
 389 436 389 436 375 401 c 128,-1,65
 361 366 361 366 361 301 c 2,66,-1
 361 0 l 1,67,-1
 338 0 l 2,0,1
EndSplineSet
Position2: "Single Positioning lookup 15 subtable" dx=0 dy=0 dh=186 dv=0
Position2: "Single Positioning lookup 14 subtable" dx=0 dy=0 dh=210 dv=0
Position2: "Single Positioning lookup 13 subtable" dx=0 dy=0 dh=464 dv=0
Position2: "Single Positioning lookup 12 subtable" dx=0 dy=0 dh=337 dv=0
EndChar

StartChar: uni1B18
Encoding: 6936 6936 29
Width: 794
GlyphClass: 2
Flags: W
AnchorPoint: "+BBEENQQ3BEsEPARPBD0EPQQ+BDUA--7" 735 0 basechar 0
AnchorPoint: "+BBEENQQ3BEsEPARPBD0EPQQ+BDUA--6" 1416 0 basechar 0
AnchorPoint: "+BBEENQQ3BEsEPARPBD0EPQQ+BDUA--5" 1171 0 basechar 0
AnchorPoint: "+BBEENQQ3BEsEPARPBD0EPQQ+BDUA--4" 794 0 basechar 0
AnchorPoint: "+BBEENQQ3BEsEPARPBD0EPQQ+BDUA--3" 737 0 basechar 0
AnchorPoint: "+BBEENQQ3BEsEPARPBD0EPQQ+BDUA--2" 398 620 basechar 0
LayerCount: 2
Fore
SplineSet
566 546 m 0,0,1
 628 546 628 546 664 514.5 c 128,-1,2
 700 483 700 483 715.5 430 c 128,-1,3
 731 377 731 377 731 310 c 2,4,-1
 731 0 l 1,5,-1
 692 0 l 1,6,-1
 692 306 l 2,7,8
 692 366 692 366 676.5 400 c 128,-1,9
 661 434 661 434 636.5 448.5 c 128,-1,10
 612 463 612 463 584 463 c 0,11,12
 577 463 577 463 565 461 c 128,-1,13
 553 459 553 459 545 456 c 1,14,15
 592 418 592 418 606 372 c 128,-1,16
 620 326 620 326 620 273 c 2,17,-1
 620 205 l 2,18,19
 620 149 620 149 610 99.5 c 128,-1,20
 600 50 600 50 574.5 20 c 128,-1,21
 549 -10 549 -10 501 -10 c 0,22,23
 469 -10 469 -10 444 6 c 128,-1,24
 419 22 419 22 398 47.5 c 128,-1,25
 377 73 377 73 356.5 100.5 c 128,-1,26
 336 128 336 128 313.5 152 c 128,-1,27
 291 176 291 176 262 188 c 1,28,-1
 262 182 l 2,29,30
 262 131 262 131 253 87 c 128,-1,31
 244 43 244 43 220.5 16.5 c 128,-1,32
 197 -10 197 -10 153 -10 c 0,33,34
 125 -10 125 -10 106.5 5 c 128,-1,35
 88 20 88 20 78 43.5 c 128,-1,36
 68 67 68 67 68 92 c 0,37,38
 68 158 68 158 93 198 c 128,-1,39
 118 238 118 238 154 257 c 128,-1,40
 190 276 190 276 223 278 c 1,41,-1
 223 322 l 2,42,43
 223 399 223 399 204.5 431 c 128,-1,44
 186 463 186 463 151 463 c 0,45,46
 119 463 119 463 104 446.5 c 128,-1,47
 89 430 89 430 84 401.5 c 128,-1,48
 79 373 79 373 78 336 c 1,49,50
 73 335 73 335 69 333.5 c 128,-1,51
 65 332 65 332 57 332 c 0,52,53
 50 332 50 332 47 333 c 128,-1,54
 44 334 44 334 39 335 c 1,55,56
 39 361 39 361 41.5 397 c 128,-1,57
 44 433 44 433 54.5 467 c 128,-1,58
 65 501 65 501 89 523.5 c 128,-1,59
 113 546 113 546 156 546 c 0,60,61
 193 546 193 546 214.5 525.5 c 128,-1,62
 236 505 236 505 246 471 c 128,-1,63
 256 437 256 437 259 397.5 c 128,-1,64
 262 358 262 358 262 319 c 2,65,-1
 262 275 l 1,66,67
 297 267 297 267 326.5 244 c 128,-1,68
 356 221 356 221 380.5 192 c 128,-1,69
 405 163 405 163 425.5 136 c 128,-1,70
 446 109 446 109 464.5 91 c 128,-1,71
 483 73 483 73 500 73 c 0,72,73
 536 73 536 73 553.5 96 c 128,-1,74
 571 119 571 119 576 155.5 c 128,-1,75
 581 192 581 192 581 232 c 2,76,-1
 581 261 l 2,77,78
 581 290 581 290 574 323 c 128,-1,79
 567 356 567 356 550 386 c 128,-1,80
 533 416 533 416 504 435 c 128,-1,81
 475 454 475 454 431 454 c 1,82,83
 450 495 450 495 483 520.5 c 128,-1,84
 516 546 516 546 566 546 c 0,0,1
155 39 m 0,85,86
 185 39 185 39 204 70.5 c 128,-1,87
 223 102 223 102 223 178 c 2,88,-1
 223 195 l 1,89,90
 196 195 196 195 170.5 186.5 c 128,-1,91
 145 178 145 178 128.5 157.5 c 128,-1,92
 112 137 112 137 112 98 c 0,93,94
 112 67 112 67 124 53 c 128,-1,95
 136 39 136 39 155 39 c 0,85,86
EndSplineSet
Position2: "Single Positioning lookup 15 subtable" dx=0 dy=0 dh=130 dv=0
Position2: "Single Positioning lookup 14 subtable" dx=0 dy=0 dh=342 dv=0
Position2: "Single Positioning lookup 13 subtable" dx=0 dy=0 dh=570 dv=0
Position2: "Single Positioning lookup 12 subtable" dx=0 dy=0 dh=469 dv=0
EndChar

StartChar: uni1B19
Encoding: 6937 6937 30
Width: 1052
GlyphClass: 2
Flags: W
AnchorPoint: "+BBEENQQ3BEsEPARPBD0EPQQ+BDUA--7" 993 0 basechar 0
AnchorPoint: "+BBEENQQ3BEsEPARPBD0EPQQ+BDUA--6" 1416 0 basechar 0
AnchorPoint: "+BBEENQQ3BEsEPARPBD0EPQQ+BDUA--5" 1171 0 basechar 0
AnchorPoint: "+BBEENQQ3BEsEPARPBD0EPQQ+BDUA--4" 1052 0 basechar 0
AnchorPoint: "+BBEENQQ3BEsEPARPBD0EPQQ+BDUA--3" 995 0 basechar 0
AnchorPoint: "+BBEENQQ3BEsEPARPBD0EPQQ+BDUA--2" 548 620 basechar 0
LayerCount: 2
Fore
SplineSet
162 -10 m 0,0,1
 126 -10 126 -10 106 10.5 c 128,-1,2
 86 31 86 31 77 65 c 128,-1,3
 68 99 68 99 65.5 138.5 c 128,-1,4
 63 178 63 178 63 217 c 2,5,-1
 63 301 l 2,6,7
 63 431 63 431 120.5 488.5 c 128,-1,8
 178 546 178 546 273 546 c 0,9,10
 376 546 376 546 429.5 485.5 c 128,-1,11
 483 425 483 425 483 300 c 2,12,-1
 483 237 l 2,13,14
 483 153 483 153 520.5 113 c 128,-1,15
 558 73 558 73 654 73 c 0,16,17
 705 73 705 73 743.5 86.5 c 128,-1,18
 782 100 782 100 803.5 135.5 c 128,-1,19
 825 171 825 171 825 235 c 2,20,-1
 825 537 l 1,21,-1
 848 537 l 2,22,23
 899 537 899 537 927.5 518.5 c 128,-1,24
 956 500 956 500 969 468.5 c 128,-1,25
 982 437 982 437 985.5 396 c 128,-1,26
 989 355 989 355 989 310 c 2,27,-1
 989 0 l 1,28,-1
 950 0 l 1,29,-1
 950 306 l 2,30,31
 950 383 950 383 931 418.5 c 128,-1,32
 912 454 912 454 877 454 c 2,33,-1
 864 454 l 1,34,-1
 864 235 l 2,35,36
 864 105 864 105 807 47.5 c 128,-1,37
 750 -10 750 -10 655 -10 c 0,38,39
 555 -10 555 -10 499.5 48 c 128,-1,40
 444 106 444 106 444 227 c 2,41,-1
 444 299 l 2,42,43
 444 383 444 383 406.5 423 c 128,-1,44
 369 463 369 463 273 463 c 0,45,46
 223 463 223 463 184.5 449.5 c 128,-1,47
 146 436 146 436 124.5 401 c 128,-1,48
 103 366 103 366 103 301 c 2,49,-1
 103 214 l 2,50,51
 103 138 103 138 115 105.5 c 128,-1,52
 127 73 127 73 161 73 c 0,53,54
 192 73 192 73 204.5 93 c 128,-1,55
 217 113 217 113 220 145.5 c 128,-1,56
 223 178 223 178 224 215 c 1,57,58
 229 217 229 217 233.5 218 c 128,-1,59
 238 219 238 219 245 219 c 256,60,61
 252 219 252 219 255 218.5 c 128,-1,62
 258 218 258 218 263 216 c 1,63,64
 263 190 263 190 261 152 c 128,-1,65
 259 114 259 114 249.5 77 c 128,-1,66
 240 40 240 40 219.5 15 c 128,-1,67
 199 -10 199 -10 162 -10 c 0,0,1
EndSplineSet
Position2: "Single Positioning lookup 15 subtable" dx=0 dy=0 dh=98 dv=0
Position2: "Single Positioning lookup 14 subtable" dx=0 dy=0 dh=98 dv=0
Position2: "Single Positioning lookup 13 subtable" dx=0 dy=0 dh=342 dv=0
Position2: "Single Positioning lookup 12 subtable" dx=0 dy=0 dh=220 dv=0
EndChar

StartChar: uni1B1A
Encoding: 6938 6938 31
Width: 879
GlyphClass: 2
Flags: W
AnchorPoint: "+BBEENQQ3BEsEPARPBD0EPQQ+BDUA--7" 819 0 basechar 0
AnchorPoint: "+BBEENQQ3BEsEPARPBD0EPQQ+BDUA--6" 1416 0 basechar 0
AnchorPoint: "+BBEENQQ3BEsEPARPBD0EPQQ+BDUA--5" 1171 0 basechar 0
AnchorPoint: "+BBEENQQ3BEsEPARPBD0EPQQ+BDUA--4" 878 0 basechar 0
AnchorPoint: "+BBEENQQ3BEsEPARPBD0EPQQ+BDUA--3" 820 0 basechar 0
AnchorPoint: "+BBEENQQ3BEsEPARPBD0EPQQ+BDUA--2" 462 620 basechar 0
LayerCount: 2
Fore
SplineSet
710 212 m 1,0,1
 752 196 752 196 783.5 159.5 c 128,-1,2
 815 123 815 123 815 55 c 2,3,-1
 815 0 l 1,4,-1
 776 0 l 1,5,-1
 776 58 l 2,6,7
 776 107 776 107 753.5 134.5 c 128,-1,8
 731 162 731 162 698.5 174.5 c 128,-1,9
 666 187 666 187 635 190 c 128,-1,10
 604 193 604 193 586 193 c 2,11,-1
 542 193 l 1,12,-1
 546 232 l 1,13,-1
 595 232 l 2,14,15
 635 232 635 232 674.5 241.5 c 128,-1,16
 714 251 714 251 740.5 275.5 c 128,-1,17
 767 300 767 300 767 344 c 0,18,19
 767 394 767 394 717 428.5 c 128,-1,20
 667 463 667 463 563 463 c 0,21,22
 504 463 504 463 458.5 449.5 c 128,-1,23
 413 436 413 436 387 401 c 128,-1,24
 361 366 361 366 361 301 c 2,25,-1
 361 0 l 1,26,-1
 338 0 l 2,27,28
 287 0 287 0 259 18.5 c 128,-1,29
 231 37 231 37 218 68.5 c 128,-1,30
 205 100 205 100 202 141 c 128,-1,31
 199 182 199 182 199 227 c 2,32,-1
 199 322 l 2,33,34
 199 399 199 399 187.5 431 c 128,-1,35
 176 463 176 463 141 463 c 0,36,37
 111 463 111 463 98 446.5 c 128,-1,38
 85 430 85 430 82 401.5 c 128,-1,39
 79 373 79 373 78 336 c 1,40,41
 73 335 73 335 69 333.5 c 128,-1,42
 65 332 65 332 57 332 c 0,43,44
 50 332 50 332 47 333 c 128,-1,45
 44 334 44 334 39 335 c 1,46,47
 39 361 39 361 41 397 c 128,-1,48
 43 433 43 433 52.5 467 c 128,-1,49
 62 501 62 501 82.5 523.5 c 128,-1,50
 103 546 103 546 140 546 c 0,51,52
 176 546 176 546 196 525.5 c 128,-1,53
 216 505 216 505 225 471 c 128,-1,54
 234 437 234 437 236 397.5 c 128,-1,55
 238 358 238 358 238 319 c 2,56,-1
 238 204 l 2,57,58
 238 142 238 142 258.5 112.5 c 128,-1,59
 279 83 279 83 310 83 c 2,60,-1
 322 83 l 1,61,-1
 322 301 l 2,62,63
 322 391 322 391 354 444.5 c 128,-1,64
 386 498 386 498 441 522 c 128,-1,65
 496 546 496 546 563 546 c 0,66,67
 636 546 636 546 693 525 c 128,-1,68
 750 504 750 504 782.5 461 c 128,-1,69
 815 418 815 418 815 351 c 0,70,71
 815 329 815 329 805.5 302.5 c 128,-1,72
 796 276 796 276 773 252 c 128,-1,73
 750 228 750 228 710 212 c 1,0,1
EndSplineSet
Position2: "Single Positioning lookup 15 subtable" dx=0 dy=0 dh=130 dv=0
Position2: "Single Positioning lookup 14 subtable" dx=0 dy=0 dh=342 dv=0
Position2: "Single Positioning lookup 13 subtable" dx=0 dy=0 dh=537 dv=0
Position2: "Single Positioning lookup 12 subtable" dx=0 dy=0 dh=469 dv=0
EndChar

StartChar: uni1B1B
Encoding: 6939 6939 32
Width: 1208
GlyphClass: 2
Flags: W
AnchorPoint: "+BBEENQQ3BEsEPARPBD0EPQQ+BDUA--7" 1171 0 basechar 0
AnchorPoint: "+BBEENQQ3BEsEPARPBD0EPQQ+BDUA--6" 1416 0 basechar 0
AnchorPoint: "+BBEENQQ3BEsEPARPBD0EPQQ+BDUA--5" 1171 0 basechar 0
AnchorPoint: "+BBEENQQ3BEsEPARPBD0EPQQ+BDUA--4" 1207 -538 basechar 0
AnchorPoint: "+BBEENQQ3BEsEPARPBD0EPQQ+BDUA--3" 1005 0 basechar 0
AnchorPoint: "+BBEENQQ3BEsEPARPBD0EPQQ+BDUA--2" 521 620 basechar 0
LayerCount: 2
Fore
SplineSet
999 563 m 1,0,1
 1066 556 1066 556 1102.5 533 c 128,-1,2
 1139 510 1139 510 1153.5 469 c 128,-1,3
 1168 428 1168 428 1168 368 c 2,4,-1
 1168 345 l 1,5,-1
 1129 345 l 1,6,-1
 1129 363 l 2,7,8
 1129 415 1129 415 1112.5 438 c 128,-1,9
 1096 461 1096 461 1072 469 c 128,-1,10
 1048 477 1048 477 1026 480 c 2,11,-1
 999 484 l 1,12,-1
 999 -301 l 2,13,14
 999 -431 999 -431 961 -488.5 c 128,-1,15
 923 -546 923 -546 842 -546 c 0,16,17
 816 -546 816 -546 800 -536 c 128,-1,18
 784 -526 784 -526 773 -511 c 128,-1,19
 762 -496 762 -496 752 -480.5 c 128,-1,20
 742 -465 742 -465 727.5 -455 c 128,-1,21
 713 -445 713 -445 690 -445 c 256,22,23
 667 -445 667 -445 653 -455 c 128,-1,24
 639 -465 639 -465 629 -480 c 128,-1,25
 619 -495 619 -495 608 -510.5 c 128,-1,26
 597 -526 597 -526 581.5 -536 c 128,-1,27
 566 -546 566 -546 540 -546 c 0,28,29
 478 -546 478 -546 438.5 -516 c 128,-1,30
 399 -486 399 -486 380.5 -437 c 128,-1,31
 362 -388 362 -388 362 -331 c 0,32,33
 362 -266 362 -266 387 -213.5 c 128,-1,34
 412 -161 412 -161 453.5 -116 c 128,-1,35
 495 -71 495 -71 545 -30 c 128,-1,36
 595 11 595 11 644.5 52 c 128,-1,37
 694 93 694 93 735.5 137.5 c 128,-1,38
 777 182 777 182 802 235 c 128,-1,39
 827 288 827 288 827 352 c 0,40,41
 827 402 827 402 799 432.5 c 128,-1,42
 771 463 771 463 718 463 c 0,43,44
 681 463 681 463 649.5 437 c 128,-1,45
 618 411 618 411 613 358 c 1,46,-1
 579 358 l 1,47,48
 579 385 579 385 565 409 c 128,-1,49
 551 433 551 433 527 448 c 128,-1,50
 503 463 503 463 474 463 c 0,51,52
 440 463 440 463 414.5 449.5 c 128,-1,53
 389 436 389 436 375 401 c 128,-1,54
 361 366 361 366 361 301 c 2,55,-1
 361 0 l 1,56,-1
 338 0 l 2,57,58
 287 0 287 0 259 18.5 c 128,-1,59
 231 37 231 37 218 68.5 c 128,-1,60
 205 100 205 100 202 141 c 128,-1,61
 199 182 199 182 199 227 c 2,62,-1
 199 322 l 2,63,64
 199 399 199 399 187.5 431 c 128,-1,65
 176 463 176 463 141 463 c 0,66,67
 111 463 111 463 98 446.5 c 128,-1,68
 85 430 85 430 82 401.5 c 128,-1,69
 79 373 79 373 78 336 c 1,70,71
 73 335 73 335 69 333.5 c 128,-1,72
 65 332 65 332 57 332 c 0,73,74
 50 332 50 332 47 333 c 128,-1,75
 44 334 44 334 39 335 c 1,76,77
 39 361 39 361 41 397 c 128,-1,78
 43 433 43 433 52.5 467 c 128,-1,79
 62 501 62 501 82.5 523.5 c 128,-1,80
 103 546 103 546 140 546 c 0,81,82
 176 546 176 546 196 525.5 c 128,-1,83
 216 505 216 505 225 471 c 128,-1,84
 234 437 234 437 236 397.5 c 128,-1,85
 238 358 238 358 238 319 c 2,86,-1
 238 204 l 2,87,88
 238 142 238 142 258.5 112.5 c 128,-1,89
 279 83 279 83 310 83 c 2,90,-1
 322 83 l 1,91,-1
 322 301 l 2,92,93
 322 431 322 431 355.5 488.5 c 128,-1,94
 389 546 389 546 474 546 c 0,95,96
 521 546 521 546 550.5 520 c 128,-1,97
 580 494 580 494 596 445 c 1,98,99
 612 494 612 494 641.5 520 c 128,-1,100
 671 546 671 546 718 546 c 0,101,102
 775 546 775 546 809.5 519 c 128,-1,103
 844 492 844 492 859.5 447.5 c 128,-1,104
 875 403 875 403 875 349 c 0,105,106
 875 264 875 264 850 197.5 c 128,-1,107
 825 131 825 131 783.5 79.5 c 128,-1,108
 742 28 742 28 692.5 -14 c 128,-1,109
 643 -56 643 -56 593.5 -93 c 128,-1,110
 544 -130 544 -130 502.5 -166.5 c 128,-1,111
 461 -203 461 -203 436 -243 c 128,-1,112
 411 -283 411 -283 411 -333 c 0,113,114
 411 -396 411 -396 448 -429.5 c 128,-1,115
 485 -463 485 -463 549 -463 c 0,116,117
 577 -463 577 -463 594 -452.5 c 128,-1,118
 611 -442 611 -442 621.5 -426.5 c 128,-1,119
 632 -411 632 -411 641 -395 c 128,-1,120
 650 -379 650 -379 661 -368.5 c 128,-1,121
 672 -358 672 -358 690 -358 c 0,122,123
 715 -358 715 -358 729 -374 c 128,-1,124
 743 -390 743 -390 754.5 -410.5 c 128,-1,125
 766 -431 766 -431 783.5 -447 c 128,-1,126
 801 -463 801 -463 832 -463 c 0,127,128
 875 -463 875 -463 903 -449.5 c 128,-1,129
 931 -436 931 -436 945 -400.5 c 128,-1,130
 959 -365 959 -365 959 -301 c 2,131,-1
 959 493 l 1,132,133
 894 511 894 511 849 557 c 128,-1,134
 804 603 804 603 804 672 c 0,135,136
 804 710 804 710 826 738.5 c 128,-1,137
 848 767 848 767 890 767 c 0,138,139
 934 767 934 767 957.5 742.5 c 128,-1,140
 981 718 981 718 990 676.5 c 128,-1,141
 999 635 999 635 999 583 c 2,142,-1
 999 563 l 1,0,1
848 667 m 0,143,144
 848 629 848 629 879.5 605 c 128,-1,145
 911 581 911 581 959 570 c 1,146,-1
 959 586 l 2,147,148
 959 663 959 663 940 690.5 c 128,-1,149
 921 718 921 718 892 718 c 0,150,151
 873 718 873 718 860.5 708 c 128,-1,152
 848 698 848 698 848 667 c 0,143,144
EndSplineSet
Substitution2: "Single Substitution lookup 7 subtable" uni1B1B.alt
EndChar

StartChar: uni1B1C
Encoding: 6940 6940 33
Width: 1509
GlyphClass: 2
Flags: W
AnchorPoint: "+BBEENQQ3BEsEPARPBD0EPQQ+BDUA--7" 1019 0 basechar 0
AnchorPoint: "+BBEENQQ3BEsEPARPBD0EPQQ+BDUA--6" 1416 0 basechar 0
AnchorPoint: "+BBEENQQ3BEsEPARPBD0EPQQ+BDUA--5" 1171 0 basechar 0
AnchorPoint: "+BBEENQQ3BEsEPARPBD0EPQQ+BDUA--4" 1508 0 basechar 0
AnchorPoint: "+BBEENQQ3BEsEPARPBD0EPQQ+BDUA--3" 1269 0 basechar 0
AnchorPoint: "+BBEENQQ3BEsEPARPBD0EPQQ+BDUA--2" 785 620 basechar 0
LayerCount: 2
Fore
SplineSet
1200 546 m 0,0,1
 1280 546 1280 546 1338 509.5 c 128,-1,2
 1396 473 1396 473 1428 411.5 c 128,-1,3
 1460 350 1460 350 1460 274 c 0,4,5
 1460 192 1460 192 1438.5 137 c 128,-1,6
 1417 82 1417 82 1384 50 c 128,-1,7
 1351 18 1351 18 1314 4 c 128,-1,8
 1277 -10 1277 -10 1246 -10 c 0,9,10
 1224 -10 1224 -10 1200 -4.5 c 128,-1,11
 1176 1 1176 1 1157 11 c 1,12,-1
 1182 50 l 1,13,14
 1193 44 1193 44 1215 41.5 c 128,-1,15
 1237 39 1237 39 1251 39 c 0,16,17
 1290 39 1290 39 1326.5 64 c 128,-1,18
 1363 89 1363 89 1387 140.5 c 128,-1,19
 1411 192 1411 192 1411 271 c 0,20,21
 1411 333 1411 333 1384 375.5 c 128,-1,22
 1357 418 1357 418 1310 440.5 c 128,-1,23
 1263 463 1263 463 1202 463 c 0,24,25
 1133 463 1133 463 1086.5 436.5 c 128,-1,26
 1040 410 1040 410 1016 365.5 c 128,-1,27
 992 321 992 321 992 265 c 2,28,-1
 992 227 l 2,29,30
 992 182 992 182 989 141 c 128,-1,31
 986 100 986 100 973 68.5 c 128,-1,32
 960 37 960 37 932 18.5 c 128,-1,33
 904 0 904 0 853 0 c 2,34,-1
 830 0 l 1,35,-1
 830 301 l 2,36,37
 830 366 830 366 816.5 401 c 128,-1,38
 803 436 803 436 778 449.5 c 128,-1,39
 753 463 753 463 718 463 c 0,40,41
 681 463 681 463 649.5 437 c 128,-1,42
 618 411 618 411 613 358 c 1,43,-1
 579 358 l 1,44,45
 579 385 579 385 565 409 c 128,-1,46
 551 433 551 433 527 448 c 128,-1,47
 503 463 503 463 474 463 c 0,48,49
 440 463 440 463 414.5 449.5 c 128,-1,50
 389 436 389 436 375 401 c 128,-1,51
 361 366 361 366 361 301 c 2,52,-1
 361 0 l 1,53,-1
 338 0 l 2,54,55
 287 0 287 0 259 18.5 c 128,-1,56
 231 37 231 37 218 68.5 c 128,-1,57
 205 100 205 100 202 141 c 128,-1,58
 199 182 199 182 199 227 c 2,59,-1
 199 322 l 2,60,61
 199 399 199 399 187.5 431 c 128,-1,62
 176 463 176 463 141 463 c 0,63,64
 111 463 111 463 98 446.5 c 128,-1,65
 85 430 85 430 82 401.5 c 128,-1,66
 79 373 79 373 78 336 c 1,67,68
 73 335 73 335 69 333.5 c 128,-1,69
 65 332 65 332 57 332 c 0,70,71
 50 332 50 332 47 333 c 128,-1,72
 44 334 44 334 39 335 c 1,73,74
 39 361 39 361 41 397 c 128,-1,75
 43 433 43 433 52.5 467 c 128,-1,76
 62 501 62 501 82.5 523.5 c 128,-1,77
 103 546 103 546 140 546 c 0,78,79
 176 546 176 546 196 525.5 c 128,-1,80
 216 505 216 505 225 471 c 128,-1,81
 234 437 234 437 236 397.5 c 128,-1,82
 238 358 238 358 238 319 c 2,83,-1
 238 204 l 2,84,85
 238 142 238 142 258.5 112.5 c 128,-1,86
 279 83 279 83 310 83 c 2,87,-1
 322 83 l 1,88,-1
 322 301 l 2,89,90
 322 431 322 431 355.5 488.5 c 128,-1,91
 389 546 389 546 474 546 c 0,92,93
 521 546 521 546 550.5 520 c 128,-1,94
 580 494 580 494 596 445 c 1,95,96
 612 494 612 494 641.5 520 c 128,-1,97
 671 546 671 546 718 546 c 0,98,99
 803 546 803 546 836 488.5 c 128,-1,100
 869 431 869 431 869 301 c 2,101,-1
 869 83 l 1,102,-1
 882 83 l 2,103,104
 914 83 914 83 933.5 112.5 c 128,-1,105
 953 142 953 142 953 204 c 2,106,-1
 953 266 l 2,107,108
 953 352 953 352 986.5 415 c 128,-1,109
 1020 478 1020 478 1076.5 512 c 128,-1,110
 1133 546 1133 546 1200 546 c 0,0,1
EndSplineSet
EndChar

StartChar: uni1B1D
Encoding: 6941 6941 34
Width: 1050
GlyphClass: 2
Flags: W
AnchorPoint: "+BBEENQQ3BEsEPARPBD0EPQQ+BDUA--7" 990 0 basechar 0
AnchorPoint: "+BBEENQQ3BEsEPARPBD0EPQQ+BDUA--6" 1416 0 basechar 0
AnchorPoint: "+BBEENQQ3BEsEPARPBD0EPQQ+BDUA--5" 1171 0 basechar 0
AnchorPoint: "+BBEENQQ3BEsEPARPBD0EPQQ+BDUA--4" 1049 -147 basechar 0
AnchorPoint: "+BBEENQQ3BEsEPARPBD0EPQQ+BDUA--3" 990 0 basechar 0
AnchorPoint: "+BBEENQQ3BEsEPARPBD0EPQQ+BDUA--2" 559 620 basechar 0
LayerCount: 2
Fore
SplineSet
549 -293 m 0,0,1
 479 -293 479 -293 436 -257.5 c 128,-1,2
 393 -222 393 -222 373.5 -165 c 128,-1,3
 354 -108 354 -108 354 -46 c 2,4,-1
 354 -9 l 1,5,6
 334 -8 334 -8 308 1 c 128,-1,7
 282 10 282 10 258 33 c 128,-1,8
 234 56 234 56 218.5 96.5 c 128,-1,9
 203 137 203 137 203 200 c 2,10,-1
 203 322 l 2,11,12
 203 399 203 399 189 431 c 128,-1,13
 175 463 175 463 146 463 c 0,14,15
 114 463 114 463 100 446.5 c 128,-1,16
 86 430 86 430 82.5 401.5 c 128,-1,17
 79 373 79 373 78 336 c 1,18,19
 73 335 73 335 69 333.5 c 128,-1,20
 65 332 65 332 57 332 c 0,21,22
 50 332 50 332 47 333 c 128,-1,23
 44 334 44 334 39 335 c 1,24,25
 39 361 39 361 41 397 c 128,-1,26
 43 433 43 433 53 467 c 128,-1,27
 63 501 63 501 86 523.5 c 128,-1,28
 109 546 109 546 151 546 c 0,29,30
 182 546 182 546 200 525 c 128,-1,31
 218 504 218 504 227 470.5 c 128,-1,32
 236 437 236 437 239 397 c 128,-1,33
 242 357 242 357 242 318 c 2,34,-1
 242 214 l 2,35,36
 242 159 242 159 262.5 128.5 c 128,-1,37
 283 98 283 98 309.5 86 c 128,-1,38
 336 74 336 74 354 74 c 1,39,40
 355 117 355 117 368.5 157 c 128,-1,41
 382 197 382 197 406.5 223 c 128,-1,42
 431 249 431 249 465 249 c 0,43,44
 507 249 507 249 527.5 223 c 128,-1,45
 548 197 548 197 548 159 c 0,46,47
 548 103 548 103 523 67.5 c 128,-1,48
 498 32 498 32 462 14 c 128,-1,49
 426 -4 426 -4 393 -8 c 1,50,-1
 393 -41 l 2,51,52
 393 -81 393 -81 408.5 -120 c 128,-1,53
 424 -159 424 -159 458.5 -184.5 c 128,-1,54
 493 -210 493 -210 549 -210 c 0,55,56
 585 -210 585 -210 620 -200 c 128,-1,57
 655 -190 655 -190 680.5 -164.5 c 128,-1,58
 706 -139 706 -139 712 -93 c 1,59,-1
 744 -103 l 1,60,61
 736 -171 736 -171 708.5 -213 c 128,-1,62
 681 -255 681 -255 639.5 -274 c 128,-1,63
 598 -293 598 -293 549 -293 c 0,0,1
947 0 m 1,64,-1
 947 301 l 2,65,66
 947 366 947 366 933.5 401 c 128,-1,67
 920 436 920 436 895 449.5 c 128,-1,68
 870 463 870 463 835 463 c 0,69,70
 798 463 798 463 766.5 437 c 128,-1,71
 735 411 735 411 730 358 c 1,72,-1
 696 358 l 1,73,74
 696 385 696 385 682 409 c 128,-1,75
 668 433 668 433 644 448 c 128,-1,76
 620 463 620 463 591 463 c 0,77,78
 561 463 561 463 533.5 457 c 128,-1,79
 506 451 506 451 487 429 c 128,-1,80
 468 407 468 407 461 360 c 1,81,-1
 427 369 l 1,82,83
 437 459 437 459 477 502.5 c 128,-1,84
 517 546 517 546 591 546 c 0,85,86
 638 546 638 546 667.5 520 c 128,-1,87
 697 494 697 494 713 445 c 1,88,89
 729 494 729 494 758.5 520 c 128,-1,90
 788 546 788 546 835 546 c 0,91,92
 920 546 920 546 953 488.5 c 128,-1,93
 986 431 986 431 986 301 c 2,94,-1
 986 0 l 1,95,-1
 947 0 l 1,64,-1
393 74 m 1,96,97
 440 78 440 78 472 98.5 c 128,-1,98
 504 119 504 119 504 160 c 0,99,100
 504 200 504 200 463 200 c 0,101,102
 435 200 435 200 415 162.5 c 128,-1,103
 395 125 395 125 393 74 c 1,96,97
EndSplineSet
Position2: "Single Positioning lookup 15 subtable" dx=0 dy=0 dh=186 dv=0
Position2: "Single Positioning lookup 14 subtable" dx=0 dy=0 dh=186 dv=0
Position2: "Single Positioning lookup 13 subtable" dx=0 dy=0 dh=464 dv=0
Position2: "Single Positioning lookup 12 subtable" dx=0 dy=0 dh=337 dv=0
EndChar

StartChar: uni1B1E
Encoding: 6942 6942 35
Width: 1011
GlyphClass: 2
Flags: W
AnchorPoint: "+BBEENQQ3BEsEPARPBD0EPQQ+BDUA--7" 951 0 basechar 0
AnchorPoint: "+BBEENQQ3BEsEPARPBD0EPQQ+BDUA--6" 1416 0 basechar 0
AnchorPoint: "+BBEENQQ3BEsEPARPBD0EPQQ+BDUA--5" 1171 0 basechar 0
AnchorPoint: "+BBEENQQ3BEsEPARPBD0EPQQ+BDUA--4" 1010 0 basechar 0
AnchorPoint: "+BBEENQQ3BEsEPARPBD0EPQQ+BDUA--3" 957 0 basechar 0
AnchorPoint: "+BBEENQQ3BEsEPARPBD0EPQQ+BDUA--2" 532 620 basechar 0
LayerCount: 2
Fore
SplineSet
397 -68 m 0,0,1
 327 -68 327 -68 284.5 -32.5 c 128,-1,2
 242 3 242 3 222.5 59.5 c 128,-1,3
 203 116 203 116 203 178 c 2,4,-1
 203 322 l 2,5,6
 203 399 203 399 189 431 c 128,-1,7
 175 463 175 463 146 463 c 0,8,9
 114 463 114 463 100.5 446.5 c 128,-1,10
 87 430 87 430 83.5 401.5 c 128,-1,11
 80 373 80 373 78 336 c 1,12,13
 73 335 73 335 69 333.5 c 128,-1,14
 65 332 65 332 57 332 c 0,15,16
 50 332 50 332 47 333 c 128,-1,17
 44 334 44 334 39 335 c 1,18,19
 39 361 39 361 41 397 c 128,-1,20
 43 433 43 433 53 467 c 128,-1,21
 63 501 63 501 86 523.5 c 128,-1,22
 109 546 109 546 151 546 c 0,23,24
 182 546 182 546 200 525 c 128,-1,25
 218 504 218 504 227 470.5 c 128,-1,26
 236 437 236 437 239 397 c 128,-1,27
 242 357 242 357 242 318 c 2,28,-1
 242 184 l 2,29,30
 242 144 242 144 257.5 105 c 128,-1,31
 273 66 273 66 307.5 40.5 c 128,-1,32
 342 15 342 15 397 15 c 0,33,34
 433 15 433 15 468 25 c 128,-1,35
 503 35 503 35 529 60.5 c 128,-1,36
 555 86 555 86 561 132 c 1,37,-1
 593 122 l 1,38,39
 585 54 585 54 557.5 12 c 128,-1,40
 530 -30 530 -30 488.5 -49 c 128,-1,41
 447 -68 447 -68 397 -68 c 0,0,1
908 0 m 1,42,-1
 908 301 l 2,43,44
 908 366 908 366 894.5 401 c 128,-1,45
 881 436 881 436 856 449.5 c 128,-1,46
 831 463 831 463 796 463 c 0,47,48
 759 463 759 463 727.5 437 c 128,-1,49
 696 411 696 411 691 358 c 1,50,-1
 657 358 l 1,51,52
 657 385 657 385 643 409 c 128,-1,53
 629 433 629 433 605 448 c 128,-1,54
 581 463 581 463 552 463 c 0,55,56
 522 463 522 463 494.5 457 c 128,-1,57
 467 451 467 451 448 429 c 128,-1,58
 429 407 429 407 422 360 c 1,59,-1
 388 369 l 1,60,61
 398 459 398 459 438 502.5 c 128,-1,62
 478 546 478 546 552 546 c 0,63,64
 599 546 599 546 628.5 520 c 128,-1,65
 658 494 658 494 674 445 c 1,66,67
 690 494 690 494 719.5 520 c 128,-1,68
 749 546 749 546 796 546 c 0,69,70
 881 546 881 546 914 488.5 c 128,-1,71
 947 431 947 431 947 301 c 2,72,-1
 947 0 l 1,73,-1
 908 0 l 1,42,-1
EndSplineSet
Position2: "Single Positioning lookup 15 subtable" dx=0 dy=0 dh=186 dv=0
Position2: "Single Positioning lookup 14 subtable" dx=0 dy=0 dh=186 dv=0
Position2: "Single Positioning lookup 13 subtable" dx=0 dy=0 dh=464 dv=0
Position2: "Single Positioning lookup 12 subtable" dx=0 dy=0 dh=337 dv=0
EndChar

StartChar: uni1B1F
Encoding: 6943 6943 36
Width: 934
GlyphClass: 2
Flags: W
AnchorPoint: "+BBEENQQ3BEsEPARPBD0EPQQ+BDUA--7" 875 0 basechar 0
AnchorPoint: "+BBEENQQ3BEsEPARPBD0EPQQ+BDUA--6" 1416 0 basechar 0
AnchorPoint: "+BBEENQQ3BEsEPARPBD0EPQQ+BDUA--5" 1171 0 basechar 0
AnchorPoint: "+BBEENQQ3BEsEPARPBD0EPQQ+BDUA--4" 934 0 basechar 0
AnchorPoint: "+BBEENQQ3BEsEPARPBD0EPQQ+BDUA--3" 874 0 basechar 0
AnchorPoint: "+BBEENQQ3BEsEPARPBD0EPQQ+BDUA--2" 479 620 basechar 0
LayerCount: 2
Fore
SplineSet
322 -10 m 0,0,1
 255 -10 255 -10 227 47.5 c 128,-1,2
 199 105 199 105 199 235 c 2,3,-1
 199 322 l 2,4,5
 199 399 199 399 187.5 431 c 128,-1,6
 176 463 176 463 141 463 c 0,7,8
 111 463 111 463 98 446.5 c 128,-1,9
 85 430 85 430 82 401.5 c 128,-1,10
 79 373 79 373 78 336 c 1,11,12
 73 335 73 335 69 333.5 c 128,-1,13
 65 332 65 332 57 332 c 0,14,15
 50 332 50 332 47 333 c 128,-1,16
 44 334 44 334 39 335 c 1,17,18
 39 361 39 361 41 397 c 128,-1,19
 43 433 43 433 52.5 467 c 128,-1,20
 62 501 62 501 82.5 523.5 c 128,-1,21
 103 546 103 546 140 546 c 0,22,23
 176 546 176 546 196 525.5 c 128,-1,24
 216 505 216 505 225 471 c 128,-1,25
 234 437 234 437 236 397.5 c 128,-1,26
 238 358 238 358 238 319 c 2,27,-1
 238 235 l 2,28,29
 238 171 238 171 249 135.5 c 128,-1,30
 260 100 260 100 281 86.5 c 128,-1,31
 302 73 302 73 332 73 c 0,32,33
 366 73 366 73 384 89 c 128,-1,34
 402 105 402 105 413.5 125.5 c 128,-1,35
 425 146 425 146 438 162 c 128,-1,36
 451 178 451 178 473 178 c 0,37,38
 498 178 498 178 512.5 162 c 128,-1,39
 527 146 527 146 538.5 125.5 c 128,-1,40
 550 105 550 105 567 89 c 128,-1,41
 584 73 584 73 614 73 c 256,42,43
 644 73 644 73 665 86.5 c 128,-1,44
 686 100 686 100 696.5 135.5 c 128,-1,45
 707 171 707 171 707 235 c 2,46,-1
 707 537 l 1,47,-1
 730 537 l 2,48,49
 781 537 781 537 809.5 518.5 c 128,-1,50
 838 500 838 500 851 468.5 c 128,-1,51
 864 437 864 437 867.5 396 c 128,-1,52
 871 355 871 355 871 310 c 2,53,-1
 871 0 l 1,54,-1
 832 0 l 1,55,-1
 832 306 l 2,56,57
 832 383 832 383 813 418.5 c 128,-1,58
 794 454 794 454 759 454 c 2,59,-1
 746 454 l 1,60,-1
 746 235 l 2,61,62
 746 105 746 105 718 47.5 c 128,-1,63
 690 -10 690 -10 624 -10 c 0,64,65
 598 -10 598 -10 582 0 c 128,-1,66
 566 10 566 10 555.5 25.5 c 128,-1,67
 545 41 545 41 534.5 56 c 128,-1,68
 524 71 524 71 510 81 c 128,-1,69
 496 91 496 91 473 91 c 256,70,71
 450 91 450 91 435.5 81 c 128,-1,72
 421 71 421 71 411 56 c 128,-1,73
 401 41 401 41 390 25.5 c 128,-1,74
 379 10 379 10 363.5 0 c 128,-1,75
 348 -10 348 -10 322 -10 c 0,0,1
EndSplineSet
Position2: "Single Positioning lookup 15 subtable" dx=0 dy=0 dh=186 dv=0
Position2: "Single Positioning lookup 14 subtable" dx=0 dy=0 dh=210 dv=0
Position2: "Single Positioning lookup 13 subtable" dx=0 dy=0 dh=464 dv=0
Position2: "Single Positioning lookup 12 subtable" dx=0 dy=0 dh=337 dv=0
EndChar

StartChar: uni1B20
Encoding: 6944 6944 37
Width: 810
GlyphClass: 2
Flags: W
AnchorPoint: "+BBEENQQ3BEsEPARPBD0EPQQ+BDUA--7" 854 0 basechar 0
AnchorPoint: "+BBEENQQ3BEsEPARPBD0EPQQ+BDUA--6" 1416 0 basechar 0
AnchorPoint: "+BBEENQQ3BEsEPARPBD0EPQQ+BDUA--5" 1171 0 basechar 0
AnchorPoint: "+BBEENQQ3BEsEPARPBD0EPQQ+BDUA--4" 809 0 basechar 0
AnchorPoint: "+BBEENQQ3BEsEPARPBD0EPQQ+BDUA--3" 747 0 basechar 0
AnchorPoint: "+BBEENQQ3BEsEPARPBD0EPQQ+BDUA--2" 473 620 basechar 0
LayerCount: 2
Fore
SplineSet
322 -10 m 0,0,1
 255 -10 255 -10 227 47.5 c 128,-1,2
 199 105 199 105 199 235 c 2,3,-1
 199 322 l 2,4,5
 199 399 199 399 187.5 431 c 128,-1,6
 176 463 176 463 141 463 c 0,7,8
 111 463 111 463 98 446.5 c 128,-1,9
 85 430 85 430 82 401.5 c 128,-1,10
 79 373 79 373 78 336 c 1,11,12
 73 335 73 335 69 333.5 c 128,-1,13
 65 332 65 332 57 332 c 0,14,15
 50 332 50 332 47 333 c 128,-1,16
 44 334 44 334 39 335 c 1,17,18
 39 361 39 361 41 397 c 128,-1,19
 43 433 43 433 52.5 467 c 128,-1,20
 62 501 62 501 82.5 523.5 c 128,-1,21
 103 546 103 546 140 546 c 0,22,23
 176 546 176 546 196 525.5 c 128,-1,24
 216 505 216 505 225 471 c 128,-1,25
 234 437 234 437 236 397.5 c 128,-1,26
 238 358 238 358 238 319 c 2,27,-1
 238 235 l 2,28,29
 238 171 238 171 249 135.5 c 128,-1,30
 260 100 260 100 281 86.5 c 128,-1,31
 302 73 302 73 332 73 c 0,32,33
 366 73 366 73 384.5 89 c 128,-1,34
 403 105 403 105 414.5 125.5 c 128,-1,35
 426 146 426 146 438.5 162 c 128,-1,36
 451 178 451 178 473 178 c 0,37,38
 498 178 498 178 512.5 162 c 128,-1,39
 527 146 527 146 538.5 125.5 c 128,-1,40
 550 105 550 105 567 89 c 128,-1,41
 584 73 584 73 614 73 c 256,42,43
 644 73 644 73 665 86.5 c 128,-1,44
 686 100 686 100 696.5 135.5 c 128,-1,45
 707 171 707 171 707 235 c 2,46,-1
 707 537 l 1,47,-1
 746 537 l 1,48,-1
 746 235 l 2,49,50
 746 105 746 105 718 47.5 c 128,-1,51
 690 -10 690 -10 624 -10 c 0,52,53
 598 -10 598 -10 582 0 c 128,-1,54
 566 10 566 10 555 25.5 c 128,-1,55
 544 41 544 41 534 56 c 128,-1,56
 524 71 524 71 510 81 c 128,-1,57
 496 91 496 91 473 91 c 256,58,59
 450 91 450 91 435.5 81 c 128,-1,60
 421 71 421 71 411 56 c 128,-1,61
 401 41 401 41 390 25.5 c 128,-1,62
 379 10 379 10 363.5 0 c 128,-1,63
 348 -10 348 -10 322 -10 c 0,0,1
EndSplineSet
Position2: "Single Positioning lookup 15 subtable" dx=0 dy=0 dh=280 dv=0
Position2: "Single Positioning lookup 14 subtable" dx=0 dy=0 dh=342 dv=0
Position2: "Single Positioning lookup 13 subtable" dx=0 dy=0 dh=537 dv=0
Position2: "Single Positioning lookup 12 subtable" dx=0 dy=0 dh=469 dv=0
EndChar

StartChar: uni1B21
Encoding: 6945 6945 38
Width: 1221
GlyphClass: 2
Flags: W
AnchorPoint: "+BBEENQQ3BEsEPARPBD0EPQQ+BDUA--7" 1162 0 basechar 0
AnchorPoint: "+BBEENQQ3BEsEPARPBD0EPQQ+BDUA--6" 1416 0 basechar 0
AnchorPoint: "+BBEENQQ3BEsEPARPBD0EPQQ+BDUA--5" 1171 0 basechar 0
AnchorPoint: "+BBEENQQ3BEsEPARPBD0EPQQ+BDUA--4" 1221 0 basechar 0
AnchorPoint: "+BBEENQQ3BEsEPARPBD0EPQQ+BDUA--3" 1166 0 basechar 0
AnchorPoint: "+BBEENQQ3BEsEPARPBD0EPQQ+BDUA--2" 661 620 basechar 0
LayerCount: 2
Fore
SplineSet
953 -10 m 0,0,1
 913 -10 913 -10 893.5 16.5 c 128,-1,2
 874 43 874 43 868 87 c 128,-1,3
 862 131 862 131 862 182 c 2,4,-1
 862 323 l 2,5,6
 862 379 862 379 847 409.5 c 128,-1,7
 832 440 832 440 807.5 451.5 c 128,-1,8
 783 463 783 463 755 463 c 0,9,10
 721 463 721 463 698.5 448 c 128,-1,11
 676 433 676 433 660.5 410.5 c 128,-1,12
 645 388 645 388 632 365.5 c 128,-1,13
 619 343 619 343 602.5 328 c 128,-1,14
 586 313 586 313 562 313 c 256,15,16
 538 313 538 313 521.5 328 c 128,-1,17
 505 343 505 343 491.5 365.5 c 128,-1,18
 478 388 478 388 463 410.5 c 128,-1,19
 448 433 448 433 425.5 448 c 128,-1,20
 403 463 403 463 369 463 c 0,21,22
 332 463 332 463 311 447 c 128,-1,23
 290 431 290 431 278 405.5 c 128,-1,24
 266 380 266 380 257.5 352 c 128,-1,25
 249 324 249 324 237.5 298.5 c 128,-1,26
 226 273 226 273 205.5 257 c 128,-1,27
 185 241 185 241 149 241 c 0,28,29
 108 241 108 241 85 263.5 c 128,-1,30
 62 286 62 286 52.5 320 c 128,-1,31
 43 354 43 354 41 389.5 c 128,-1,32
 39 425 39 425 39 452 c 1,33,34
 44 453 44 453 47 454 c 128,-1,35
 50 455 50 455 57 455 c 0,36,37
 65 455 65 455 69 454 c 128,-1,38
 73 453 73 453 78 451 c 1,39,40
 79 414 79 414 82.5 385 c 128,-1,41
 86 356 86 356 100.5 340 c 128,-1,42
 115 324 115 324 150 324 c 0,43,44
 184 324 184 324 201.5 340 c 128,-1,45
 219 356 219 356 227 381.5 c 128,-1,46
 235 407 235 407 241.5 435 c 128,-1,47
 248 463 248 463 260 488.5 c 128,-1,48
 272 514 272 514 296.5 530 c 128,-1,49
 321 546 321 546 365 546 c 0,50,51
 400 546 400 546 422 531 c 128,-1,52
 444 516 444 516 459 493.5 c 128,-1,53
 474 471 474 471 487.5 448.5 c 128,-1,54
 501 426 501 426 518 411 c 128,-1,55
 535 396 535 396 562 396 c 0,56,57
 588 396 588 396 605 411 c 128,-1,58
 622 426 622 426 635.5 448.5 c 128,-1,59
 649 471 649 471 664 493.5 c 128,-1,60
 679 516 679 516 701.5 531 c 128,-1,61
 724 546 724 546 759 546 c 0,62,63
 798 546 798 546 830 525.5 c 128,-1,64
 862 505 862 505 881.5 456.5 c 128,-1,65
 901 408 901 408 901 324 c 2,66,-1
 901 178 l 2,67,68
 901 111 901 111 913 87 c 128,-1,69
 925 63 925 63 955 63 c 0,70,71
 974 63 974 63 984 85 c 128,-1,72
 994 107 994 107 994 138 c 2,73,-1
 994 537 l 1,74,-1
 1017 537 l 2,75,76
 1068 537 1068 537 1096.5 518.5 c 128,-1,77
 1125 500 1125 500 1138 468.5 c 128,-1,78
 1151 437 1151 437 1154.5 396 c 128,-1,79
 1158 355 1158 355 1158 310 c 2,80,-1
 1158 0 l 1,81,-1
 1119 0 l 1,82,-1
 1119 306 l 2,83,84
 1119 383 1119 383 1100 418.5 c 128,-1,85
 1081 454 1081 454 1046 454 c 2,86,-1
 1033 454 l 1,87,-1
 1033 108 l 2,88,89
 1033 83 1033 83 1026 55.5 c 128,-1,90
 1019 28 1019 28 1002 9 c 128,-1,91
 985 -10 985 -10 953 -10 c 0,0,1
EndSplineSet
Position2: "Single Positioning lookup 15 subtable" dx=0 dy=0 dh=140 dv=0
Position2: "Single Positioning lookup 14 subtable" dx=0 dy=0 dh=49 dv=0
Position2: "Single Positioning lookup 13 subtable" dx=0 dy=0 dh=195 dv=0
Position2: "Single Positioning lookup 12 subtable" dx=0 dy=0 dh=98 dv=0
EndChar

StartChar: uni1B22
Encoding: 6946 6946 39
Width: 1204
GlyphClass: 2
Flags: W
AnchorPoint: "+BBEENQQ3BEsEPARPBD0EPQQ+BDUA--7" 1144 0 basechar 0
AnchorPoint: "+BBEENQQ3BEsEPARPBD0EPQQ+BDUA--6" 1416 0 basechar 0
AnchorPoint: "+BBEENQQ3BEsEPARPBD0EPQQ+BDUA--5" 1171 0 basechar 0
AnchorPoint: "+BBEENQQ3BEsEPARPBD0EPQQ+BDUA--4" 1203 0 basechar 0
AnchorPoint: "+BBEENQQ3BEsEPARPBD0EPQQ+BDUA--3" 1145 0 basechar 0
AnchorPoint: "+BBEENQQ3BEsEPARPBD0EPQQ+BDUA--2" 650 620 basechar 0
LayerCount: 2
Fore
SplineSet
418 -10 m 0,0,1
 358 -10 358 -10 309 7.5 c 128,-1,2
 260 25 260 25 231.5 70 c 128,-1,3
 203 115 203 115 203 200 c 2,4,-1
 203 322 l 2,5,6
 203 399 203 399 189 431 c 128,-1,7
 175 463 175 463 146 463 c 0,8,9
 114 463 114 463 100 446.5 c 128,-1,10
 86 430 86 430 82.5 401.5 c 128,-1,11
 79 373 79 373 78 336 c 1,12,13
 73 335 73 335 69 333.5 c 128,-1,14
 65 332 65 332 57 332 c 0,15,16
 50 332 50 332 47 333 c 128,-1,17
 44 334 44 334 39 335 c 1,18,19
 39 361 39 361 41 397 c 128,-1,20
 43 433 43 433 53 467 c 128,-1,21
 63 501 63 501 86 523.5 c 128,-1,22
 109 546 109 546 151 546 c 0,23,24
 182 546 182 546 200 525 c 128,-1,25
 218 504 218 504 227 470.5 c 128,-1,26
 236 437 236 437 239 397 c 128,-1,27
 242 357 242 357 242 318 c 2,28,-1
 242 214 l 2,29,30
 242 147 242 147 283 110 c 128,-1,31
 324 73 324 73 418 73 c 0,32,33
 510 73 510 73 561 101.5 c 128,-1,34
 612 130 612 130 612 179 c 0,35,36
 612 207 612 207 596.5 219 c 128,-1,37
 581 231 581 231 557 235.5 c 128,-1,38
 533 240 533 240 505.5 244 c 128,-1,39
 478 248 478 248 454 259.5 c 128,-1,40
 430 271 430 271 414.5 297.5 c 128,-1,41
 399 324 399 324 399 374 c 0,42,43
 399 421 399 421 427 460 c 128,-1,44
 455 499 455 499 507.5 522.5 c 128,-1,45
 560 546 560 546 633 546 c 0,46,47
 701 546 701 546 758 522 c 128,-1,48
 815 498 815 498 849.5 444.5 c 128,-1,49
 884 391 884 391 884 301 c 2,50,-1
 884 178 l 2,51,52
 884 111 884 111 895.5 87 c 128,-1,53
 907 63 907 63 937 63 c 0,54,55
 956 63 956 63 966.5 85 c 128,-1,56
 977 107 977 107 977 138 c 2,57,-1
 977 537 l 1,58,-1
 1000 537 l 2,59,60
 1051 537 1051 537 1079.5 518.5 c 128,-1,61
 1108 500 1108 500 1121 468.5 c 128,-1,62
 1134 437 1134 437 1137 396 c 128,-1,63
 1140 355 1140 355 1140 310 c 2,64,-1
 1140 0 l 1,65,-1
 1101 0 l 1,66,-1
 1101 306 l 2,67,68
 1101 383 1101 383 1082 418.5 c 128,-1,69
 1063 454 1063 454 1028 454 c 2,70,-1
 1016 454 l 1,71,-1
 1016 108 l 2,72,73
 1016 83 1016 83 1009 55.5 c 128,-1,74
 1002 28 1002 28 984.5 9 c 128,-1,75
 967 -10 967 -10 936 -10 c 0,76,77
 895 -10 895 -10 875.5 16.5 c 128,-1,78
 856 43 856 43 850.5 87 c 128,-1,79
 845 131 845 131 845 182 c 2,80,-1
 845 301 l 2,81,82
 845 366 845 366 816.5 401 c 128,-1,83
 788 436 788 436 740 449.5 c 128,-1,84
 692 463 692 463 633 463 c 0,85,86
 530 463 530 463 489 436 c 128,-1,87
 448 409 448 409 448 371 c 0,88,89
 448 347 448 347 463.5 337 c 128,-1,90
 479 327 479 327 503 322.5 c 128,-1,91
 527 318 527 318 554.5 313 c 128,-1,92
 582 308 582 308 606 295 c 128,-1,93
 630 282 630 282 645.5 255 c 128,-1,94
 661 228 661 228 661 178 c 0,95,96
 661 122 661 122 629.5 79.5 c 128,-1,97
 598 37 598 37 543 13.5 c 128,-1,98
 488 -10 488 -10 418 -10 c 0,0,1
EndSplineSet
Position2: "Single Positioning lookup 15 subtable" dx=0 dy=0 dh=140 dv=0
Position2: "Single Positioning lookup 14 subtable" dx=0 dy=0 dh=49 dv=0
Position2: "Single Positioning lookup 13 subtable" dx=0 dy=0 dh=195 dv=0
Position2: "Single Positioning lookup 12 subtable" dx=0 dy=0 dh=98 dv=0
EndChar

StartChar: uni1B23
Encoding: 6947 6947 40
Width: 793
GlyphClass: 2
Flags: W
AnchorPoint: "+BBEENQQ3BEsEPARPBD0EPQQ+BDUA--7" 734 0 basechar 0
AnchorPoint: "+BBEENQQ3BEsEPARPBD0EPQQ+BDUA--6" 1416 0 basechar 0
AnchorPoint: "+BBEENQQ3BEsEPARPBD0EPQQ+BDUA--5" 1171 0 basechar 0
AnchorPoint: "+BBEENQQ3BEsEPARPBD0EPQQ+BDUA--4" 793 0 basechar 0
AnchorPoint: "+BBEENQQ3BEsEPARPBD0EPQQ+BDUA--3" 737 0 basechar 0
AnchorPoint: "+BBEENQQ3BEsEPARPBD0EPQQ+BDUA--2" 419 620 basechar 0
LayerCount: 2
Fore
SplineSet
565 546 m 0,0,1
 627 546 627 546 663 514.5 c 128,-1,2
 699 483 699 483 714.5 430 c 128,-1,3
 730 377 730 377 730 310 c 2,4,-1
 730 0 l 1,5,-1
 691 0 l 1,6,-1
 691 306 l 2,7,8
 691 366 691 366 675.5 400 c 128,-1,9
 660 434 660 434 635.5 448.5 c 128,-1,10
 611 463 611 463 583 463 c 0,11,12
 576 463 576 463 564 461 c 128,-1,13
 552 459 552 459 544 456 c 1,14,15
 591 418 591 418 605 372 c 128,-1,16
 619 326 619 326 619 273 c 2,17,-1
 619 235 l 2,18,19
 619 165 619 165 602 116.5 c 128,-1,20
 585 68 585 68 553 39 c 1,21,-1
 587 -45 l 1,22,-1
 552 -63 l 1,23,-1
 521 15 l 1,24,25
 475 -10 475 -10 410 -10 c 0,26,27
 309 -10 309 -10 254 48 c 128,-1,28
 199 106 199 106 199 227 c 2,29,-1
 199 322 l 2,30,31
 199 399 199 399 187.5 431 c 128,-1,32
 176 463 176 463 141 463 c 0,33,34
 111 463 111 463 98 446.5 c 128,-1,35
 85 430 85 430 82 401.5 c 128,-1,36
 79 373 79 373 78 336 c 1,37,38
 73 335 73 335 69 333.5 c 128,-1,39
 65 332 65 332 57 332 c 0,40,41
 50 332 50 332 47 333 c 128,-1,42
 44 334 44 334 39 335 c 1,43,44
 39 361 39 361 41 397 c 128,-1,45
 43 433 43 433 52.5 467 c 128,-1,46
 62 501 62 501 82.5 523.5 c 128,-1,47
 103 546 103 546 140 546 c 0,48,49
 176 546 176 546 196 525.5 c 128,-1,50
 216 505 216 505 225 471 c 128,-1,51
 234 437 234 437 236 397.5 c 128,-1,52
 238 358 238 358 238 319 c 2,53,-1
 238 237 l 2,54,55
 238 153 238 153 275.5 113 c 128,-1,56
 313 73 313 73 409 73 c 0,57,58
 432 73 432 73 453 75.5 c 128,-1,59
 474 78 474 78 493 84 c 1,60,-1
 469 143 l 2,61,62
 444 207 444 207 423 236 c 128,-1,63
 402 265 402 265 378 265 c 0,64,65
 356 265 356 265 346 248 c 128,-1,66
 336 231 336 231 335 209 c 1,67,-1
 303 212 l 1,68,69
 303 227 303 227 306 249.5 c 128,-1,70
 309 272 309 272 316.5 294.5 c 128,-1,71
 324 317 324 317 337 332.5 c 128,-1,72
 350 348 350 348 371 348 c 0,73,74
 396 348 396 348 417 326 c 128,-1,75
 438 304 438 304 457 267.5 c 128,-1,76
 476 231 476 231 493 187 c 2,77,-1
 527 102 l 1,78,79
 553 120 553 120 566.5 152 c 128,-1,80
 580 184 580 184 580 235 c 2,81,-1
 580 261 l 2,82,83
 580 290 580 290 573 323 c 128,-1,84
 566 356 566 356 549 386 c 128,-1,85
 532 416 532 416 503 435 c 128,-1,86
 474 454 474 454 430 454 c 1,87,88
 449 495 449 495 482 520.5 c 128,-1,89
 515 546 515 546 565 546 c 0,0,1
EndSplineSet
Position2: "Single Positioning lookup 15 subtable" dx=0 dy=0 dh=140 dv=0
Position2: "Single Positioning lookup 14 subtable" dx=0 dy=0 dh=342 dv=0
Position2: "Single Positioning lookup 13 subtable" dx=0 dy=0 dh=570 dv=0
Position2: "Single Positioning lookup 12 subtable" dx=0 dy=0 dh=469 dv=0
EndChar

StartChar: uni1B24
Encoding: 6948 6948 41
Width: 1072
GlyphClass: 2
Flags: W
AnchorPoint: "+BBEENQQ3BEsEPARPBD0EPQQ+BDUA--7" 1012 0 basechar 0
AnchorPoint: "+BBEENQQ3BEsEPARPBD0EPQQ+BDUA--6" 1416 0 basechar 0
AnchorPoint: "+BBEENQQ3BEsEPARPBD0EPQQ+BDUA--5" 1171 0 basechar 0
AnchorPoint: "+BBEENQQ3BEsEPARPBD0EPQQ+BDUA--4" 1071 0 basechar 0
AnchorPoint: "+BBEENQQ3BEsEPARPBD0EPQQ+BDUA--3" 1015 0 basechar 0
AnchorPoint: "+BBEENQQ3BEsEPARPBD0EPQQ+BDUA--2" 570 620 basechar 0
LayerCount: 2
Fore
SplineSet
778 546 m 0,0,1
 888 546 888 546 948 485.5 c 128,-1,2
 1008 425 1008 425 1008 300 c 2,3,-1
 1008 0 l 1,4,-1
 969 0 l 1,5,-1
 969 299 l 2,6,7
 969 383 969 383 926 423 c 128,-1,8
 883 463 883 463 779 463 c 0,9,10
 724 463 724 463 680.5 449.5 c 128,-1,11
 637 436 637 436 612.5 401 c 128,-1,12
 588 366 588 366 588 301 c 2,13,-1
 588 246 l 1,14,15
 602 249 602 249 616 249 c 0,16,17
 651 249 651 249 684.5 233.5 c 128,-1,18
 718 218 718 218 740 183.5 c 128,-1,19
 762 149 762 149 762 92 c 0,20,21
 762 67 762 67 752 43.5 c 128,-1,22
 742 20 742 20 723.5 5 c 128,-1,23
 705 -10 705 -10 677 -10 c 0,24,25
 618 -10 618 -10 587 32.5 c 128,-1,26
 556 75 556 75 550 140 c 1,27,28
 525 121 525 121 501 95.5 c 128,-1,29
 477 70 477 70 452 46 c 128,-1,30
 427 22 427 22 399 6 c 128,-1,31
 371 -10 371 -10 337 -10 c 0,32,33
 289 -10 289 -10 264 23 c 128,-1,34
 239 56 239 56 229.5 108 c 128,-1,35
 220 160 220 160 220 217 c 2,36,-1
 220 322 l 2,37,38
 220 399 220 399 203 431 c 128,-1,39
 186 463 186 463 151 463 c 0,40,41
 119 463 119 463 104 446.5 c 128,-1,42
 89 430 89 430 84 401.5 c 128,-1,43
 79 373 79 373 78 336 c 1,44,45
 73 335 73 335 69 333.5 c 128,-1,46
 65 332 65 332 57 332 c 0,47,48
 50 332 50 332 47 333 c 128,-1,49
 44 334 44 334 39 335 c 1,50,51
 39 361 39 361 41.5 397 c 128,-1,52
 44 433 44 433 54.5 467 c 128,-1,53
 65 501 65 501 89 523.5 c 128,-1,54
 113 546 113 546 156 546 c 0,55,56
 193 546 193 546 214 525.5 c 128,-1,57
 235 505 235 505 244.5 471 c 128,-1,58
 254 437 254 437 256.5 397.5 c 128,-1,59
 259 358 259 358 259 319 c 2,60,-1
 259 232 l 2,61,62
 259 192 259 192 264.5 155.5 c 128,-1,63
 270 119 270 119 287.5 96 c 128,-1,64
 305 73 305 73 340 73 c 0,65,66
 360 73 360 73 383 91 c 128,-1,67
 406 109 406 109 432.5 135 c 128,-1,68
 459 161 459 161 488 187.5 c 128,-1,69
 517 214 517 214 549 231 c 1,70,-1
 549 301 l 2,71,72
 549 388 549 388 577.5 442 c 128,-1,73
 606 496 606 496 658 521 c 128,-1,74
 710 546 710 546 778 546 c 0,0,1
624 166 m 0,75,76
 605 166 605 166 588 160 c 1,77,78
 590 113 590 113 603 86.5 c 128,-1,79
 616 60 616 60 636 49.5 c 128,-1,80
 656 39 656 39 675 39 c 256,81,82
 694 39 694 39 706 54 c 128,-1,83
 718 69 718 69 718 85 c 0,84,85
 718 116 718 116 704 133.5 c 128,-1,86
 690 151 690 151 668.5 158.5 c 128,-1,87
 647 166 647 166 624 166 c 0,75,76
EndSplineSet
Position2: "Single Positioning lookup 15 subtable" dx=0 dy=0 dh=140 dv=0
Position2: "Single Positioning lookup 14 subtable" dx=0 dy=0 dh=98 dv=0
Position2: "Single Positioning lookup 13 subtable" dx=0 dy=0 dh=342 dv=0
Position2: "Single Positioning lookup 12 subtable" dx=0 dy=0 dh=220 dv=0
EndChar

StartChar: uni1B25
Encoding: 6949 6949 42
Width: 920
GlyphClass: 2
Flags: W
AnchorPoint: "+BBEENQQ3BEsEPARPBD0EPQQ+BDUA--7" 861 0 basechar 0
AnchorPoint: "+BBEENQQ3BEsEPARPBD0EPQQ+BDUA--6" 1416 0 basechar 0
AnchorPoint: "+BBEENQQ3BEsEPARPBD0EPQQ+BDUA--5" 1171 0 basechar 0
AnchorPoint: "+BBEENQQ3BEsEPARPBD0EPQQ+BDUA--4" 920 0 basechar 0
AnchorPoint: "+BBEENQQ3BEsEPARPBD0EPQQ+BDUA--3" 861 0 basechar 0
AnchorPoint: "+BBEENQQ3BEsEPARPBD0EPQQ+BDUA--2" 484 620 basechar 0
LayerCount: 2
Fore
SplineSet
692 546 m 0,0,1
 754 546 754 546 790 514.5 c 128,-1,2
 826 483 826 483 841.5 430 c 128,-1,3
 857 377 857 377 857 310 c 2,4,-1
 857 0 l 1,5,-1
 818 0 l 1,6,-1
 818 306 l 2,7,8
 818 366 818 366 802.5 400 c 128,-1,9
 787 434 787 434 762.5 448.5 c 128,-1,10
 738 463 738 463 710 463 c 0,11,12
 703 463 703 463 691 461 c 128,-1,13
 679 459 679 459 671 456 c 1,14,15
 718 418 718 418 732 372 c 128,-1,16
 746 326 746 326 746 273 c 2,17,-1
 746 235 l 2,18,19
 746 105 746 105 718 47.5 c 128,-1,20
 690 -10 690 -10 624 -10 c 0,21,22
 598 -10 598 -10 582 0 c 128,-1,23
 566 10 566 10 555.5 25.5 c 128,-1,24
 545 41 545 41 534.5 56 c 128,-1,25
 524 71 524 71 510 81 c 128,-1,26
 496 91 496 91 473 91 c 256,27,28
 450 91 450 91 435.5 81 c 128,-1,29
 421 71 421 71 411 56 c 128,-1,30
 401 41 401 41 390 25.5 c 128,-1,31
 379 10 379 10 363.5 0 c 128,-1,32
 348 -10 348 -10 322 -10 c 0,33,34
 255 -10 255 -10 227 47.5 c 128,-1,35
 199 105 199 105 199 235 c 2,36,-1
 199 322 l 2,37,38
 199 399 199 399 187.5 431 c 128,-1,39
 176 463 176 463 141 463 c 0,40,41
 111 463 111 463 98 446.5 c 128,-1,42
 85 430 85 430 82 401.5 c 128,-1,43
 79 373 79 373 78 336 c 1,44,45
 73 335 73 335 69 333.5 c 128,-1,46
 65 332 65 332 57 332 c 0,47,48
 50 332 50 332 47 333 c 128,-1,49
 44 334 44 334 39 335 c 1,50,51
 39 361 39 361 41 397 c 128,-1,52
 43 433 43 433 52.5 467 c 128,-1,53
 62 501 62 501 82.5 523.5 c 128,-1,54
 103 546 103 546 140 546 c 0,55,56
 176 546 176 546 196 525.5 c 128,-1,57
 216 505 216 505 225 471 c 128,-1,58
 234 437 234 437 236 397.5 c 128,-1,59
 238 358 238 358 238 319 c 2,60,-1
 238 235 l 2,61,62
 238 171 238 171 249 135.5 c 128,-1,63
 260 100 260 100 281 86.5 c 128,-1,64
 302 73 302 73 332 73 c 0,65,66
 360 73 360 73 377 83.5 c 128,-1,67
 394 94 394 94 404.5 109.5 c 128,-1,68
 415 125 415 125 423.5 141 c 128,-1,69
 432 157 432 157 443.5 167.5 c 128,-1,70
 455 178 455 178 473 178 c 0,71,72
 498 178 498 178 512 162 c 128,-1,73
 526 146 526 146 537.5 125.5 c 128,-1,74
 549 105 549 105 566 89 c 128,-1,75
 583 73 583 73 614 73 c 0,76,77
 644 73 644 73 665 86.5 c 128,-1,78
 686 100 686 100 696.5 135.5 c 128,-1,79
 707 171 707 171 707 235 c 2,80,-1
 707 261 l 2,81,82
 707 290 707 290 700 323 c 128,-1,83
 693 356 693 356 676 386 c 128,-1,84
 659 416 659 416 630 435 c 128,-1,85
 601 454 601 454 557 454 c 1,86,87
 576 495 576 495 609 520.5 c 128,-1,88
 642 546 642 546 692 546 c 0,0,1
EndSplineSet
Position2: "Single Positioning lookup 15 subtable" dx=0 dy=0 dh=186 dv=0
Position2: "Single Positioning lookup 14 subtable" dx=0 dy=0 dh=210 dv=0
Position2: "Single Positioning lookup 13 subtable" dx=0 dy=0 dh=464 dv=0
Position2: "Single Positioning lookup 12 subtable" dx=0 dy=0 dh=370 dv=0
EndChar

StartChar: uni1B26
Encoding: 6950 6950 43
Width: 854
GlyphClass: 2
Flags: W
AnchorPoint: "+BBEENQQ3BEsEPARPBD0EPQQ+BDUA--7" 795 0 basechar 0
AnchorPoint: "+BBEENQQ3BEsEPARPBD0EPQQ+BDUA--6" 1416 0 basechar 0
AnchorPoint: "+BBEENQQ3BEsEPARPBD0EPQQ+BDUA--5" 1171 0 basechar 0
AnchorPoint: "+BBEENQQ3BEsEPARPBD0EPQQ+BDUA--4" 854 0 basechar 0
AnchorPoint: "+BBEENQQ3BEsEPARPBD0EPQQ+BDUA--3" 796 0 basechar 0
AnchorPoint: "+BBEENQQ3BEsEPARPBD0EPQQ+BDUA--2" 452 620 basechar 0
LayerCount: 2
Fore
SplineSet
153 -10 m 0,0,1
 125 -10 125 -10 106.5 5 c 128,-1,2
 88 20 88 20 78 43.5 c 128,-1,3
 68 67 68 67 68 92 c 0,4,5
 68 170 68 170 113.5 218.5 c 128,-1,6
 159 267 159 267 223 286 c 1,7,-1
 223 322 l 2,8,9
 223 399 223 399 204.5 431 c 128,-1,10
 186 463 186 463 151 463 c 0,11,12
 119 463 119 463 104 446.5 c 128,-1,13
 89 430 89 430 84 401.5 c 128,-1,14
 79 373 79 373 78 336 c 1,15,16
 73 335 73 335 69 333.5 c 128,-1,17
 65 332 65 332 57 332 c 0,18,19
 50 332 50 332 47 333 c 128,-1,20
 44 334 44 334 39 335 c 1,21,22
 39 361 39 361 41.5 397 c 128,-1,23
 44 433 44 433 54.5 467 c 128,-1,24
 65 501 65 501 89 523.5 c 128,-1,25
 113 546 113 546 156 546 c 0,26,27
 193 546 193 546 214.5 525.5 c 128,-1,28
 236 505 236 505 246 471 c 128,-1,29
 256 437 256 437 259 397.5 c 128,-1,30
 262 358 262 358 262 319 c 2,31,-1
 262 294 l 1,32,33
 282 298 282 298 317 298 c 1,34,-1
 317 319 l 2,35,36
 317 396 317 396 348 446.5 c 128,-1,37
 379 497 379 497 433 521.5 c 128,-1,38
 487 546 487 546 556 546 c 0,39,40
 666 546 666 546 728.5 485.5 c 128,-1,41
 791 425 791 425 791 300 c 2,42,-1
 791 0 l 1,43,-1
 752 0 l 1,44,-1
 752 299 l 2,45,46
 752 383 752 383 706.5 423 c 128,-1,47
 661 463 661 463 557 463 c 0,48,49
 523 463 523 463 487.5 458 c 128,-1,50
 452 453 452 453 422 438 c 128,-1,51
 392 423 392 423 374 392.5 c 128,-1,52
 356 362 356 362 356 311 c 2,53,-1
 356 297 l 1,54,55
 411 294 411 294 464 282.5 c 128,-1,56
 517 271 517 271 560 248 c 128,-1,57
 603 225 603 225 629 188.5 c 128,-1,58
 655 152 655 152 655 99 c 0,59,60
 655 59 655 59 634.5 35 c 128,-1,61
 614 11 614 11 583.5 0.5 c 128,-1,62
 553 -10 553 -10 522 -10 c 0,63,64
 488 -10 488 -10 452 4.5 c 128,-1,65
 416 19 416 19 385.5 46.5 c 128,-1,66
 355 74 355 74 336 113 c 128,-1,67
 317 152 317 152 317 202 c 2,68,-1
 317 214 l 1,69,70
 304 214 304 214 290.5 214 c 128,-1,71
 277 214 277 214 262 212 c 1,72,-1
 262 182 l 2,73,74
 262 131 262 131 253 87 c 128,-1,75
 244 43 244 43 220.5 16.5 c 128,-1,76
 197 -10 197 -10 153 -10 c 0,0,1
527 39 m 0,77,78
 555 39 555 39 580.5 49.5 c 128,-1,79
 606 60 606 60 606 85 c 0,80,81
 606 115 606 115 584 138 c 128,-1,82
 562 161 562 161 526 176.5 c 128,-1,83
 490 192 490 192 445.5 201 c 128,-1,84
 401 210 401 210 356 213 c 1,85,-1
 356 199 l 2,86,87
 356 156 356 156 373 125 c 128,-1,88
 390 94 390 94 417 75.5 c 128,-1,89
 444 57 444 57 473.5 48 c 128,-1,90
 503 39 503 39 527 39 c 0,77,78
155 39 m 0,91,92
 185 39 185 39 204 70.5 c 128,-1,93
 223 102 223 102 223 178 c 2,94,-1
 223 206 l 1,95,96
 174 194 174 194 143 167.5 c 128,-1,97
 112 141 112 141 112 98 c 0,98,99
 112 67 112 67 124 53 c 128,-1,100
 136 39 136 39 155 39 c 0,91,92
EndSplineSet
Position2: "Single Positioning lookup 15 subtable" dx=0 dy=0 dh=130 dv=0
Position2: "Single Positioning lookup 14 subtable" dx=0 dy=0 dh=342 dv=0
Position2: "Single Positioning lookup 13 subtable" dx=0 dy=0 dh=537 dv=0
Position2: "Single Positioning lookup 12 subtable" dx=0 dy=0 dh=469 dv=0
EndChar

StartChar: uni1B27
Encoding: 6951 6951 44
Width: 807
GlyphClass: 2
Flags: W
AnchorPoint: "+BBEENQQ3BEsEPARPBD0EPQQ+BDUA--7" 748 0 basechar 0
AnchorPoint: "+BBEENQQ3BEsEPARPBD0EPQQ+BDUA--6" 1416 0 basechar 0
AnchorPoint: "+BBEENQQ3BEsEPARPBD0EPQQ+BDUA--5" 1171 0 basechar 0
AnchorPoint: "+BBEENQQ3BEsEPARPBD0EPQQ+BDUA--4" 807 0 basechar 0
AnchorPoint: "+BBEENQQ3BEsEPARPBD0EPQQ+BDUA--3" 751 0 basechar 0
AnchorPoint: "+BBEENQQ3BEsEPARPBD0EPQQ+BDUA--2" 446 620 basechar 0
LayerCount: 2
Fore
SplineSet
410 -10 m 0,0,1
 309 -10 309 -10 254 48 c 128,-1,2
 199 106 199 106 199 227 c 2,3,-1
 199 322 l 2,4,5
 199 399 199 399 187.5 431 c 128,-1,6
 176 463 176 463 141 463 c 0,7,8
 111 463 111 463 98 446.5 c 128,-1,9
 85 430 85 430 82 401.5 c 128,-1,10
 79 373 79 373 78 336 c 1,11,12
 73 335 73 335 69 333.5 c 128,-1,13
 65 332 65 332 57 332 c 0,14,15
 50 332 50 332 47 333 c 128,-1,16
 44 334 44 334 39 335 c 1,17,18
 39 361 39 361 41 397 c 128,-1,19
 43 433 43 433 52.5 467 c 128,-1,20
 62 501 62 501 82.5 523.5 c 128,-1,21
 103 546 103 546 140 546 c 0,22,23
 176 546 176 546 196 525.5 c 128,-1,24
 216 505 216 505 225 471 c 128,-1,25
 234 437 234 437 236 397.5 c 128,-1,26
 238 358 238 358 238 319 c 2,27,-1
 238 237 l 2,28,29
 238 153 238 153 275.5 113 c 128,-1,30
 313 73 313 73 409 73 c 0,31,32
 460 73 460 73 498.5 86.5 c 128,-1,33
 537 100 537 100 558.5 135.5 c 128,-1,34
 580 171 580 171 580 235 c 2,35,-1
 580 537 l 1,36,-1
 603 537 l 2,37,38
 654 537 654 537 682.5 518.5 c 128,-1,39
 711 500 711 500 724 468.5 c 128,-1,40
 737 437 737 437 740.5 396 c 128,-1,41
 744 355 744 355 744 310 c 2,42,-1
 744 0 l 1,43,-1
 705 0 l 1,44,-1
 705 306 l 2,45,46
 705 383 705 383 686 418.5 c 128,-1,47
 667 454 667 454 632 454 c 2,48,-1
 619 454 l 1,49,-1
 619 235 l 2,50,51
 619 105 619 105 562 47.5 c 128,-1,52
 505 -10 505 -10 410 -10 c 0,0,1
EndSplineSet
Position2: "Single Positioning lookup 15 subtable" dx=0 dy=0 dh=140 dv=0
Position2: "Single Positioning lookup 14 subtable" dx=0 dy=0 dh=342 dv=0
Position2: "Single Positioning lookup 13 subtable" dx=0 dy=0 dh=537 dv=0
Position2: "Single Positioning lookup 12 subtable" dx=0 dy=0 dh=469 dv=0
EndChar

StartChar: uni1B28
Encoding: 6952 6952 45
Width: 765
GlyphClass: 2
Flags: W
AnchorPoint: "+BBEENQQ3BEsEPARPBD0EPQQ+BDUA--7" 771 0 basechar 0
AnchorPoint: "+BBEENQQ3BEsEPARPBD0EPQQ+BDUA--6" 1416 0 basechar 0
AnchorPoint: "+BBEENQQ3BEsEPARPBD0EPQQ+BDUA--5" 1171 0 basechar 0
AnchorPoint: "+BBEENQQ3BEsEPARPBD0EPQQ+BDUA--4" 764 0 basechar 0
AnchorPoint: "+BBEENQQ3BEsEPARPBD0EPQQ+BDUA--3" 619 0 basechar 0
AnchorPoint: "+BBEENQQ3BEsEPARPBD0EPQQ+BDUA--2" 425 732 basechar 0
LayerCount: 2
Fore
SplineSet
731 646 m 1,0,-1
 765 625 l 1,1,2
 760 553 760 553 734.5 513 c 128,-1,3
 709 473 709 473 677 457 c 128,-1,4
 645 441 645 441 619 440 c 1,5,-1
 619 235 l 2,6,7
 619 105 619 105 562 47.5 c 128,-1,8
 505 -10 505 -10 410 -10 c 0,9,10
 309 -10 309 -10 254 48 c 128,-1,11
 199 106 199 106 199 227 c 2,12,-1
 199 322 l 2,13,14
 199 399 199 399 187.5 431 c 128,-1,15
 176 463 176 463 141 463 c 0,16,17
 111 463 111 463 98 446.5 c 128,-1,18
 85 430 85 430 82 401.5 c 128,-1,19
 79 373 79 373 78 336 c 1,20,21
 73 335 73 335 69 333.5 c 128,-1,22
 65 332 65 332 57 332 c 0,23,24
 50 332 50 332 47 333 c 128,-1,25
 44 334 44 334 39 335 c 1,26,27
 39 361 39 361 41 397 c 128,-1,28
 43 433 43 433 52.5 467 c 128,-1,29
 62 501 62 501 82.5 523.5 c 128,-1,30
 103 546 103 546 140 546 c 0,31,32
 176 546 176 546 196 525.5 c 128,-1,33
 216 505 216 505 225 471 c 128,-1,34
 234 437 234 437 236 397.5 c 128,-1,35
 238 358 238 358 238 319 c 2,36,-1
 238 237 l 2,37,38
 238 153 238 153 275.5 113 c 128,-1,39
 313 73 313 73 409 73 c 0,40,41
 460 73 460 73 498.5 86.5 c 128,-1,42
 537 100 537 100 558.5 135.5 c 128,-1,43
 580 171 580 171 580 235 c 2,44,-1
 580 441 l 1,45,46
 548 446 548 446 511.5 464 c 128,-1,47
 475 482 475 482 450 517 c 128,-1,48
 425 552 425 552 425 608 c 0,49,50
 425 646 425 646 446 672 c 128,-1,51
 467 698 467 698 508 698 c 0,52,53
 543 698 543 698 567.5 672 c 128,-1,54
 592 646 592 646 605 606 c 128,-1,55
 618 566 618 566 619 523 c 1,56,57
 637 523 637 523 662 533.5 c 128,-1,58
 687 544 687 544 707.5 571 c 128,-1,59
 728 598 728 598 731 646 c 1,0,-1
469 609 m 256,60,61
 469 569 469 569 501.5 548 c 128,-1,62
 534 527 534 527 580 523 c 1,63,64
 579 574 579 574 559 611.5 c 128,-1,65
 539 649 539 649 510 649 c 0,66,67
 469 649 469 649 469 609 c 256,60,61
EndSplineSet
Position2: "Single Positioning lookup 15 subtable" dx=0 dy=0 dh=200 dv=0
Position2: "Single Positioning lookup 14 subtable" dx=0 dy=0 dh=375 dv=0
Position2: "Single Positioning lookup 13 subtable" dx=0 dy=0 dh=570 dv=0
Position2: "Single Positioning lookup 12 subtable" dx=0 dy=0 dh=520 dv=0
EndChar

StartChar: uni1B29
Encoding: 6953 6953 46
Width: 1180
GlyphClass: 2
Flags: W
AnchorPoint: "+BBEENQQ3BEsEPARPBD0EPQQ+BDUA--7" 1121 0 basechar 0
AnchorPoint: "+BBEENQQ3BEsEPARPBD0EPQQ+BDUA--6" 1416 0 basechar 0
AnchorPoint: "+BBEENQQ3BEsEPARPBD0EPQQ+BDUA--5" 1171 0 basechar 0
AnchorPoint: "+BBEENQQ3BEsEPARPBD0EPQQ+BDUA--4" 1180 0 basechar 0
AnchorPoint: "+BBEENQQ3BEsEPARPBD0EPQQ+BDUA--3" 1119 0 basechar 0
AnchorPoint: "+BBEENQQ3BEsEPARPBD0EPQQ+BDUA--2" 597 620 basechar 0
LayerCount: 2
Fore
SplineSet
338 0 m 2,0,1
 287 0 287 0 259 18.5 c 128,-1,2
 231 37 231 37 218 68.5 c 128,-1,3
 205 100 205 100 202 141 c 128,-1,4
 199 182 199 182 199 227 c 2,5,-1
 199 322 l 2,6,7
 199 399 199 399 187.5 431 c 128,-1,8
 176 463 176 463 141 463 c 0,9,10
 111 463 111 463 98 446.5 c 128,-1,11
 85 430 85 430 82 401.5 c 128,-1,12
 79 373 79 373 78 336 c 1,13,14
 73 335 73 335 69 333.5 c 128,-1,15
 65 332 65 332 57 332 c 0,16,17
 50 332 50 332 47 333 c 128,-1,18
 44 334 44 334 39 335 c 1,19,20
 39 361 39 361 41 397 c 128,-1,21
 43 433 43 433 52.5 467 c 128,-1,22
 62 501 62 501 82.5 523.5 c 128,-1,23
 103 546 103 546 140 546 c 0,24,25
 176 546 176 546 196 525.5 c 128,-1,26
 216 505 216 505 225 471 c 128,-1,27
 234 437 234 437 236 397.5 c 128,-1,28
 238 358 238 358 238 319 c 2,29,-1
 238 204 l 2,30,31
 238 142 238 142 258.5 112.5 c 128,-1,32
 279 83 279 83 310 83 c 2,33,-1
 322 83 l 1,34,-1
 322 301 l 2,35,36
 322 431 322 431 355.5 488.5 c 128,-1,37
 389 546 389 546 474 546 c 0,38,39
 521 546 521 546 550.5 520 c 128,-1,40
 580 494 580 494 596 445 c 1,41,42
 612 494 612 494 641.5 520 c 128,-1,43
 671 546 671 546 718 546 c 0,44,45
 803 546 803 546 836 488.5 c 128,-1,46
 869 431 869 431 869 301 c 2,47,-1
 869 83 l 1,48,-1
 882 83 l 2,49,50
 914 83 914 83 933.5 112.5 c 128,-1,51
 953 142 953 142 953 204 c 2,52,-1
 953 537 l 1,53,-1
 976 537 l 2,54,55
 1027 537 1027 537 1055.5 518.5 c 128,-1,56
 1084 500 1084 500 1097 468.5 c 128,-1,57
 1110 437 1110 437 1113.5 396 c 128,-1,58
 1117 355 1117 355 1117 310 c 2,59,-1
 1117 0 l 1,60,-1
 1078 0 l 1,61,-1
 1078 306 l 2,62,63
 1078 383 1078 383 1059 418.5 c 128,-1,64
 1040 454 1040 454 1005 454 c 2,65,-1
 992 454 l 1,66,-1
 992 227 l 2,67,68
 992 182 992 182 989 141 c 128,-1,69
 986 100 986 100 973 68.5 c 128,-1,70
 960 37 960 37 932 18.5 c 128,-1,71
 904 0 904 0 853 0 c 2,72,-1
 830 0 l 1,73,-1
 830 301 l 2,74,75
 830 366 830 366 816.5 401 c 128,-1,76
 803 436 803 436 778 449.5 c 128,-1,77
 753 463 753 463 718 463 c 0,78,79
 681 463 681 463 649.5 437 c 128,-1,80
 618 411 618 411 613 358 c 1,81,-1
 579 358 l 1,82,83
 579 385 579 385 565 409 c 128,-1,84
 551 433 551 433 527 448 c 128,-1,85
 503 463 503 463 474 463 c 0,86,87
 440 463 440 463 414.5 449.5 c 128,-1,88
 389 436 389 436 375 401 c 128,-1,89
 361 366 361 366 361 301 c 2,90,-1
 361 0 l 1,91,-1
 338 0 l 2,0,1
EndSplineSet
Position2: "Single Positioning lookup 15 subtable" dx=0 dy=0 dh=140 dv=0
Position2: "Single Positioning lookup 14 subtable" dx=0 dy=0 dh=49 dv=0
Position2: "Single Positioning lookup 13 subtable" dx=0 dy=0 dh=195 dv=0
Position2: "Single Positioning lookup 12 subtable" dx=0 dy=0 dh=98 dv=0
EndChar

StartChar: uni1B2A
Encoding: 6954 6954 47
Width: 925
GlyphClass: 2
Flags: W
AnchorPoint: "+BBEENQQ3BEsEPARPBD0EPQQ+BDUA--7" 866 0 basechar 0
AnchorPoint: "+BBEENQQ3BEsEPARPBD0EPQQ+BDUA--6" 1416 0 basechar 0
AnchorPoint: "+BBEENQQ3BEsEPARPBD0EPQQ+BDUA--5" 1171 0 basechar 0
AnchorPoint: "+BBEENQQ3BEsEPARPBD0EPQQ+BDUA--4" 925 0 basechar 0
AnchorPoint: "+BBEENQQ3BEsEPARPBD0EPQQ+BDUA--3" 866 0 basechar 0
AnchorPoint: "+BBEENQQ3BEsEPARPBD0EPQQ+BDUA--2" 468 620 basechar 0
LayerCount: 2
Fore
SplineSet
178 -10 m 0,0,1
 127 -10 127 -10 93 25 c 128,-1,2
 59 60 59 60 59 110 c 0,3,4
 59 134 59 134 69 156.5 c 128,-1,5
 79 179 79 179 95 198 c 1,6,-1
 125 176 l 1,7,8
 118 166 118 166 110.5 152.5 c 128,-1,9
 103 139 103 139 103 125 c 0,10,11
 103 102 103 102 118.5 87.5 c 128,-1,12
 134 73 134 73 162 73 c 0,13,14
 198 73 198 73 228 91 c 128,-1,15
 258 109 258 109 285.5 135.5 c 128,-1,16
 313 162 313 162 341.5 188.5 c 128,-1,17
 370 215 370 215 403 231 c 1,18,-1
 403 301 l 2,19,20
 403 388 403 388 431.5 442 c 128,-1,21
 460 496 460 496 512 521 c 128,-1,22
 564 546 564 546 632 546 c 0,23,24
 742 546 742 546 802 485.5 c 128,-1,25
 862 425 862 425 862 300 c 2,26,-1
 862 0 l 1,27,-1
 823 0 l 1,28,-1
 823 299 l 2,29,30
 823 383 823 383 779.5 423 c 128,-1,31
 736 463 736 463 632 463 c 0,32,33
 577 463 577 463 534 449.5 c 128,-1,34
 491 436 491 436 466.5 401 c 128,-1,35
 442 366 442 366 442 301 c 2,36,-1
 442 246 l 1,37,38
 456 249 456 249 470 249 c 0,39,40
 505 249 505 249 538.5 233.5 c 128,-1,41
 572 218 572 218 594 183.5 c 128,-1,42
 616 149 616 149 616 92 c 0,43,44
 616 67 616 67 606 43.5 c 128,-1,45
 596 20 596 20 577 5 c 128,-1,46
 558 -10 558 -10 530 -10 c 0,47,48
 472 -10 472 -10 441 32.5 c 128,-1,49
 410 75 410 75 404 140 c 1,50,51
 378 122 378 122 351 96.5 c 128,-1,52
 324 71 324 71 295.5 46.5 c 128,-1,53
 267 22 267 22 237.5 6 c 128,-1,54
 208 -10 208 -10 178 -10 c 0,0,1
207 273 m 1,55,-1
 203 322 l 2,56,57
 196 398 196 398 185.5 430.5 c 128,-1,58
 175 463 175 463 146 463 c 0,59,60
 114 463 114 463 100 446.5 c 128,-1,61
 86 430 86 430 82.5 401.5 c 128,-1,62
 79 373 79 373 78 336 c 1,63,64
 73 335 73 335 69 333.5 c 128,-1,65
 65 332 65 332 57 332 c 0,66,67
 50 332 50 332 47 333 c 128,-1,68
 44 334 44 334 39 335 c 1,69,70
 39 361 39 361 41 397 c 128,-1,71
 43 433 43 433 53 467 c 128,-1,72
 63 501 63 501 86 523.5 c 128,-1,73
 109 546 109 546 151 546 c 0,74,75
 182 546 182 546 199 525 c 128,-1,76
 216 504 216 504 223.5 470.5 c 128,-1,77
 231 437 231 437 234.5 397 c 128,-1,78
 238 357 238 357 242 318 c 2,79,-1
 246 276 l 1,80,-1
 207 273 l 1,55,-1
528 39 m 0,81,82
 548 39 548 39 560 54 c 128,-1,83
 572 69 572 69 572 85 c 0,84,85
 572 116 572 116 557.5 133.5 c 128,-1,86
 543 151 543 151 521.5 158.5 c 128,-1,87
 500 166 500 166 477 166 c 0,88,89
 467 166 467 166 458.5 164 c 128,-1,90
 450 162 450 162 442 159 c 1,91,92
 443 112 443 112 456.5 85.5 c 128,-1,93
 470 59 470 59 489.5 49 c 128,-1,94
 509 39 509 39 528 39 c 0,81,82
EndSplineSet
Position2: "Single Positioning lookup 15 subtable" dx=0 dy=0 dh=186 dv=0
Position2: "Single Positioning lookup 14 subtable" dx=0 dy=0 dh=210 dv=0
Position2: "Single Positioning lookup 13 subtable" dx=0 dy=0 dh=464 dv=0
Position2: "Single Positioning lookup 12 subtable" dx=0 dy=0 dh=370 dv=0
EndChar

StartChar: uni1B2B
Encoding: 6955 6955 48
Width: 854
GlyphClass: 2
Flags: W
AnchorPoint: "+BBEENQQ3BEsEPARPBD0EPQQ+BDUA--7" 795 0 basechar 0
AnchorPoint: "+BBEENQQ3BEsEPARPBD0EPQQ+BDUA--6" 1416 0 basechar 0
AnchorPoint: "+BBEENQQ3BEsEPARPBD0EPQQ+BDUA--5" 1171 0 basechar 0
AnchorPoint: "+BBEENQQ3BEsEPARPBD0EPQQ+BDUA--4" 854 0 basechar 0
AnchorPoint: "+BBEENQQ3BEsEPARPBD0EPQQ+BDUA--3" 796 0 basechar 0
AnchorPoint: "+BBEENQQ3BEsEPARPBD0EPQQ+BDUA--2" 473 620 basechar 0
LayerCount: 2
Fore
SplineSet
408 -10 m 0,0,1
 322 -10 322 -10 269 14 c 128,-1,2
 216 38 216 38 192 76.5 c 128,-1,3
 168 115 168 115 168 159 c 0,4,5
 168 194 168 194 186.5 226.5 c 128,-1,6
 205 259 205 259 253 277 c 1,7,8
 205 296 205 296 186.5 326 c 128,-1,9
 168 356 168 356 168 391 c 0,10,11
 168 439 168 439 203 479 c 1,12,13
 160 462 160 462 129 430.5 c 128,-1,14
 98 399 98 399 98 347 c 0,15,16
 98 321 98 321 101.5 296.5 c 128,-1,17
 105 272 105 272 112 249 c 1,18,-1
 67 230 l 1,19,20
 49 286 49 286 49 343 c 0,21,22
 49 395 49 395 71.5 431 c 128,-1,23
 94 467 94 467 131 489.5 c 128,-1,24
 168 512 168 512 213.5 524.5 c 128,-1,25
 259 537 259 537 305.5 541.5 c 128,-1,26
 352 546 352 546 392 546 c 0,27,28
 424 546 424 546 455 542.5 c 128,-1,29
 486 539 486 539 514 531 c 1,30,-1
 506 456 l 1,31,32
 481 461 481 461 451.5 462 c 128,-1,33
 422 463 422 463 392 463 c 0,34,35
 346 463 346 463 306 455.5 c 128,-1,36
 266 448 266 448 241.5 430.5 c 128,-1,37
 217 413 217 413 217 384 c 0,38,39
 217 354 217 354 241 334 c 128,-1,40
 265 314 265 314 302 304.5 c 128,-1,41
 339 295 339 295 378 295 c 2,42,-1
 434 295 l 1,43,-1
 434 257 l 1,44,-1
 378 257 l 2,45,46
 339 257 339 257 302 247 c 128,-1,47
 265 237 265 237 241 217 c 128,-1,48
 217 197 217 197 217 166 c 0,49,50
 217 134 217 134 242 113.5 c 128,-1,51
 267 93 267 93 310 83 c 128,-1,52
 353 73 353 73 406 73 c 0,53,54
 451 73 451 73 490.5 78 c 128,-1,55
 530 83 530 83 561 99 c 128,-1,56
 592 115 592 115 609.5 147.5 c 128,-1,57
 627 180 627 180 627 235 c 2,58,-1
 627 537 l 1,59,-1
 650 537 l 2,60,61
 701 537 701 537 729.5 518.5 c 128,-1,62
 758 500 758 500 771 468.5 c 128,-1,63
 784 437 784 437 787.5 396 c 128,-1,64
 791 355 791 355 791 310 c 2,65,-1
 791 0 l 1,66,-1
 751 0 l 1,67,-1
 751 306 l 2,68,69
 751 383 751 383 732.5 418.5 c 128,-1,70
 714 454 714 454 679 454 c 2,71,-1
 666 454 l 1,72,-1
 666 235 l 2,73,74
 666 142 666 142 632.5 88.5 c 128,-1,75
 599 35 599 35 540.5 12.5 c 128,-1,76
 482 -10 482 -10 408 -10 c 0,0,1
EndSplineSet
Position2: "Single Positioning lookup 15 subtable" dx=0 dy=0 dh=186 dv=0
Position2: "Single Positioning lookup 14 subtable" dx=0 dy=0 dh=342 dv=0
Position2: "Single Positioning lookup 13 subtable" dx=0 dy=0 dh=537 dv=0
Position2: "Single Positioning lookup 12 subtable" dx=0 dy=0 dh=469 dv=0
EndChar

StartChar: uni1B2C
Encoding: 6956 6956 49
Width: 959
GlyphClass: 2
Flags: W
AnchorPoint: "+BBEENQQ3BEsEPARPBD0EPQQ+BDUA--7" 900 0 basechar 0
AnchorPoint: "+BBEENQQ3BEsEPARPBD0EPQQ+BDUA--6" 1416 0 basechar 0
AnchorPoint: "+BBEENQQ3BEsEPARPBD0EPQQ+BDUA--5" 1171 0 basechar 0
AnchorPoint: "+BBEENQQ3BEsEPARPBD0EPQQ+BDUA--4" 958 0 basechar 0
AnchorPoint: "+BBEENQQ3BEsEPARPBD0EPQQ+BDUA--3" 898 0 basechar 0
AnchorPoint: "+BBEENQQ3BEsEPARPBD0EPQQ+BDUA--2" 521 620 basechar 0
LayerCount: 2
Fore
SplineSet
333 -10 m 0,0,1
 299 -10 299 -10 269.5 9.5 c 128,-1,2
 240 29 240 29 221.5 75 c 128,-1,3
 203 121 203 121 203 200 c 2,4,-1
 203 322 l 2,5,6
 203 399 203 399 189 431 c 128,-1,7
 175 463 175 463 146 463 c 0,8,9
 114 463 114 463 100 446.5 c 128,-1,10
 86 430 86 430 82.5 401.5 c 128,-1,11
 79 373 79 373 78 336 c 1,12,13
 73 335 73 335 69 333.5 c 128,-1,14
 65 332 65 332 57 332 c 0,15,16
 50 332 50 332 47 333 c 128,-1,17
 44 334 44 334 39 335 c 1,18,19
 39 361 39 361 41 397 c 128,-1,20
 43 433 43 433 53 467 c 128,-1,21
 63 501 63 501 86 523.5 c 128,-1,22
 109 546 109 546 151 546 c 0,23,24
 182 546 182 546 200 525 c 128,-1,25
 218 504 218 504 227 470.5 c 128,-1,26
 236 437 236 437 239 397 c 128,-1,27
 242 357 242 357 242 318 c 2,28,-1
 242 214 l 2,29,30
 242 147 242 147 263.5 110 c 128,-1,31
 285 73 285 73 335 73 c 0,32,33
 371 73 371 73 394.5 104 c 128,-1,34
 418 135 418 135 431 184.5 c 128,-1,35
 444 234 444 234 450 291.5 c 128,-1,36
 456 349 456 349 457.5 402.5 c 128,-1,37
 459 456 459 456 459 493 c 1,38,-1
 500 493 l 1,39,40
 500 451 500 451 502 396.5 c 128,-1,41
 504 342 504 342 510 285.5 c 128,-1,42
 516 229 516 229 529.5 180.5 c 128,-1,43
 543 132 543 132 566 102.5 c 128,-1,44
 589 73 589 73 624 73 c 0,45,46
 674 73 674 73 695.5 110 c 128,-1,47
 717 147 717 147 717 214 c 2,48,-1
 717 537 l 1,49,-1
 750 537 l 2,50,51
 801 537 801 537 830 518.5 c 128,-1,52
 859 500 859 500 873.5 468.5 c 128,-1,53
 888 437 888 437 892 396 c 128,-1,54
 896 355 896 355 896 310 c 2,55,-1
 896 0 l 1,56,-1
 856 0 l 1,57,-1
 856 306 l 2,58,59
 856 383 856 383 835 418.5 c 128,-1,60
 814 454 814 454 779 454 c 2,61,-1
 756 454 l 1,62,-1
 756 200 l 2,63,64
 756 121 756 121 737.5 75 c 128,-1,65
 719 29 719 29 689.5 9.5 c 128,-1,66
 660 -10 660 -10 626 -10 c 0,67,68
 565 -10 565 -10 530.5 45 c 128,-1,69
 496 100 496 100 479 189 c 1,70,71
 463 100 463 100 428.5 45 c 128,-1,72
 394 -10 394 -10 333 -10 c 0,0,1
EndSplineSet
Position2: "Single Positioning lookup 15 subtable" dx=0 dy=0 dh=186 dv=0
Position2: "Single Positioning lookup 14 subtable" dx=0 dy=0 dh=186 dv=0
Position2: "Single Positioning lookup 13 subtable" dx=0 dy=0 dh=464 dv=0
Position2: "Single Positioning lookup 12 subtable" dx=0 dy=0 dh=337 dv=0
EndChar

StartChar: uni1B2D
Encoding: 6957 6957 50
Width: 845
GlyphClass: 2
Flags: W
AnchorPoint: "+BBEENQQ3BEsEPARPBD0EPQQ+BDUA--7" 785 0 basechar 0
AnchorPoint: "+BBEENQQ3BEsEPARPBD0EPQQ+BDUA--6" 1416 0 basechar 0
AnchorPoint: "+BBEENQQ3BEsEPARPBD0EPQQ+BDUA--5" 1171 0 basechar 0
AnchorPoint: "+BBEENQQ3BEsEPARPBD0EPQQ+BDUA--4" 844 0 basechar 0
AnchorPoint: "+BBEENQQ3BEsEPARPBD0EPQQ+BDUA--3" 786 0 basechar 0
AnchorPoint: "+BBEENQQ3BEsEPARPBD0EPQQ+BDUA--2" 457 620 basechar 0
LayerCount: 2
Fore
SplineSet
199 0 m 1,0,-1
 199 322 l 2,1,2
 199 399 199 399 187.5 431 c 128,-1,3
 176 463 176 463 141 463 c 0,4,5
 111 463 111 463 98 446.5 c 128,-1,6
 85 430 85 430 82 401.5 c 128,-1,7
 79 373 79 373 78 336 c 1,8,9
 73 335 73 335 69 333.5 c 128,-1,10
 65 332 65 332 57 332 c 0,11,12
 50 332 50 332 47 333 c 128,-1,13
 44 334 44 334 39 335 c 1,14,15
 39 361 39 361 41 397 c 128,-1,16
 43 433 43 433 52.5 467 c 128,-1,17
 62 501 62 501 82.5 523.5 c 128,-1,18
 103 546 103 546 140 546 c 0,19,20
 176 546 176 546 196 525.5 c 128,-1,21
 216 505 216 505 225 471 c 128,-1,22
 234 437 234 437 236 397.5 c 128,-1,23
 238 358 238 358 238 319 c 2,24,-1
 238 83 l 1,25,-1
 251 83 l 2,26,27
 283 83 283 83 302.5 112.5 c 128,-1,28
 322 142 322 142 322 204 c 2,29,-1
 322 301 l 2,30,31
 322 388 322 388 350.5 442 c 128,-1,32
 379 496 379 496 431 521 c 128,-1,33
 483 546 483 546 551 546 c 0,34,35
 661 546 661 546 721 485.5 c 128,-1,36
 781 425 781 425 781 300 c 2,37,-1
 781 0 l 1,38,-1
 742 0 l 1,39,-1
 742 299 l 2,40,41
 742 383 742 383 698.5 423 c 128,-1,42
 655 463 655 463 552 463 c 0,43,44
 497 463 497 463 453.5 449.5 c 128,-1,45
 410 436 410 436 385.5 401 c 128,-1,46
 361 366 361 366 361 301 c 2,47,-1
 361 227 l 2,48,49
 361 182 361 182 358 141 c 128,-1,50
 355 100 355 100 342 68.5 c 128,-1,51
 329 37 329 37 301 18.5 c 128,-1,52
 273 0 273 0 222 0 c 2,53,-1
 199 0 l 1,0,-1
EndSplineSet
Position2: "Single Positioning lookup 15 subtable" dx=0 dy=0 dh=186 dv=0
Position2: "Single Positioning lookup 14 subtable" dx=0 dy=0 dh=342 dv=0
Position2: "Single Positioning lookup 13 subtable" dx=0 dy=0 dh=537 dv=0
Position2: "Single Positioning lookup 12 subtable" dx=0 dy=0 dh=469 dv=0
EndChar

StartChar: uni1B2E
Encoding: 6958 6958 51
Width: 1223
GlyphClass: 2
Flags: W
AnchorPoint: "+BBEENQQ3BEsEPARPBD0EPQQ+BDUA--7" 1164 0 basechar 0
AnchorPoint: "+BBEENQQ3BEsEPARPBD0EPQQ+BDUA--6" 1416 0 basechar 0
AnchorPoint: "+BBEENQQ3BEsEPARPBD0EPQQ+BDUA--5" 1171 0 basechar 0
AnchorPoint: "+BBEENQQ3BEsEPARPBD0EPQQ+BDUA--4" 1223 0 basechar 0
AnchorPoint: "+BBEENQQ3BEsEPARPBD0EPQQ+BDUA--3" 1167 0 basechar 0
AnchorPoint: "+BBEENQQ3BEsEPARPBD0EPQQ+BDUA--2" 645 620 basechar 0
LayerCount: 2
Fore
SplineSet
285 -10 m 0,0,1
 245 -10 245 -10 226.5 15 c 128,-1,2
 208 40 208 40 203.5 79 c 128,-1,3
 199 118 199 118 199 158 c 2,4,-1
 199 322 l 2,5,6
 199 399 199 399 187.5 431 c 128,-1,7
 176 463 176 463 141 463 c 0,8,9
 111 463 111 463 98 446.5 c 128,-1,10
 85 430 85 430 82 401.5 c 128,-1,11
 79 373 79 373 78 336 c 1,12,13
 73 335 73 335 69 333.5 c 128,-1,14
 65 332 65 332 57 332 c 0,15,16
 50 332 50 332 47 333 c 128,-1,17
 44 334 44 334 39 335 c 1,18,19
 39 361 39 361 41 397 c 128,-1,20
 43 433 43 433 52.5 467 c 128,-1,21
 62 501 62 501 82.5 523.5 c 128,-1,22
 103 546 103 546 140 546 c 0,23,24
 176 546 176 546 196 525.5 c 128,-1,25
 216 505 216 505 225 471 c 128,-1,26
 234 437 234 437 236 397.5 c 128,-1,27
 238 358 238 358 238 319 c 2,28,-1
 238 178 l 2,29,30
 238 111 238 111 247.5 87 c 128,-1,31
 257 63 257 63 287 63 c 0,32,33
 306 63 306 63 314 90.5 c 128,-1,34
 322 118 322 118 322 167 c 2,35,-1
 322 301 l 2,36,37
 322 431 322 431 359 488.5 c 128,-1,38
 396 546 396 546 488 546 c 0,39,40
 583 546 583 546 618.5 485.5 c 128,-1,41
 654 425 654 425 654 300 c 2,42,-1
 654 237 l 2,43,44
 654 153 654 153 691.5 113 c 128,-1,45
 729 73 729 73 825 73 c 0,46,47
 876 73 876 73 914.5 86.5 c 128,-1,48
 953 100 953 100 974.5 135.5 c 128,-1,49
 996 171 996 171 996 235 c 2,50,-1
 996 537 l 1,51,-1
 1019 537 l 2,52,53
 1070 537 1070 537 1098.5 518.5 c 128,-1,54
 1127 500 1127 500 1140 468.5 c 128,-1,55
 1153 437 1153 437 1156.5 396 c 128,-1,56
 1160 355 1160 355 1160 310 c 2,57,-1
 1160 0 l 1,58,-1
 1121 0 l 1,59,-1
 1121 306 l 2,60,61
 1121 383 1121 383 1102 418.5 c 128,-1,62
 1083 454 1083 454 1048 454 c 2,63,-1
 1035 454 l 1,64,-1
 1035 235 l 2,65,66
 1035 105 1035 105 978 47.5 c 128,-1,67
 921 -10 921 -10 826 -10 c 0,68,69
 725 -10 725 -10 670 48 c 128,-1,70
 615 106 615 106 615 227 c 2,71,-1
 615 299 l 2,72,73
 615 355 615 355 605 391.5 c 128,-1,74
 595 428 595 428 567.5 445.5 c 128,-1,75
 540 463 540 463 488 463 c 0,76,77
 438 463 438 463 410.5 449.5 c 128,-1,78
 383 436 383 436 372 401 c 128,-1,79
 361 366 361 366 361 301 c 2,80,-1
 361 166 l 2,81,82
 361 86 361 86 346.5 38 c 128,-1,83
 332 -10 332 -10 285 -10 c 0,0,1
EndSplineSet
Position2: "Single Positioning lookup 15 subtable" dx=0 dy=0 dh=140 dv=0
Position2: "Single Positioning lookup 14 subtable" dx=0 dy=0 dh=49 dv=0
Position2: "Single Positioning lookup 13 subtable" dx=0 dy=0 dh=195 dv=0
Position2: "Single Positioning lookup 12 subtable" dx=0 dy=0 dh=98 dv=0
EndChar

StartChar: uni1B2F
Encoding: 6959 6959 52
Width: 793
GlyphClass: 2
Flags: W
AnchorPoint: "+BBEENQQ3BEsEPARPBD0EPQQ+BDUA--7" 734 0 basechar 0
AnchorPoint: "+BBEENQQ3BEsEPARPBD0EPQQ+BDUA--6" 1416 0 basechar 0
AnchorPoint: "+BBEENQQ3BEsEPARPBD0EPQQ+BDUA--5" 1171 0 basechar 0
AnchorPoint: "+BBEENQQ3BEsEPARPBD0EPQQ+BDUA--4" 793 0 basechar 0
AnchorPoint: "+BBEENQQ3BEsEPARPBD0EPQQ+BDUA--3" 737 0 basechar 0
AnchorPoint: "+BBEENQQ3BEsEPARPBD0EPQQ+BDUA--2" 436 620 basechar 0
LayerCount: 2
Fore
SplineSet
410 -10 m 0,0,1
 309 -10 309 -10 254 48 c 128,-1,2
 199 106 199 106 199 227 c 2,3,-1
 199 322 l 2,4,5
 199 399 199 399 187.5 431 c 128,-1,6
 176 463 176 463 141 463 c 0,7,8
 111 463 111 463 98 446.5 c 128,-1,9
 85 430 85 430 82 401.5 c 128,-1,10
 79 373 79 373 78 336 c 1,11,12
 73 335 73 335 69 333.5 c 128,-1,13
 65 332 65 332 57 332 c 0,14,15
 50 332 50 332 47 333 c 128,-1,16
 44 334 44 334 39 335 c 1,17,18
 39 361 39 361 41 397 c 128,-1,19
 43 433 43 433 52.5 467 c 128,-1,20
 62 501 62 501 82.5 523.5 c 128,-1,21
 103 546 103 546 140 546 c 0,22,23
 176 546 176 546 196 525.5 c 128,-1,24
 216 505 216 505 225 471 c 128,-1,25
 234 437 234 437 236 397.5 c 128,-1,26
 238 358 238 358 238 319 c 2,27,-1
 238 237 l 2,28,29
 238 153 238 153 275.5 113 c 128,-1,30
 313 73 313 73 409 73 c 0,31,32
 460 73 460 73 498.5 86.5 c 128,-1,33
 537 100 537 100 558.5 135.5 c 128,-1,34
 580 171 580 171 580 235 c 2,35,-1
 580 261 l 2,36,37
 580 290 580 290 573 323 c 128,-1,38
 566 356 566 356 549 386 c 128,-1,39
 532 416 532 416 503 435 c 128,-1,40
 474 454 474 454 430 454 c 1,41,42
 449 495 449 495 482 520.5 c 128,-1,43
 515 546 515 546 565 546 c 0,44,45
 627 546 627 546 663 514.5 c 128,-1,46
 699 483 699 483 714.5 430 c 128,-1,47
 730 377 730 377 730 310 c 2,48,-1
 730 0 l 1,49,-1
 691 0 l 1,50,-1
 691 306 l 2,51,52
 691 366 691 366 675.5 400 c 128,-1,53
 660 434 660 434 635.5 448.5 c 128,-1,54
 611 463 611 463 583 463 c 0,55,56
 576 463 576 463 564 461 c 128,-1,57
 552 459 552 459 544 456 c 1,58,59
 591 418 591 418 605 372 c 128,-1,60
 619 326 619 326 619 273 c 2,61,-1
 619 235 l 2,62,63
 619 105 619 105 562 47.5 c 128,-1,64
 505 -10 505 -10 410 -10 c 0,0,1
EndSplineSet
Position2: "Single Positioning lookup 15 subtable" dx=0 dy=0 dh=186 dv=0
Position2: "Single Positioning lookup 14 subtable" dx=0 dy=0 dh=342 dv=0
Position2: "Single Positioning lookup 13 subtable" dx=0 dy=0 dh=560 dv=0
Position2: "Single Positioning lookup 12 subtable" dx=0 dy=0 dh=490 dv=0
EndChar

StartChar: uni1B30
Encoding: 6960 6960 53
Width: 1092
GlyphClass: 2
Flags: W
AnchorPoint: "+BBEENQQ3BEsEPARPBD0EPQQ+BDUA--7" 1033 0 basechar 0
AnchorPoint: "+BBEENQQ3BEsEPARPBD0EPQQ+BDUA--6" 1416 0 basechar 0
AnchorPoint: "+BBEENQQ3BEsEPARPBD0EPQQ+BDUA--5" 1171 0 basechar 0
AnchorPoint: "+BBEENQQ3BEsEPARPBD0EPQQ+BDUA--4" 1092 0 basechar 0
AnchorPoint: "+BBEENQQ3BEsEPARPBD0EPQQ+BDUA--3" 1035 0 basechar 0
AnchorPoint: "+BBEENQQ3BEsEPARPBD0EPQQ+BDUA--2" 554 620 basechar 0
LayerCount: 2
Fore
SplineSet
888 537 m 2,0,1
 939 537 939 537 967.5 518.5 c 128,-1,2
 996 500 996 500 1009 468.5 c 128,-1,3
 1022 437 1022 437 1025.5 396 c 128,-1,4
 1029 355 1029 355 1029 310 c 2,5,-1
 1029 0 l 1,6,-1
 990 0 l 1,7,-1
 990 306 l 2,8,9
 990 383 990 383 971 418.5 c 128,-1,10
 952 454 952 454 917 454 c 2,11,-1
 904 454 l 1,12,-1
 904 227 l 2,13,14
 904 182 904 182 901 141 c 128,-1,15
 898 100 898 100 885 68.5 c 128,-1,16
 872 37 872 37 844 18.5 c 128,-1,17
 816 0 816 0 765 0 c 2,18,-1
 742 0 l 1,19,-1
 742 299 l 2,20,21
 742 383 742 383 698.5 423 c 128,-1,22
 655 463 655 463 552 463 c 0,23,24
 497 463 497 463 453.5 449.5 c 128,-1,25
 410 436 410 436 385.5 401 c 128,-1,26
 361 366 361 366 361 301 c 2,27,-1
 361 0 l 1,28,-1
 338 0 l 2,29,30
 287 0 287 0 259 18.5 c 128,-1,31
 231 37 231 37 218 68.5 c 128,-1,32
 205 100 205 100 202 141 c 128,-1,33
 199 182 199 182 199 227 c 2,34,-1
 199 322 l 2,35,36
 199 399 199 399 187.5 431 c 128,-1,37
 176 463 176 463 141 463 c 0,38,39
 111 463 111 463 98 446.5 c 128,-1,40
 85 430 85 430 82 401.5 c 128,-1,41
 79 373 79 373 78 336 c 1,42,43
 73 335 73 335 69 333.5 c 128,-1,44
 65 332 65 332 57 332 c 0,45,46
 50 332 50 332 47 333 c 128,-1,47
 44 334 44 334 39 335 c 1,48,49
 39 361 39 361 41 397 c 128,-1,50
 43 433 43 433 52.5 467 c 128,-1,51
 62 501 62 501 82.5 523.5 c 128,-1,52
 103 546 103 546 140 546 c 0,53,54
 176 546 176 546 196 525.5 c 128,-1,55
 216 505 216 505 225 471 c 128,-1,56
 234 437 234 437 236 397.5 c 128,-1,57
 238 358 238 358 238 319 c 2,58,-1
 238 204 l 2,59,60
 238 142 238 142 258.5 112.5 c 128,-1,61
 279 83 279 83 310 83 c 2,62,-1
 322 83 l 1,63,-1
 322 301 l 2,64,65
 322 388 322 388 350.5 442 c 128,-1,66
 379 496 379 496 431 521 c 128,-1,67
 483 546 483 546 551 546 c 0,68,69
 661 546 661 546 721 485.5 c 128,-1,70
 781 425 781 425 781 300 c 2,71,-1
 781 83 l 1,72,-1
 794 83 l 2,73,74
 826 83 826 83 845.5 112.5 c 128,-1,75
 865 142 865 142 865 204 c 2,76,-1
 865 537 l 1,77,-1
 888 537 l 2,0,1
523 332 m 0,78,79
 552 332 552 332 569 306.5 c 128,-1,80
 586 281 586 281 597 238.5 c 128,-1,81
 608 196 608 196 616 145 c 2,82,-1
 642 -15 l 1,83,-1
 603 -25 l 1,84,-1
 583 108 l 2,85,86
 572 184 572 184 556.5 216.5 c 128,-1,87
 541 249 541 249 512 249 c 0,88,89
 479 249 479 249 468 204 c 1,90,-1
 437 214 l 1,91,92
 442 244 442 244 454 271 c 128,-1,93
 466 298 466 298 484 315 c 128,-1,94
 502 332 502 332 523 332 c 0,78,79
EndSplineSet
Position2: "Single Positioning lookup 15 subtable" dx=0 dy=0 dh=140 dv=0
Position2: "Single Positioning lookup 14 subtable" dx=0 dy=0 dh=49 dv=0
Position2: "Single Positioning lookup 13 subtable" dx=0 dy=0 dh=260 dv=0
Position2: "Single Positioning lookup 12 subtable" dx=0 dy=0 dh=195 dv=0
EndChar

StartChar: uni1B31
Encoding: 6961 6961 54
Width: 807
GlyphClass: 2
Flags: W
AnchorPoint: "+BBEENQQ3BEsEPARPBD0EPQQ+BDUA--7" 748 0 basechar 0
AnchorPoint: "+BBEENQQ3BEsEPARPBD0EPQQ+BDUA--6" 1416 0 basechar 0
AnchorPoint: "+BBEENQQ3BEsEPARPBD0EPQQ+BDUA--5" 1171 0 basechar 0
AnchorPoint: "+BBEENQQ3BEsEPARPBD0EPQQ+BDUA--4" 807 0 basechar 0
AnchorPoint: "+BBEENQQ3BEsEPARPBD0EPQQ+BDUA--3" 751 0 basechar 0
AnchorPoint: "+BBEENQQ3BEsEPARPBD0EPQQ+BDUA--2" 446 620 basechar 0
LayerCount: 2
Fore
SplineSet
603 537 m 2,0,1
 654 537 654 537 682.5 518.5 c 128,-1,2
 711 500 711 500 724 468.5 c 128,-1,3
 737 437 737 437 740.5 396 c 128,-1,4
 744 355 744 355 744 310 c 2,5,-1
 744 0 l 1,6,-1
 705 0 l 1,7,-1
 705 306 l 2,8,9
 705 383 705 383 686 418.5 c 128,-1,10
 667 454 667 454 632 454 c 2,11,-1
 619 454 l 1,12,-1
 619 235 l 2,13,14
 619 165 619 165 602 116.5 c 128,-1,15
 585 68 585 68 553 39 c 1,16,-1
 587 -45 l 1,17,-1
 552 -63 l 1,18,-1
 521 15 l 1,19,20
 475 -10 475 -10 410 -10 c 0,21,22
 309 -10 309 -10 254 48 c 128,-1,23
 199 106 199 106 199 227 c 2,24,-1
 199 322 l 2,25,26
 199 399 199 399 187.5 431 c 128,-1,27
 176 463 176 463 141 463 c 0,28,29
 111 463 111 463 98 446.5 c 128,-1,30
 85 430 85 430 82 401.5 c 128,-1,31
 79 373 79 373 78 336 c 1,32,33
 73 335 73 335 69 333.5 c 128,-1,34
 65 332 65 332 57 332 c 0,35,36
 50 332 50 332 47 333 c 128,-1,37
 44 334 44 334 39 335 c 1,38,39
 39 361 39 361 41 397 c 128,-1,40
 43 433 43 433 52.5 467 c 128,-1,41
 62 501 62 501 82.5 523.5 c 128,-1,42
 103 546 103 546 140 546 c 0,43,44
 176 546 176 546 196 525.5 c 128,-1,45
 216 505 216 505 225 471 c 128,-1,46
 234 437 234 437 236 397.5 c 128,-1,47
 238 358 238 358 238 319 c 2,48,-1
 238 237 l 2,49,50
 238 153 238 153 275.5 113 c 128,-1,51
 313 73 313 73 409 73 c 0,52,53
 432 73 432 73 453 75.5 c 128,-1,54
 474 78 474 78 493 84 c 1,55,-1
 469 143 l 2,56,57
 444 207 444 207 423 236 c 128,-1,58
 402 265 402 265 378 265 c 0,59,60
 356 265 356 265 346 248 c 128,-1,61
 336 231 336 231 335 209 c 1,62,-1
 303 212 l 1,63,64
 303 227 303 227 306 249.5 c 128,-1,65
 309 272 309 272 316.5 294.5 c 128,-1,66
 324 317 324 317 337 332.5 c 128,-1,67
 350 348 350 348 371 348 c 0,68,69
 396 348 396 348 417 326 c 128,-1,70
 438 304 438 304 457 267.5 c 128,-1,71
 476 231 476 231 493 187 c 2,72,-1
 527 102 l 1,73,74
 553 120 553 120 566.5 152 c 128,-1,75
 580 184 580 184 580 235 c 2,76,-1
 580 537 l 1,77,-1
 603 537 l 2,0,1
EndSplineSet
Position2: "Single Positioning lookup 15 subtable" dx=0 dy=0 dh=180 dv=0
Position2: "Single Positioning lookup 14 subtable" dx=0 dy=0 dh=342 dv=0
Position2: "Single Positioning lookup 13 subtable" dx=0 dy=0 dh=537 dv=0
Position2: "Single Positioning lookup 12 subtable" dx=0 dy=0 dh=469 dv=0
EndChar

StartChar: uni1B32
Encoding: 6962 6962 55
Width: 808
GlyphClass: 2
Flags: W
AnchorPoint: "+BBEENQQ3BEsEPARPBD0EPQQ+BDUA--7" 749 0 basechar 0
AnchorPoint: "+BBEENQQ3BEsEPARPBD0EPQQ+BDUA--6" 1416 0 basechar 0
AnchorPoint: "+BBEENQQ3BEsEPARPBD0EPQQ+BDUA--5" 1171 0 basechar 0
AnchorPoint: "+BBEENQQ3BEsEPARPBD0EPQQ+BDUA--4" 807 0 basechar 0
AnchorPoint: "+BBEENQQ3BEsEPARPBD0EPQQ+BDUA--3" 751 0 basechar 0
AnchorPoint: "+BBEENQQ3BEsEPARPBD0EPQQ+BDUA--2" 419 620 basechar 0
LayerCount: 2
Fore
SplineSet
604 537 m 2,0,1
 655 537 655 537 683.5 518.5 c 128,-1,2
 712 500 712 500 725 468.5 c 128,-1,3
 738 437 738 437 741.5 396 c 128,-1,4
 745 355 745 355 745 310 c 2,5,-1
 745 0 l 1,6,-1
 706 0 l 1,7,-1
 706 306 l 2,8,9
 706 383 706 383 687 418.5 c 128,-1,10
 668 454 668 454 633 454 c 2,11,-1
 620 454 l 1,12,-1
 620 208 l 2,13,14
 620 151 620 151 610.5 101 c 128,-1,15
 601 51 601 51 575 20.5 c 128,-1,16
 549 -10 549 -10 501 -10 c 0,17,18
 469 -10 469 -10 444.5 6 c 128,-1,19
 420 22 420 22 399 47.5 c 128,-1,20
 378 73 378 73 357.5 100.5 c 128,-1,21
 337 128 337 128 314 152 c 128,-1,22
 291 176 291 176 262 189 c 1,23,-1
 262 182 l 2,24,25
 262 131 262 131 253 87 c 128,-1,26
 244 43 244 43 220.5 16.5 c 128,-1,27
 197 -10 197 -10 153 -10 c 0,28,29
 125 -10 125 -10 106.5 5 c 128,-1,30
 88 20 88 20 78 43.5 c 128,-1,31
 68 67 68 67 68 92 c 0,32,33
 68 158 68 158 93 198 c 128,-1,34
 118 238 118 238 154 257 c 128,-1,35
 190 276 190 276 223 278 c 1,36,-1
 223 322 l 2,37,38
 223 399 223 399 204.5 431 c 128,-1,39
 186 463 186 463 151 463 c 0,40,41
 119 463 119 463 104 446.5 c 128,-1,42
 89 430 89 430 84 401.5 c 128,-1,43
 79 373 79 373 78 336 c 1,44,45
 73 335 73 335 69 333.5 c 128,-1,46
 65 332 65 332 57 332 c 0,47,48
 50 332 50 332 47 333 c 128,-1,49
 44 334 44 334 39 335 c 1,50,51
 39 361 39 361 41.5 397 c 128,-1,52
 44 433 44 433 54.5 467 c 128,-1,53
 65 501 65 501 89 523.5 c 128,-1,54
 113 546 113 546 156 546 c 0,55,56
 193 546 193 546 214.5 525.5 c 128,-1,57
 236 505 236 505 246 471 c 128,-1,58
 256 437 256 437 259 397.5 c 128,-1,59
 262 358 262 358 262 319 c 2,60,-1
 262 275 l 1,61,62
 297 267 297 267 326.5 244 c 128,-1,63
 356 221 356 221 380.5 192 c 128,-1,64
 405 163 405 163 425.5 136 c 128,-1,65
 446 109 446 109 464.5 91 c 128,-1,66
 483 73 483 73 500 73 c 0,67,68
 536 73 536 73 553.5 96 c 128,-1,69
 571 119 571 119 576 155.5 c 128,-1,70
 581 192 581 192 581 232 c 2,71,-1
 581 537 l 1,72,-1
 604 537 l 2,0,1
155 39 m 0,73,74
 185 39 185 39 204 70.5 c 128,-1,75
 223 102 223 102 223 178 c 2,76,-1
 223 195 l 1,77,78
 196 195 196 195 170.5 186.5 c 128,-1,79
 145 178 145 178 128.5 157.5 c 128,-1,80
 112 137 112 137 112 98 c 0,81,82
 112 67 112 67 124 53 c 128,-1,83
 136 39 136 39 155 39 c 0,73,74
EndSplineSet
Position2: "Single Positioning lookup 15 subtable" dx=0 dy=0 dh=180 dv=0
Position2: "Single Positioning lookup 14 subtable" dx=0 dy=0 dh=342 dv=0
Position2: "Single Positioning lookup 13 subtable" dx=0 dy=0 dh=537 dv=0
Position2: "Single Positioning lookup 12 subtable" dx=0 dy=0 dh=469 dv=0
EndChar

StartChar: uni1B33
Encoding: 6963 6963 56
Width: 1223
GlyphClass: 2
Flags: W
AnchorPoint: "+BBEENQQ3BEsEPARPBD0EPQQ+BDUA--7" 1164 0 basechar 0
AnchorPoint: "+BBEENQQ3BEsEPARPBD0EPQQ+BDUA--6" 1416 0 basechar 0
AnchorPoint: "+BBEENQQ3BEsEPARPBD0EPQQ+BDUA--5" 1171 0 basechar 0
AnchorPoint: "+BBEENQQ3BEsEPARPBD0EPQQ+BDUA--4" 1223 0 basechar 0
AnchorPoint: "+BBEENQQ3BEsEPARPBD0EPQQ+BDUA--3" 1167 0 basechar 0
AnchorPoint: "+BBEENQQ3BEsEPARPBD0EPQQ+BDUA--2" 634 620 basechar 0
LayerCount: 2
Fore
SplineSet
409 -10 m 0,0,1
 313 -10 313 -10 256 47.5 c 128,-1,2
 199 105 199 105 199 235 c 2,3,-1
 199 322 l 2,4,5
 199 399 199 399 187.5 431 c 128,-1,6
 176 463 176 463 141 463 c 0,7,8
 111 463 111 463 98 446.5 c 128,-1,9
 85 430 85 430 82 401.5 c 128,-1,10
 79 373 79 373 78 336 c 1,11,12
 73 335 73 335 69 333.5 c 128,-1,13
 65 332 65 332 57 332 c 0,14,15
 50 332 50 332 47 333 c 128,-1,16
 44 334 44 334 39 335 c 1,17,18
 39 361 39 361 41 397 c 128,-1,19
 43 433 43 433 52.5 467 c 128,-1,20
 62 501 62 501 82.5 523.5 c 128,-1,21
 103 546 103 546 140 546 c 0,22,23
 176 546 176 546 196 525.5 c 128,-1,24
 216 505 216 505 225 471 c 128,-1,25
 234 437 234 437 236 397.5 c 128,-1,26
 238 358 238 358 238 319 c 2,27,-1
 238 235 l 2,28,29
 238 171 238 171 260 135.5 c 128,-1,30
 282 100 282 100 320.5 86.5 c 128,-1,31
 359 73 359 73 409 73 c 0,32,33
 505 73 505 73 542.5 113 c 128,-1,34
 580 153 580 153 580 237 c 2,35,-1
 580 300 l 2,36,37
 580 425 580 425 615.5 485.5 c 128,-1,38
 651 546 651 546 747 546 c 0,39,40
 839 546 839 546 875.5 488.5 c 128,-1,41
 912 431 912 431 912 301 c 2,42,-1
 912 178 l 2,43,44
 912 111 912 111 921.5 87 c 128,-1,45
 931 63 931 63 960 63 c 0,46,47
 980 63 980 63 988 90.5 c 128,-1,48
 996 118 996 118 996 167 c 2,49,-1
 996 537 l 1,50,-1
 1019 537 l 2,51,52
 1070 537 1070 537 1098.5 518.5 c 128,-1,53
 1127 500 1127 500 1140 468.5 c 128,-1,54
 1153 437 1153 437 1156.5 396 c 128,-1,55
 1160 355 1160 355 1160 310 c 2,56,-1
 1160 0 l 1,57,-1
 1121 0 l 1,58,-1
 1121 306 l 2,59,60
 1121 383 1121 383 1102 418.5 c 128,-1,61
 1083 454 1083 454 1048 454 c 2,62,-1
 1035 454 l 1,63,-1
 1035 166 l 2,64,65
 1035 86 1035 86 1020.5 38 c 128,-1,66
 1006 -10 1006 -10 959 -10 c 0,67,68
 918 -10 918 -10 900 16 c 128,-1,69
 882 42 882 42 877.5 82 c 128,-1,70
 873 122 873 122 873 162 c 2,71,-1
 873 301 l 2,72,73
 873 366 873 366 862.5 401 c 128,-1,74
 852 436 852 436 824.5 449.5 c 128,-1,75
 797 463 797 463 746 463 c 256,76,77
 695 463 695 463 667.5 445.5 c 128,-1,78
 640 428 640 428 629.5 391.5 c 128,-1,79
 619 355 619 355 619 299 c 2,80,-1
 619 227 l 2,81,82
 619 106 619 106 564.5 48 c 128,-1,83
 510 -10 510 -10 409 -10 c 0,0,1
EndSplineSet
EndChar

StartChar: uni1B34
Encoding: 6964 6964 57
Width: 0
GlyphClass: 4
Flags: W
AnchorPoint: "+BBEENQQ3BEsEPARPBD0EPQQ+BDUA--10" -230 620 mark 0
AnchorPoint: "+BBEENQQ3BEsEPARPBD0EPQQ+BDUA--2" -230 620 mark 0
LayerCount: 2
Fore
SplineSet
-228 780 m 0,0,1
 -253 780 -253 780 -271.5 798.5 c 128,-1,2
 -290 817 -290 817 -290 842 c 0,3,4
 -290 868 -290 868 -271.5 886.5 c 128,-1,5
 -253 905 -253 905 -228 905 c 0,6,7
 -202 905 -202 905 -184 886.5 c 128,-1,8
 -166 868 -166 868 -166 842 c 0,9,10
 -166 817 -166 817 -184 798.5 c 128,-1,11
 -202 780 -202 780 -228 780 c 0,0,1
-344 620 m 0,12,13
 -369 620 -369 620 -387.5 638.5 c 128,-1,14
 -406 657 -406 657 -406 683 c 256,15,16
 -406 709 -406 709 -387.5 727 c 128,-1,17
 -369 745 -369 745 -344 745 c 0,18,19
 -318 745 -318 745 -300 727 c 128,-1,20
 -282 709 -282 709 -282 683 c 256,21,22
 -282 657 -282 657 -300 638.5 c 128,-1,23
 -318 620 -318 620 -344 620 c 0,12,13
-111 620 m 0,24,25
 -136 620 -136 620 -154.5 638.5 c 128,-1,26
 -173 657 -173 657 -173 683 c 256,27,28
 -173 709 -173 709 -154.5 727 c 128,-1,29
 -136 745 -136 745 -111 745 c 0,30,31
 -85 745 -85 745 -67 727 c 128,-1,32
 -49 709 -49 709 -49 683 c 256,33,34
 -49 657 -49 657 -67 638.5 c 128,-1,35
 -85 620 -85 620 -111 620 c 0,24,25
EndSplineSet
EndChar

StartChar: uni1B35
Encoding: 6965 6965 58
Width: 447
GlyphClass: 2
Flags: W
LayerCount: 2
Fore
SplineSet
213 87 m 0,0,1
 197 87 197 87 178 94 c 128,-1,2
 159 101 159 101 145 115 c 128,-1,3
 131 129 131 129 131 150 c 0,4,5
 131 176 131 176 143.5 203.5 c 128,-1,6
 156 231 156 231 184 255 c 1,7,-1
 217 230 l 1,8,9
 196 209 196 209 196 184 c 0,10,11
 196 163 196 163 209 152.5 c 128,-1,12
 222 142 222 142 241 142 c 0,13,14
 271 142 271 142 295.5 165.5 c 128,-1,15
 320 189 320 189 335 229 c 128,-1,16
 350 269 350 269 350 318 c 0,17,18
 350 383 350 383 309 425.5 c 128,-1,19
 268 468 268 468 191 468 c 0,20,21
 137 468 137 468 96.5 448 c 128,-1,22
 56 428 56 428 36 393 c 1,23,-1
 0 415 l 1,24,25
 30 477 30 477 80.5 511.5 c 128,-1,26
 131 546 131 546 189 546 c 0,27,28
 257 546 257 546 303.5 515 c 128,-1,29
 350 484 350 484 374 433 c 128,-1,30
 398 382 398 382 398 321 c 0,31,32
 398 278 398 278 388 236.5 c 128,-1,33
 378 195 378 195 356 161 c 128,-1,34
 334 127 334 127 298.5 107 c 128,-1,35
 263 87 263 87 213 87 c 0,0,1
EndSplineSet
EndChar

StartChar: uni1B36
Encoding: 6966 6966 59
Width: 0
GlyphClass: 4
Flags: W
AnchorPoint: "+BBEENQQ3BEsEPARPBD0EPQQ+BDUA--10" -269 620 mark 0
AnchorPoint: "+BBEENQQ3BEsEPARPBD0EPQQ+BDUA--2" -269 620 mark 0
LayerCount: 2
Fore
SplineSet
-146 620 m 1,0,-1
 -171 645 l 1,1,2
 -149 676 -149 676 -139 696.5 c 128,-1,3
 -129 717 -129 717 -125.5 735.5 c 128,-1,4
 -122 754 -122 754 -122 778 c 0,5,6
 -122 837 -122 837 -161 867.5 c 128,-1,7
 -200 898 -200 898 -270 898 c 0,8,9
 -345 898 -345 898 -386.5 866.5 c 128,-1,10
 -428 835 -428 835 -428 778 c 0,11,12
 -428 754 -428 754 -424.5 735.5 c 128,-1,13
 -421 717 -421 717 -410.5 696.5 c 128,-1,14
 -400 676 -400 676 -379 645 c 1,15,-1
 -404 620 l 1,16,17
 -467 698 -467 698 -467 782 c 0,18,19
 -467 874 -467 874 -417 923 c 128,-1,20
 -367 972 -367 972 -273 972 c 0,21,22
 -182 972 -182 972 -132.5 922.5 c 128,-1,23
 -83 873 -83 873 -83 782 c 0,24,25
 -83 700 -83 700 -146 620 c 1,0,-1
EndSplineSet
EndChar

StartChar: uni1B37
Encoding: 6967 6967 60
Width: 0
GlyphClass: 4
Flags: W
AnchorPoint: "+BBEENQQ3BEsEPARPBD0EPQQ+BDUA--10" -269 620 mark 0
AnchorPoint: "+BBEENQQ3BEsEPARPBD0EPQQ+BDUA--2" -269 620 mark 0
LayerCount: 2
Fore
SplineSet
-146 620 m 1,0,-1
 -171 645 l 1,1,2
 -149 676 -149 676 -139 696.5 c 128,-1,3
 -129 717 -129 717 -125.5 735.5 c 128,-1,4
 -122 754 -122 754 -122 778 c 0,5,6
 -122 837 -122 837 -161 867.5 c 128,-1,7
 -200 898 -200 898 -270 898 c 0,8,9
 -345 898 -345 898 -386.5 866.5 c 128,-1,10
 -428 835 -428 835 -428 778 c 0,11,12
 -428 754 -428 754 -424.5 735.5 c 128,-1,13
 -421 717 -421 717 -410.5 696.5 c 128,-1,14
 -400 676 -400 676 -379 645 c 1,15,-1
 -404 620 l 1,16,17
 -467 698 -467 698 -467 782 c 0,18,19
 -467 874 -467 874 -417 923 c 128,-1,20
 -367 972 -367 972 -273 972 c 0,21,22
 -182 972 -182 972 -132.5 922.5 c 128,-1,23
 -83 873 -83 873 -83 782 c 0,24,25
 -83 700 -83 700 -146 620 c 1,0,-1
-195 657 m 1,26,-1
 -226 642 l 1,27,-1
 -249 693 l 1,28,29
 -271 755 -271 755 -281 768 c 256,30,31
 -291 781 -291 781 -306 781 c 0,32,33
 -337 781 -337 781 -341 738 c 1,34,-1
 -367 742 l 1,35,36
 -366 768 -366 768 -358 792 c 128,-1,37
 -350 816 -350 816 -337.5 831.5 c 128,-1,38
 -325 847 -325 847 -309 847 c 0,39,40
 -292 847 -292 847 -276.5 827 c 128,-1,41
 -261 807 -261 807 -246 776.5 c 128,-1,42
 -231 746 -231 746 -218 714 c 128,-1,43
 -205 682 -205 682 -195 657 c 1,26,-1
EndSplineSet
EndChar

StartChar: uni1B38
Encoding: 6968 6968 61
Width: 0
GlyphClass: 4
Flags: W
AnchorPoint: "+BBEENQQ3BEsEPARPBD0EPQQ+BDUA--8" -59 0 mark 0
AnchorPoint: "+BBEENQQ3BEsEPARPBD0EPQQ+BDUA--3" -59 0 mark 0
LayerCount: 2
Fore
SplineSet
-182 -46 m 1,0,-1
 -154 -59 l 1,1,2
 -161 -124 -161 -124 -190 -183 c 128,-1,3
 -219 -242 -219 -242 -278 -307 c 0,4,5
 -337 -374 -337 -374 -337 -414 c 0,6,7
 -337 -468 -337 -468 -280 -468 c 0,8,9
 -234 -468 -234 -468 -193 -420.5 c 128,-1,10
 -152 -373 -152 -373 -127 -291 c 0,11,12
 -103 -208 -103 -208 -103 -109 c 2,13,-1
 -103 15 l 1,14,-1
 -63 15 l 1,15,-1
 -63 -109 l 2,16,17
 -63 -242 -63 -242 -89 -340 c 128,-1,18
 -115 -438 -115 -438 -161.5 -492 c 128,-1,19
 -208 -546 -208 -546 -270 -546 c 0,20,21
 -322 -546 -322 -546 -351.5 -513.5 c 128,-1,22
 -381 -481 -381 -481 -381 -426 c 0,23,24
 -381 -365 -381 -365 -314 -292 c 0,25,26
 -248 -219 -248 -219 -220 -162 c 128,-1,27
 -192 -105 -192 -105 -182 -46 c 1,0,-1
EndSplineSet
Substitution2: "Single Substitution lookup 8 subtable" uni1B38.alt
EndChar

StartChar: uni1B39
Encoding: 6969 6969 62
Width: 0
GlyphClass: 4
Flags: W
AnchorPoint: "+BBEENQQ3BEsEPARPBD0EPQQ+BDUA--8" -59 0 mark 0
AnchorPoint: "+BBEENQQ3BEsEPARPBD0EPQQ+BDUA--3" -59 0 mark 0
LayerCount: 2
Fore
SplineSet
-100 14 m 1,0,-1
 -66 5 l 1,1,2
 -95 -68 -95 -68 -95 -110 c 0,3,4
 -95 -129 -95 -129 -83 -142.5 c 128,-1,5
 -71 -156 -71 -156 -52.5 -166 c 128,-1,6
 -34 -176 -34 -176 -17 -185 c 0,7,8
 9 -198 9 -198 23.5 -223 c 128,-1,9
 38 -248 38 -248 38 -278 c 0,10,11
 38 -344 38 -344 -3.5 -409.5 c 128,-1,12
 -45 -475 -45 -475 -135 -546 c 1,13,-1
 -153 -524 l 1,14,15
 -87 -471 -87 -471 -51.5 -416.5 c 128,-1,16
 -16 -362 -16 -362 -16 -315 c 0,17,18
 -16 -264 -16 -264 -86 -229 c 0,19,20
 -120 -212 -120 -212 -134 -197 c 128,-1,21
 -148 -182 -148 -182 -148 -164 c 0,22,23
 -148 -103 -148 -103 -100 14 c 1,0,-1
EndSplineSet
Substitution2: "Single Substitution lookup 8 subtable" uni1B39.alt
EndChar

StartChar: uni1B3A
Encoding: 6970 6970 63
Width: 0
GlyphClass: 4
Flags: W
AnchorPoint: "+BBEENQQ3BEsEPARPBD0EPQQ+BDUA--8" -59 0 mark 0
AnchorPoint: "+BBEENQQ3BEsEPARPBD0EPQQ+BDUA--3" -59 0 mark 0
LayerCount: 2
Fore
SplineSet
-103 49 m 1,0,-1
 -63 49 l 1,1,-1
 -63 -300 l 2,2,3
 -63 -363 -63 -363 -83 -409.5 c 128,-1,4
 -103 -456 -103 -456 -141 -486 c 0,5,6
 -163 -503 -163 -503 -188 -515 c 1,7,-1
 -160 -576 l 1,8,-1
 -195 -595 l 1,9,-1
 -225 -529 l 1,10,11
 -282 -546 -282 -546 -350 -546 c 0,12,13
 -425 -546 -425 -546 -480.5 -525.5 c 128,-1,14
 -536 -505 -536 -505 -574 -468 c 0,15,16
 -611 -432 -611 -432 -629 -383 c 128,-1,17
 -647 -334 -647 -334 -647 -277 c 0,18,19
 -647 -231 -647 -231 -636.5 -180.5 c 128,-1,20
 -626 -130 -626 -130 -603 -82 c 1,21,-1
 -569 -98 l 1,22,23
 -606 -187 -606 -187 -606 -265 c 0,24,25
 -606 -308 -606 -308 -592.5 -344.5 c 128,-1,26
 -579 -381 -579 -381 -549 -408 c 256,27,28
 -519 -435 -519 -435 -470 -450.5 c 128,-1,29
 -421 -466 -421 -466 -351 -466 c 0,30,31
 -326 -466 -326 -466 -303 -464.5 c 128,-1,32
 -280 -463 -280 -463 -258 -459 c 1,33,-1
 -270 -433 l 2,34,35
 -285 -399 -285 -399 -300 -369.5 c 128,-1,36
 -315 -340 -315 -340 -330.5 -321.5 c 128,-1,37
 -346 -303 -346 -303 -365 -303 c 0,38,39
 -387 -303 -387 -303 -397.5 -320.5 c 128,-1,40
 -408 -338 -408 -338 -408 -358 c 1,41,-1
 -440 -355 l 1,42,43
 -440 -326 -440 -326 -433 -294.5 c 128,-1,44
 -426 -263 -426 -263 -410.5 -241 c 128,-1,45
 -395 -219 -395 -219 -372 -219 c 0,46,47
 -347 -219 -347 -219 -326 -244 c 128,-1,48
 -305 -269 -305 -269 -286 -307 c 128,-1,49
 -267 -345 -267 -345 -250 -383 c 2,50,-1
 -219 -449 l 1,51,52
 -207 -445 -207 -445 -196 -440.5 c 128,-1,53
 -185 -436 -185 -436 -175 -430 c 0,54,55
 -141 -410 -141 -410 -122 -378.5 c 128,-1,56
 -103 -347 -103 -347 -103 -300 c 2,57,-1
 -103 49 l 1,0,-1
EndSplineSet
EndChar

StartChar: uni1B3E
Encoding: 6974 6974 67
Width: 483
GlyphClass: 2
Flags: W
LayerCount: 2
Fore
SplineSet
47 332 m 0,0,1
 43 332 43 332 38.5 333 c 128,-1,2
 34 334 34 334 29 335 c 1,3,4
 29 392 29 392 52.5 440 c 128,-1,5
 76 488 76 488 120.5 517 c 128,-1,6
 165 546 165 546 226 546 c 0,7,8
 327 546 327 546 381 472 c 128,-1,9
 435 398 435 398 435 260 c 0,10,11
 435 80 435 80 358 -103 c 0,12,13
 281 -284 281 -284 281 -397 c 0,14,15
 281 -431 281 -431 286 -461.5 c 128,-1,16
 291 -492 291 -492 303 -527 c 1,17,-1
 270 -546 l 1,18,19
 260 -532 260 -532 251.5 -503.5 c 128,-1,20
 243 -475 243 -475 237.5 -444 c 128,-1,21
 232 -413 232 -413 232 -392 c 0,22,23
 232 -287 232 -287 291 -143 c 0,24,25
 330 -47 330 -47 350.5 23 c 128,-1,26
 371 93 371 93 378.5 150.5 c 128,-1,27
 386 208 386 208 386 264 c 0,28,29
 386 463 386 463 228 463 c 0,30,31
 156 463 156 463 113 428.5 c 128,-1,32
 70 394 70 394 68 336 c 1,33,34
 56 332 56 332 47 332 c 0,0,1
EndSplineSet
EndChar

StartChar: uni1B3F
Encoding: 6975 6975 68
Width: 483
GlyphClass: 2
Flags: W
LayerCount: 2
Fore
SplineSet
142 612 m 1,0,-1
 133 660 l 1,1,2
 212 665 212 665 256.5 689.5 c 128,-1,3
 301 714 301 714 301 751 c 0,4,5
 301 776 301 776 264 782 c 0,6,7
 199 793 199 793 166 818 c 128,-1,8
 133 843 133 843 133 900 c 0,9,10
 133 959 133 959 186 1002.5 c 128,-1,11
 239 1046 239 1046 324 1056 c 1,12,-1
 320 1007 l 1,13,14
 285 1003 285 1003 253.5 988.5 c 128,-1,15
 222 974 222 974 202 954.5 c 128,-1,16
 182 935 182 935 182 914 c 0,17,18
 182 895 182 895 195.5 885.5 c 128,-1,19
 209 876 209 876 247 868 c 0,20,21
 297 858 297 858 323.5 835 c 128,-1,22
 350 812 350 812 350 763 c 0,23,24
 350 700 350 700 293.5 660 c 128,-1,25
 237 620 237 620 142 612 c 1,0,-1
47 332 m 0,26,27
 43 332 43 332 38.5 333 c 128,-1,28
 34 334 34 334 29 335 c 1,29,30
 29 392 29 392 52.5 440 c 128,-1,31
 76 488 76 488 120.5 517 c 128,-1,32
 165 546 165 546 226 546 c 0,33,34
 327 546 327 546 381 472 c 128,-1,35
 435 398 435 398 435 260 c 0,36,37
 435 80 435 80 358 -103 c 0,38,39
 281 -284 281 -284 281 -397 c 0,40,41
 281 -431 281 -431 286 -461.5 c 128,-1,42
 291 -492 291 -492 303 -527 c 1,43,-1
 270 -546 l 1,44,45
 260 -532 260 -532 251.5 -503.5 c 128,-1,46
 243 -475 243 -475 237.5 -444 c 128,-1,47
 232 -413 232 -413 232 -392 c 0,48,49
 232 -287 232 -287 291 -143 c 0,50,51
 330 -47 330 -47 350.5 23 c 128,-1,52
 371 93 371 93 378.5 150.5 c 128,-1,53
 386 208 386 208 386 264 c 0,54,55
 386 463 386 463 228 463 c 0,56,57
 156 463 156 463 113 428.5 c 128,-1,58
 70 394 70 394 68 336 c 1,59,60
 56 332 56 332 47 332 c 0,26,27
EndSplineSet
EndChar

StartChar: uni1B42
Encoding: 6978 6978 71
Width: 0
GlyphClass: 4
Flags: W
AnchorPoint: "+BBEENQQ3BEsEPARPBD0EPQQ+BDUA--10" -440 620 mark 0
AnchorPoint: "+BBEENQQ3BEsEPARPBD0EPQQ+BDUA--2" -440 620 mark 0
LayerCount: 2
Fore
SplineSet
-613 792 m 1,0,-1
 -635 809 l 1,1,2
 -574 906 -574 906 -518.5 962.5 c 128,-1,3
 -463 1019 -463 1019 -402 1044 c 128,-1,4
 -341 1069 -341 1069 -266 1069 c 0,5,6
 -211 1069 -211 1069 -160 1039 c 128,-1,7
 -109 1009 -109 1009 -73 956 c 1,8,-1
 -461 795 l 1,9,-1
 -479 826 l 1,10,-1
 -181 953 l 1,11,12
 -207 975 -207 975 -231 983 c 128,-1,13
 -255 991 -255 991 -287 991 c 0,14,15
 -369 991 -369 991 -446.5 943.5 c 128,-1,16
 -524 896 -524 896 -613 792 c 1,0,-1
-586 646 m 1,17,-1
 -607 620 l 1,18,19
 -674 676 -674 676 -724 725 c 128,-1,20
 -774 774 -774 774 -808 816 c 1,21,-1
 -765 861 l 1,22,23
 -701 779 -701 779 -586 646 c 1,17,-1
EndSplineSet
EndChar

StartChar: uni1B44
Encoding: 6980 6980 73
Width: 348
GlyphClass: 2
Flags: W
LayerCount: 2
Fore
SplineSet
174 -514 m 1,0,-1
 137 -546 l 1,1,2
 35 -358 35 -358 35 -137 c 0,3,4
 35 -41 35 -41 57 68 c 128,-1,5
 79 177 79 177 125 299 c 0,6,7
 216 544 216 544 216 719 c 0,8,9
 216 799 216 799 186.5 859 c 128,-1,10
 157 919 157 919 104 952.5 c 128,-1,11
 51 986 51 986 -21 986 c 0,12,13
 -135 986 -135 986 -194 926.5 c 128,-1,14
 -253 867 -253 867 -273 742 c 1,15,16
 -286 738 -286 738 -295 738 c 0,17,18
 -299 738 -299 738 -303.5 739 c 128,-1,19
 -308 740 -308 740 -313 741 c 1,20,21
 -310 838 -310 838 -273 911.5 c 128,-1,22
 -236 985 -236 985 -172 1027 c 128,-1,23
 -108 1069 -108 1069 -23 1069 c 0,24,25
 67 1069 67 1069 134 1025.5 c 128,-1,26
 201 982 201 982 237.5 898 c 128,-1,27
 274 814 274 814 274 693 c 0,28,29
 274 616 274 616 267 545 c 128,-1,30
 260 474 260 474 241.5 395.5 c 128,-1,31
 223 317 223 317 188 215 c 0,32,33
 154 113 154 113 135.5 37 c 128,-1,34
 117 -39 117 -39 110.5 -102.5 c 128,-1,35
 104 -166 104 -166 104 -231 c 0,36,37
 104 -270 104 -270 109 -310 c 128,-1,38
 114 -350 114 -350 129.5 -398.5 c 128,-1,39
 145 -447 145 -447 174 -514 c 1,0,-1
EndSplineSet
EndChar

StartChar: uni1B45
Encoding: 6981 6981 74
Width: 1213
GlyphClass: 2
Flags: W
AnchorPoint: "+BBEENQQ3BEsEPARPBD0EPQQ+BDUA--7" 1154 0 basechar 0
AnchorPoint: "+BBEENQQ3BEsEPARPBD0EPQQ+BDUA--6" 1416 0 basechar 0
AnchorPoint: "+BBEENQQ3BEsEPARPBD0EPQQ+BDUA--5" 1171 0 basechar 0
AnchorPoint: "+BBEENQQ3BEsEPARPBD0EPQQ+BDUA--4" 1213 -49 basechar 0
AnchorPoint: "+BBEENQQ3BEsEPARPBD0EPQQ+BDUA--3" 1156 0 basechar 0
AnchorPoint: "+BBEENQQ3BEsEPARPBD0EPQQ+BDUA--2" 629 620 basechar 0
LayerCount: 2
Fore
SplineSet
1009 537 m 2,0,1
 1060 537 1060 537 1088.5 518.5 c 128,-1,2
 1117 500 1117 500 1130.5 468.5 c 128,-1,3
 1144 437 1144 437 1147 396 c 128,-1,4
 1150 355 1150 355 1150 310 c 2,5,-1
 1150 0 l 1,6,-1
 1111 0 l 1,7,-1
 1111 306 l 2,8,9
 1111 383 1111 383 1092 418.5 c 128,-1,10
 1073 454 1073 454 1038 454 c 2,11,-1
 1025 454 l 1,12,-1
 1025 108 l 2,13,14
 1025 83 1025 83 1018 55.5 c 128,-1,15
 1011 28 1011 28 994 9 c 128,-1,16
 977 -10 977 -10 945 -10 c 0,17,18
 905 -10 905 -10 885.5 16.5 c 128,-1,19
 866 43 866 43 860 87 c 128,-1,20
 854 131 854 131 854 182 c 2,21,-1
 854 299 l 2,22,23
 854 383 854 383 808.5 423 c 128,-1,24
 763 463 763 463 660 463 c 0,25,26
 625 463 625 463 589.5 456 c 128,-1,27
 554 449 554 449 524 430.5 c 128,-1,28
 494 412 494 412 476 379 c 128,-1,29
 458 346 458 346 458 294 c 1,30,31
 515 289 515 289 568.5 277.5 c 128,-1,32
 622 266 622 266 664.5 244.5 c 128,-1,33
 707 223 707 223 732 187.5 c 128,-1,34
 757 152 757 152 757 99 c 0,35,36
 757 59 757 59 737 35 c 128,-1,37
 717 11 717 11 686.5 0.5 c 128,-1,38
 656 -10 656 -10 625 -10 c 0,39,40
 598 -10 598 -10 563 2 c 128,-1,41
 528 14 528 14 495 39.5 c 128,-1,42
 462 65 462 65 440.5 105 c 128,-1,43
 419 145 419 145 419 202 c 2,44,-1
 419 216 l 1,45,46
 406 217 406 217 393 217 c 128,-1,47
 380 217 380 217 360 217 c 1,48,-1
 360 -2 l 2,49,50
 360 -42 360 -42 375.5 -81 c 128,-1,51
 391 -120 391 -120 425.5 -145.5 c 128,-1,52
 460 -171 460 -171 516 -171 c 0,53,54
 552 -171 552 -171 587 -161 c 128,-1,55
 622 -151 622 -151 647.5 -125.5 c 128,-1,56
 673 -100 673 -100 679 -54 c 1,57,-1
 711 -63 l 1,58,59
 703 -132 703 -132 675.5 -174 c 128,-1,60
 648 -216 648 -216 607 -235 c 128,-1,61
 566 -254 566 -254 516 -254 c 0,62,63
 446 -254 446 -254 403 -218.5 c 128,-1,64
 360 -183 360 -183 340.5 -126 c 128,-1,65
 321 -69 321 -69 321 -7 c 2,66,-1
 321 216 l 1,67,68
 305 215 305 215 287.5 214 c 128,-1,69
 270 213 270 213 262 212 c 1,70,-1
 262 182 l 2,71,72
 262 131 262 131 253 87 c 128,-1,73
 244 43 244 43 220.5 16.5 c 128,-1,74
 197 -10 197 -10 153 -10 c 0,75,76
 125 -10 125 -10 106.5 5 c 128,-1,77
 88 20 88 20 78 43.5 c 128,-1,78
 68 67 68 67 68 92 c 0,79,80
 68 170 68 170 113.5 218.5 c 128,-1,81
 159 267 159 267 223 286 c 1,82,-1
 223 322 l 2,83,84
 223 399 223 399 204.5 431 c 128,-1,85
 186 463 186 463 151 463 c 0,86,87
 119 463 119 463 104 446.5 c 128,-1,88
 89 430 89 430 84 401.5 c 128,-1,89
 79 373 79 373 78 336 c 1,90,91
 73 335 73 335 69 333.5 c 128,-1,92
 65 332 65 332 57 332 c 0,93,94
 50 332 50 332 47 333 c 128,-1,95
 44 334 44 334 39 335 c 1,96,97
 39 361 39 361 41.5 397 c 128,-1,98
 44 433 44 433 54.5 467 c 128,-1,99
 65 501 65 501 89 523.5 c 128,-1,100
 113 546 113 546 156 546 c 0,101,102
 193 546 193 546 214.5 525.5 c 128,-1,103
 236 505 236 505 246 471 c 128,-1,104
 256 437 256 437 259 397.5 c 128,-1,105
 262 358 262 358 262 319 c 2,106,-1
 262 294 l 1,107,108
 270 295 270 295 287 296.5 c 128,-1,109
 304 298 304 298 321 299 c 1,110,-1
 321 376 l 1,111,-1
 360 376 l 1,112,-1
 360 300 l 1,113,114
 376 300 376 300 391 299.5 c 128,-1,115
 406 299 406 299 419 298 c 1,116,-1
 419 319 l 2,117,118
 419 396 419 396 450 446.5 c 128,-1,119
 481 497 481 497 535.5 521.5 c 128,-1,120
 590 546 590 546 658 546 c 0,121,122
 768 546 768 546 831 485.5 c 128,-1,123
 894 425 894 425 894 300 c 2,124,-1
 894 178 l 2,125,126
 894 111 894 111 905.5 87 c 128,-1,127
 917 63 917 63 947 63 c 0,128,129
 966 63 966 63 976 85 c 128,-1,130
 986 107 986 107 986 138 c 2,131,-1
 986 537 l 1,132,-1
 1009 537 l 2,0,1
708 85 m 0,133,134
 708 115 708 115 686.5 138 c 128,-1,135
 665 161 665 161 628.5 176.5 c 128,-1,136
 592 192 592 192 547.5 201 c 128,-1,137
 503 210 503 210 458 213 c 1,138,-1
 458 199 l 2,139,140
 458 150 458 150 477.5 118.5 c 128,-1,141
 497 87 497 87 526 70 c 128,-1,142
 555 53 555 53 583.5 46 c 128,-1,143
 612 39 612 39 630 39 c 0,144,145
 658 39 658 39 683 49.5 c 128,-1,146
 708 60 708 60 708 85 c 0,133,134
223 178 m 2,147,-1
 223 206 l 1,148,149
 174 194 174 194 143 167.5 c 128,-1,150
 112 141 112 141 112 98 c 0,151,152
 112 67 112 67 124 53 c 128,-1,153
 136 39 136 39 155 39 c 0,154,155
 185 39 185 39 204 70.5 c 128,-1,156
 223 102 223 102 223 178 c 2,147,-1
EndSplineSet
EndChar

StartChar: uni1B46
Encoding: 6982 6982 75
Width: 1809
GlyphClass: 2
Flags: W
AnchorPoint: "+BBEENQQ3BEsEPARPBD0EPQQ+BDUA--7" 1750 0 basechar 0
AnchorPoint: "+BBEENQQ3BEsEPARPBD0EPQQ+BDUA--6" 1416 0 basechar 0
AnchorPoint: "+BBEENQQ3BEsEPARPBD0EPQQ+BDUA--5" 1171 0 basechar 0
AnchorPoint: "+BBEENQQ3BEsEPARPBD0EPQQ+BDUA--4" 1809 0 basechar 0
AnchorPoint: "+BBEENQQ3BEsEPARPBD0EPQQ+BDUA--3" 1752 0 basechar 0
AnchorPoint: "+BBEENQQ3BEsEPARPBD0EPQQ+BDUA--2" 962 620 basechar 0
LayerCount: 2
Fore
SplineSet
153 -10 m 0,0,1
 125 -10 125 -10 106.5 5 c 128,-1,2
 88 20 88 20 78 43.5 c 128,-1,3
 68 67 68 67 68 92 c 0,4,5
 68 170 68 170 113.5 218.5 c 128,-1,6
 159 267 159 267 223 286 c 1,7,-1
 223 322 l 2,8,9
 223 399 223 399 204.5 431 c 128,-1,10
 186 463 186 463 151 463 c 0,11,12
 119 463 119 463 104 446.5 c 128,-1,13
 89 430 89 430 84 401.5 c 128,-1,14
 79 373 79 373 78 336 c 1,15,16
 73 335 73 335 69 333.5 c 128,-1,17
 65 332 65 332 57 332 c 0,18,19
 50 332 50 332 47 333 c 128,-1,20
 44 334 44 334 39 335 c 1,21,22
 39 361 39 361 41.5 397 c 128,-1,23
 44 433 44 433 54.5 467 c 128,-1,24
 65 501 65 501 89 523.5 c 128,-1,25
 113 546 113 546 156 546 c 0,26,27
 193 546 193 546 214.5 525.5 c 128,-1,28
 236 505 236 505 246 471 c 128,-1,29
 256 437 256 437 259 397.5 c 128,-1,30
 262 358 262 358 262 319 c 2,31,-1
 262 294 l 1,32,33
 282 298 282 298 317 298 c 1,34,-1
 317 319 l 2,35,36
 317 396 317 396 348 446.5 c 128,-1,37
 379 497 379 497 433 521.5 c 128,-1,38
 487 546 487 546 556 546 c 0,39,40
 630 546 630 546 686 519.5 c 128,-1,41
 742 493 742 493 774 438.5 c 128,-1,42
 806 384 806 384 806 300 c 2,43,-1
 806 235 l 2,44,45
 806 171 806 171 830 135.5 c 128,-1,46
 854 100 854 100 895.5 86.5 c 128,-1,47
 937 73 937 73 990 73 c 0,48,49
 1086 73 1086 73 1126 113 c 128,-1,50
 1166 153 1166 153 1166 237 c 2,51,-1
 1166 300 l 2,52,53
 1166 425 1166 425 1201.5 485.5 c 128,-1,54
 1237 546 1237 546 1333 546 c 0,55,56
 1425 546 1425 546 1461.5 488.5 c 128,-1,57
 1498 431 1498 431 1498 301 c 2,58,-1
 1498 178 l 2,59,60
 1498 111 1498 111 1507.5 87 c 128,-1,61
 1517 63 1517 63 1546 63 c 0,62,63
 1566 63 1566 63 1574 90.5 c 128,-1,64
 1582 118 1582 118 1582 167 c 2,65,-1
 1582 537 l 1,66,-1
 1605 537 l 2,67,68
 1656 537 1656 537 1684.5 518.5 c 128,-1,69
 1713 500 1713 500 1726 468.5 c 128,-1,70
 1739 437 1739 437 1742.5 396 c 128,-1,71
 1746 355 1746 355 1746 310 c 2,72,-1
 1746 0 l 1,73,-1
 1707 0 l 1,74,-1
 1707 306 l 2,75,76
 1707 383 1707 383 1688 418.5 c 128,-1,77
 1669 454 1669 454 1634 454 c 2,78,-1
 1621 454 l 1,79,-1
 1621 166 l 2,80,81
 1621 86 1621 86 1606.5 38 c 128,-1,82
 1592 -10 1592 -10 1545 -10 c 0,83,84
 1504 -10 1504 -10 1486 15 c 128,-1,85
 1468 40 1468 40 1463.5 79 c 128,-1,86
 1459 118 1459 118 1459 158 c 2,87,-1
 1459 301 l 2,88,89
 1459 366 1459 366 1448.5 401 c 128,-1,90
 1438 436 1438 436 1410.5 449.5 c 128,-1,91
 1383 463 1383 463 1332 463 c 256,92,93
 1281 463 1281 463 1253.5 445.5 c 128,-1,94
 1226 428 1226 428 1215.5 391.5 c 128,-1,95
 1205 355 1205 355 1205 299 c 2,96,-1
 1205 227 l 2,97,98
 1205 106 1205 106 1148 48 c 128,-1,99
 1091 -10 1091 -10 990 -10 c 0,100,101
 888 -10 888 -10 827.5 47.5 c 128,-1,102
 767 105 767 105 767 235 c 2,103,-1
 767 299 l 2,104,105
 767 383 767 383 714 423 c 128,-1,106
 661 463 661 463 557 463 c 0,107,108
 523 463 523 463 487.5 458 c 128,-1,109
 452 453 452 453 422 438 c 128,-1,110
 392 423 392 423 374 392.5 c 128,-1,111
 356 362 356 362 356 311 c 2,112,-1
 356 297 l 1,113,114
 411 294 411 294 464 282.5 c 128,-1,115
 517 271 517 271 560 248 c 128,-1,116
 603 225 603 225 629 188.5 c 128,-1,117
 655 152 655 152 655 99 c 0,118,119
 655 59 655 59 634.5 35 c 128,-1,120
 614 11 614 11 583.5 0.5 c 128,-1,121
 553 -10 553 -10 522 -10 c 0,122,123
 495 -10 495 -10 460 2 c 128,-1,124
 425 14 425 14 392.5 39.5 c 128,-1,125
 360 65 360 65 338.5 105 c 128,-1,126
 317 145 317 145 317 202 c 2,127,-1
 317 214 l 1,128,129
 304 214 304 214 290.5 214 c 128,-1,130
 277 214 277 214 262 212 c 1,131,-1
 262 182 l 2,132,133
 262 131 262 131 253 87 c 128,-1,134
 244 43 244 43 220.5 16.5 c 128,-1,135
 197 -10 197 -10 153 -10 c 0,0,1
527 39 m 0,136,137
 555 39 555 39 580.5 49.5 c 128,-1,138
 606 60 606 60 606 85 c 0,139,140
 606 115 606 115 584 138 c 128,-1,141
 562 161 562 161 526 176.5 c 128,-1,142
 490 192 490 192 445.5 201 c 128,-1,143
 401 210 401 210 356 213 c 1,144,-1
 356 199 l 2,145,146
 356 150 356 150 375.5 118.5 c 128,-1,147
 395 87 395 87 424 70 c 128,-1,148
 453 53 453 53 481.5 46 c 128,-1,149
 510 39 510 39 527 39 c 0,136,137
155 39 m 0,150,151
 185 39 185 39 204 70.5 c 128,-1,152
 223 102 223 102 223 178 c 2,153,-1
 223 206 l 1,154,155
 174 194 174 194 143 167.5 c 128,-1,156
 112 141 112 141 112 98 c 0,157,158
 112 67 112 67 124 53 c 128,-1,159
 136 39 136 39 155 39 c 0,150,151
EndSplineSet
EndChar

StartChar: uni1B47
Encoding: 6983 6983 76
Width: 1204
GlyphClass: 2
Flags: W
AnchorPoint: "+BBEENQQ3BEsEPARPBD0EPQQ+BDUA--7" 1144 0 basechar 0
AnchorPoint: "+BBEENQQ3BEsEPARPBD0EPQQ+BDUA--6" 1416 0 basechar 0
AnchorPoint: "+BBEENQQ3BEsEPARPBD0EPQQ+BDUA--5" 1171 0 basechar 0
AnchorPoint: "+BBEENQQ3BEsEPARPBD0EPQQ+BDUA--4" 1203 -196 basechar 0
AnchorPoint: "+BBEENQQ3BEsEPARPBD0EPQQ+BDUA--3" 1147 0 basechar 0
AnchorPoint: "+BBEENQQ3BEsEPARPBD0EPQQ+BDUA--2" 645 620 basechar 0
LayerCount: 2
Fore
SplineSet
1000 537 m 2,0,1
 1051 537 1051 537 1079.5 518.5 c 128,-1,2
 1108 500 1108 500 1121 468.5 c 128,-1,3
 1134 437 1134 437 1137 396 c 128,-1,4
 1140 355 1140 355 1140 310 c 2,5,-1
 1140 0 l 1,6,-1
 1101 0 l 1,7,-1
 1101 306 l 2,8,9
 1101 383 1101 383 1082 418.5 c 128,-1,10
 1063 454 1063 454 1028 454 c 2,11,-1
 1016 454 l 1,12,-1
 1016 108 l 2,13,14
 1016 83 1016 83 1009 55.5 c 128,-1,15
 1002 28 1002 28 984.5 9 c 128,-1,16
 967 -10 967 -10 936 -10 c 0,17,18
 895 -10 895 -10 875.5 16.5 c 128,-1,19
 856 43 856 43 850.5 87 c 128,-1,20
 845 131 845 131 845 182 c 2,21,-1
 845 301 l 2,22,23
 845 366 845 366 816.5 401 c 128,-1,24
 788 436 788 436 740 449.5 c 128,-1,25
 692 463 692 463 633 463 c 0,26,27
 530 463 530 463 489 436 c 128,-1,28
 448 409 448 409 448 371 c 0,29,30
 448 347 448 347 463.5 337 c 128,-1,31
 479 327 479 327 503 322.5 c 128,-1,32
 527 318 527 318 554.5 313 c 128,-1,33
 582 308 582 308 606 295 c 128,-1,34
 630 282 630 282 645.5 255 c 128,-1,35
 661 228 661 228 661 178 c 0,36,37
 661 122 661 122 629.5 79.5 c 128,-1,38
 598 37 598 37 543 13.5 c 128,-1,39
 488 -10 488 -10 418 -10 c 0,40,41
 379 -10 379 -10 346 -4 c 1,42,43
 347 -43 347 -43 362.5 -81.5 c 128,-1,44
 378 -120 378 -120 412 -145.5 c 128,-1,45
 446 -171 446 -171 501 -171 c 0,46,47
 537 -171 537 -171 572 -161 c 128,-1,48
 607 -151 607 -151 633 -125.5 c 128,-1,49
 659 -100 659 -100 665 -54 c 1,50,-1
 697 -63 l 1,51,52
 689 -132 689 -132 661.5 -174 c 128,-1,53
 634 -216 634 -216 592.5 -235 c 128,-1,54
 551 -254 551 -254 501 -254 c 0,55,56
 431 -254 431 -254 388.5 -218.5 c 128,-1,57
 346 -183 346 -183 326.5 -126 c 128,-1,58
 307 -69 307 -69 307 -7 c 2,59,-1
 307 7 l 1,60,61
 260 26 260 26 231.5 71 c 128,-1,62
 203 116 203 116 203 200 c 2,63,-1
 203 322 l 2,64,65
 203 399 203 399 189 431 c 128,-1,66
 175 463 175 463 146 463 c 0,67,68
 114 463 114 463 100 446.5 c 128,-1,69
 86 430 86 430 82.5 401.5 c 128,-1,70
 79 373 79 373 78 336 c 1,71,72
 73 335 73 335 69 333.5 c 128,-1,73
 65 332 65 332 57 332 c 0,74,75
 50 332 50 332 47 333 c 128,-1,76
 44 334 44 334 39 335 c 1,77,78
 39 361 39 361 41 397 c 128,-1,79
 43 433 43 433 53 467 c 128,-1,80
 63 501 63 501 86 523.5 c 128,-1,81
 109 546 109 546 151 546 c 0,82,83
 182 546 182 546 200 525 c 128,-1,84
 218 504 218 504 227 470.5 c 128,-1,85
 236 437 236 437 239 397 c 128,-1,86
 242 357 242 357 242 318 c 2,87,-1
 242 214 l 2,88,89
 242 172 242 172 257.5 141.5 c 128,-1,90
 273 111 273 111 307 94 c 1,91,-1
 307 376 l 1,92,-1
 346 376 l 1,93,-1
 346 80 l 1,94,95
 375 73 375 73 418 73 c 0,96,97
 510 73 510 73 561 101.5 c 128,-1,98
 612 130 612 130 612 179 c 0,99,100
 612 207 612 207 596.5 219 c 128,-1,101
 581 231 581 231 557 235.5 c 128,-1,102
 533 240 533 240 505.5 244 c 128,-1,103
 478 248 478 248 454 259.5 c 128,-1,104
 430 271 430 271 414.5 297.5 c 128,-1,105
 399 324 399 324 399 374 c 0,106,107
 399 421 399 421 427 460 c 128,-1,108
 455 499 455 499 507.5 522.5 c 128,-1,109
 560 546 560 546 633 546 c 0,110,111
 701 546 701 546 758 522 c 128,-1,112
 815 498 815 498 849.5 444.5 c 128,-1,113
 884 391 884 391 884 301 c 2,114,-1
 884 178 l 2,115,116
 884 111 884 111 895.5 87 c 128,-1,117
 907 63 907 63 937 63 c 0,118,119
 956 63 956 63 966.5 85 c 128,-1,120
 977 107 977 107 977 138 c 2,121,-1
 977 537 l 1,122,-1
 1000 537 l 2,0,1
EndSplineSet
EndChar

StartChar: uni1B48
Encoding: 6984 6984 77
Width: 807
GlyphClass: 2
Flags: W
AnchorPoint: "+BBEENQQ3BEsEPARPBD0EPQQ+BDUA--7" 840 -84 basechar 0
AnchorPoint: "+BBEENQQ3BEsEPARPBD0EPQQ+BDUA--6" 1416 0 basechar 0
AnchorPoint: "+BBEENQQ3BEsEPARPBD0EPQQ+BDUA--5" 1171 0 basechar 0
AnchorPoint: "+BBEENQQ3BEsEPARPBD0EPQQ+BDUA--4" 807 -196 basechar 0
AnchorPoint: "+BBEENQQ3BEsEPARPBD0EPQQ+BDUA--3" 730 -84 basechar 0
AnchorPoint: "+BBEENQQ3BEsEPARPBD0EPQQ+BDUA--2" 462 620 basechar 0
LayerCount: 2
Fore
SplineSet
744 0 m 1,0,-1
 705 0 l 1,1,-1
 705 306 l 2,2,3
 705 383 705 383 686 418.5 c 128,-1,4
 667 454 667 454 632 454 c 2,5,-1
 619 454 l 1,6,-1
 619 235 l 2,7,8
 619 105 619 105 562 47.5 c 128,-1,9
 505 -10 505 -10 410 -10 c 0,10,11
 401 -10 401 -10 392 -9.5 c 128,-1,12
 383 -9 383 -9 375 -8 c 1,13,14
 376 -47 376 -47 392 -84.5 c 128,-1,15
 408 -122 408 -122 442.5 -146.5 c 128,-1,16
 477 -171 477 -171 531 -171 c 0,17,18
 567 -171 567 -171 602 -161 c 128,-1,19
 637 -151 637 -151 662.5 -125.5 c 128,-1,20
 688 -100 688 -100 694 -54 c 1,21,-1
 726 -63 l 1,22,23
 718 -132 718 -132 690.5 -174 c 128,-1,24
 663 -216 663 -216 621.5 -235 c 128,-1,25
 580 -254 580 -254 531 -254 c 0,26,27
 461 -254 461 -254 418 -218.5 c 128,-1,28
 375 -183 375 -183 355.5 -126 c 128,-1,29
 336 -69 336 -69 336 -7 c 2,30,-1
 336 -1 l 1,31,32
 270 18 270 18 234.5 74 c 128,-1,33
 199 130 199 130 199 227 c 2,34,-1
 199 322 l 2,35,36
 199 399 199 399 187.5 431 c 128,-1,37
 176 463 176 463 141 463 c 0,38,39
 111 463 111 463 98 446.5 c 128,-1,40
 85 430 85 430 82 401.5 c 128,-1,41
 79 373 79 373 78 336 c 1,42,43
 73 335 73 335 69 333.5 c 128,-1,44
 65 332 65 332 57 332 c 0,45,46
 50 332 50 332 47 333 c 128,-1,47
 44 334 44 334 39 335 c 1,48,49
 39 361 39 361 41 397 c 128,-1,50
 43 433 43 433 52.5 467 c 128,-1,51
 62 501 62 501 82.5 523.5 c 128,-1,52
 103 546 103 546 140 546 c 0,53,54
 176 546 176 546 196 525.5 c 128,-1,55
 216 505 216 505 225 471 c 128,-1,56
 234 437 234 437 236 397.5 c 128,-1,57
 238 358 238 358 238 319 c 2,58,-1
 238 237 l 2,59,60
 238 172 238 172 260 133.5 c 128,-1,61
 282 95 282 95 336 81 c 1,62,-1
 336 376 l 1,63,-1
 375 376 l 1,64,-1
 375 74 l 1,65,66
 383 73 383 73 391.5 73 c 128,-1,67
 400 73 400 73 409 73 c 0,68,69
 460 73 460 73 498.5 86.5 c 128,-1,70
 537 100 537 100 558.5 135.5 c 128,-1,71
 580 171 580 171 580 235 c 2,72,-1
 580 537 l 1,73,-1
 603 537 l 2,74,75
 654 537 654 537 682.5 518.5 c 128,-1,76
 711 500 711 500 724 468.5 c 128,-1,77
 737 437 737 437 740.5 396 c 128,-1,78
 744 355 744 355 744 310 c 2,79,-1
 744 0 l 1,0,-1
EndSplineSet
Position2: "Single Positioning lookup 15 subtable" dx=0 dy=0 dh=240 dv=0
Position2: "Single Positioning lookup 14 subtable" dx=0 dy=0 dh=342 dv=0
Position2: "Single Positioning lookup 13 subtable" dx=0 dy=0 dh=537 dv=0
Position2: "Single Positioning lookup 12 subtable" dx=0 dy=0 dh=469 dv=0
EndChar

StartChar: uni1B49
Encoding: 6985 6985 78
Width: 793
GlyphClass: 2
Flags: W
AnchorPoint: "+BBEENQQ3BEsEPARPBD0EPQQ+BDUA--7" 859 -85 basechar 0
AnchorPoint: "+BBEENQQ3BEsEPARPBD0EPQQ+BDUA--6" 1416 0 basechar 0
AnchorPoint: "+BBEENQQ3BEsEPARPBD0EPQQ+BDUA--5" 1171 0 basechar 0
AnchorPoint: "+BBEENQQ3BEsEPARPBD0EPQQ+BDUA--4" 793 -196 basechar 0
AnchorPoint: "+BBEENQQ3BEsEPARPBD0EPQQ+BDUA--3" 735 -85 basechar 0
AnchorPoint: "+BBEENQQ3BEsEPARPBD0EPQQ+BDUA--2" 425 620 basechar 0
LayerCount: 2
Fore
SplineSet
730 0 m 1,0,-1
 691 0 l 1,1,-1
 691 306 l 2,2,3
 691 366 691 366 675.5 400 c 128,-1,4
 660 434 660 434 635.5 448.5 c 128,-1,5
 611 463 611 463 583 463 c 0,6,7
 576 463 576 463 564 461 c 128,-1,8
 552 459 552 459 544 456 c 1,9,10
 591 418 591 418 605 372 c 128,-1,11
 619 326 619 326 619 273 c 2,12,-1
 619 235 l 2,13,14
 619 105 619 105 562 47.5 c 128,-1,15
 505 -10 505 -10 410 -10 c 0,16,17
 401 -10 401 -10 392 -9.5 c 128,-1,18
 383 -9 383 -9 375 -8 c 1,19,20
 376 -47 376 -47 392 -84.5 c 128,-1,21
 408 -122 408 -122 442.5 -146.5 c 128,-1,22
 477 -171 477 -171 531 -171 c 0,23,24
 567 -171 567 -171 602 -161 c 128,-1,25
 637 -151 637 -151 662.5 -125.5 c 128,-1,26
 688 -100 688 -100 694 -54 c 1,27,-1
 726 -63 l 1,28,29
 718 -132 718 -132 690.5 -174 c 128,-1,30
 663 -216 663 -216 621.5 -235 c 128,-1,31
 580 -254 580 -254 531 -254 c 0,32,33
 461 -254 461 -254 418 -218.5 c 128,-1,34
 375 -183 375 -183 355.5 -126 c 128,-1,35
 336 -69 336 -69 336 -7 c 2,36,-1
 336 -1 l 1,37,38
 270 18 270 18 234.5 74 c 128,-1,39
 199 130 199 130 199 227 c 2,40,-1
 199 322 l 2,41,42
 199 399 199 399 187.5 431 c 128,-1,43
 176 463 176 463 141 463 c 0,44,45
 111 463 111 463 98 446.5 c 128,-1,46
 85 430 85 430 82 401.5 c 128,-1,47
 79 373 79 373 78 336 c 1,48,49
 73 335 73 335 69 333.5 c 128,-1,50
 65 332 65 332 57 332 c 0,51,52
 50 332 50 332 47 333 c 128,-1,53
 44 334 44 334 39 335 c 1,54,55
 39 361 39 361 41 397 c 128,-1,56
 43 433 43 433 52.5 467 c 128,-1,57
 62 501 62 501 82.5 523.5 c 128,-1,58
 103 546 103 546 140 546 c 0,59,60
 176 546 176 546 196 525.5 c 128,-1,61
 216 505 216 505 225 471 c 128,-1,62
 234 437 234 437 236 397.5 c 128,-1,63
 238 358 238 358 238 319 c 2,64,-1
 238 237 l 2,65,66
 238 172 238 172 260 133.5 c 128,-1,67
 282 95 282 95 336 81 c 1,68,-1
 336 376 l 1,69,-1
 375 376 l 1,70,-1
 375 74 l 1,71,72
 383 73 383 73 391.5 73 c 128,-1,73
 400 73 400 73 409 73 c 0,74,75
 460 73 460 73 498.5 86.5 c 128,-1,76
 537 100 537 100 558.5 135.5 c 128,-1,77
 580 171 580 171 580 235 c 2,78,-1
 580 261 l 2,79,80
 580 290 580 290 573 323 c 128,-1,81
 566 356 566 356 549 386 c 128,-1,82
 532 416 532 416 503 435 c 128,-1,83
 474 454 474 454 430 454 c 1,84,85
 449 495 449 495 482 520.5 c 128,-1,86
 515 546 515 546 565 546 c 0,87,88
 627 546 627 546 663 514.5 c 128,-1,89
 699 483 699 483 714.5 430 c 128,-1,90
 730 377 730 377 730 310 c 2,91,-1
 730 0 l 1,0,-1
EndSplineSet
Position2: "Single Positioning lookup 15 subtable" dx=0 dy=0 dh=270 dv=0
Position2: "Single Positioning lookup 14 subtable" dx=0 dy=0 dh=342 dv=0
Position2: "Single Positioning lookup 13 subtable" dx=0 dy=0 dh=570 dv=0
Position2: "Single Positioning lookup 12 subtable" dx=0 dy=0 dh=495 dv=0
EndChar

StartChar: uni1B4A
Encoding: 6986 6986 79
Width: 808
GlyphClass: 2
Flags: W
AnchorPoint: "+BBEENQQ3BEsEPARPBD0EPQQ+BDUA--7" 844 -85 basechar 0
AnchorPoint: "+BBEENQQ3BEsEPARPBD0EPQQ+BDUA--6" 1416 0 basechar 0
AnchorPoint: "+BBEENQQ3BEsEPARPBD0EPQQ+BDUA--5" 1171 0 basechar 0
AnchorPoint: "+BBEENQQ3BEsEPARPBD0EPQQ+BDUA--4" 808 -196 basechar 0
AnchorPoint: "+BBEENQQ3BEsEPARPBD0EPQQ+BDUA--3" 740 -85 basechar 0
AnchorPoint: "+BBEENQQ3BEsEPARPBD0EPQQ+BDUA--2" 436 620 basechar 0
LayerCount: 2
Fore
SplineSet
745 0 m 1,0,-1
 706 0 l 1,1,-1
 706 306 l 2,2,3
 706 383 706 383 687 418.5 c 128,-1,4
 668 454 668 454 633 454 c 2,5,-1
 620 454 l 1,6,-1
 620 208 l 2,7,8
 620 151 620 151 610.5 101 c 128,-1,9
 601 51 601 51 575 20.5 c 128,-1,10
 549 -10 549 -10 501 -10 c 0,11,12
 465 -10 465 -10 437 11.5 c 128,-1,13
 409 33 409 33 385 62 c 1,14,-1
 385 -2 l 2,15,16
 385 -42 385 -42 400.5 -81 c 128,-1,17
 416 -120 416 -120 450.5 -145.5 c 128,-1,18
 485 -171 485 -171 541 -171 c 0,19,20
 576 -171 576 -171 611 -161 c 128,-1,21
 646 -151 646 -151 672 -125.5 c 128,-1,22
 698 -100 698 -100 704 -54 c 1,23,-1
 736 -63 l 1,24,25
 728 -132 728 -132 700.5 -174 c 128,-1,26
 673 -216 673 -216 631.5 -235 c 128,-1,27
 590 -254 590 -254 541 -254 c 0,28,29
 471 -254 471 -254 428 -218.5 c 128,-1,30
 385 -183 385 -183 365.5 -126 c 128,-1,31
 346 -69 346 -69 346 -7 c 2,32,-1
 346 113 l 1,33,34
 327 138 327 138 306.5 158.5 c 128,-1,35
 286 179 286 179 262 188 c 1,36,-1
 262 182 l 2,37,38
 262 131 262 131 253 87 c 128,-1,39
 244 43 244 43 220.5 16.5 c 128,-1,40
 197 -10 197 -10 153 -10 c 0,41,42
 125 -10 125 -10 106.5 5 c 128,-1,43
 88 20 88 20 78 43.5 c 128,-1,44
 68 67 68 67 68 92 c 0,45,46
 68 158 68 158 92.5 198 c 128,-1,47
 117 238 117 238 153 257 c 128,-1,48
 189 276 189 276 223 278 c 1,49,-1
 223 322 l 2,50,51
 223 399 223 399 204.5 431 c 128,-1,52
 186 463 186 463 151 463 c 0,53,54
 119 463 119 463 104 446.5 c 128,-1,55
 89 430 89 430 84 401.5 c 128,-1,56
 79 373 79 373 78 336 c 1,57,58
 73 335 73 335 69 333.5 c 128,-1,59
 65 332 65 332 57 332 c 0,60,61
 50 332 50 332 47 333 c 128,-1,62
 44 334 44 334 39 335 c 1,63,64
 39 361 39 361 41.5 397 c 128,-1,65
 44 433 44 433 54.5 467 c 128,-1,66
 65 501 65 501 89 523.5 c 128,-1,67
 113 546 113 546 156 546 c 0,68,69
 193 546 193 546 214.5 525.5 c 128,-1,70
 236 505 236 505 246 471 c 128,-1,71
 256 437 256 437 259 397.5 c 128,-1,72
 262 358 262 358 262 319 c 2,73,-1
 262 275 l 1,74,75
 286 270 286 270 306.5 257.5 c 128,-1,76
 327 245 327 245 346 228 c 1,77,-1
 346 376 l 1,78,-1
 385 376 l 1,79,-1
 385 187 l 1,80,81
 409 160 409 160 428.5 133.5 c 128,-1,82
 448 107 448 107 466 90 c 128,-1,83
 484 73 484 73 500 73 c 0,84,85
 536 73 536 73 553.5 96 c 128,-1,86
 571 119 571 119 576 155.5 c 128,-1,87
 581 192 581 192 581 232 c 2,88,-1
 581 537 l 1,89,-1
 604 537 l 2,90,91
 655 537 655 537 683.5 518.5 c 128,-1,92
 712 500 712 500 725 468.5 c 128,-1,93
 738 437 738 437 741.5 396 c 128,-1,94
 745 355 745 355 745 310 c 2,95,-1
 745 0 l 1,0,-1
223 178 m 2,96,-1
 223 195 l 1,97,98
 195 194 195 194 169.5 186 c 128,-1,99
 144 178 144 178 128 157.5 c 128,-1,100
 112 137 112 137 112 98 c 0,101,102
 112 67 112 67 124 53 c 128,-1,103
 136 39 136 39 155 39 c 0,104,105
 185 39 185 39 204 70.5 c 128,-1,106
 223 102 223 102 223 178 c 2,96,-1
EndSplineSet
Position2: "Single Positioning lookup 15 subtable" dx=0 dy=0 dh=230 dv=0
Position2: "Single Positioning lookup 14 subtable" dx=0 dy=0 dh=342 dv=0
Position2: "Single Positioning lookup 13 subtable" dx=0 dy=0 dh=537 dv=0
Position2: "Single Positioning lookup 12 subtable" dx=0 dy=0 dh=469 dv=0
EndChar

StartChar: uni1B4B
Encoding: 6987 6987 80
Width: 1462
GlyphClass: 2
Flags: W
AnchorPoint: "+BBEENQQ3BEsEPARPBD0EPQQ+BDUA--7" 1402 0 basechar 0
AnchorPoint: "+BBEENQQ3BEsEPARPBD0EPQQ+BDUA--6" 1416 0 basechar 0
AnchorPoint: "+BBEENQQ3BEsEPARPBD0EPQQ+BDUA--5" 1171 0 basechar 0
AnchorPoint: "+BBEENQQ3BEsEPARPBD0EPQQ+BDUA--4" 1461 0 basechar 0
AnchorPoint: "+BBEENQQ3BEsEPARPBD0EPQQ+BDUA--3" 1406 0 basechar 0
AnchorPoint: "+BBEENQQ3BEsEPARPBD0EPQQ+BDUA--2" 758 620 basechar 0
LayerCount: 2
Fore
SplineSet
153 -10 m 0,0,1
 125 -10 125 -10 106.5 5 c 128,-1,2
 88 20 88 20 78 43.5 c 128,-1,3
 68 67 68 67 68 92 c 0,4,5
 68 158 68 158 92.5 198 c 128,-1,6
 117 238 117 238 153 257 c 128,-1,7
 189 276 189 276 223 278 c 1,8,-1
 223 322 l 2,9,10
 223 399 223 399 204.5 431 c 128,-1,11
 186 463 186 463 151 463 c 0,12,13
 119 463 119 463 104 446.5 c 128,-1,14
 89 430 89 430 84 401.5 c 128,-1,15
 79 373 79 373 78 336 c 1,16,17
 73 335 73 335 69 333.5 c 128,-1,18
 65 332 65 332 57 332 c 0,19,20
 50 332 50 332 47 333 c 128,-1,21
 44 334 44 334 39 335 c 1,22,23
 39 361 39 361 41.5 397 c 128,-1,24
 44 433 44 433 54.5 467 c 128,-1,25
 65 501 65 501 89 523.5 c 128,-1,26
 113 546 113 546 156 546 c 0,27,28
 193 546 193 546 214.5 525.5 c 128,-1,29
 236 505 236 505 246 471 c 128,-1,30
 256 437 256 437 259 397.5 c 128,-1,31
 262 358 262 358 262 319 c 2,32,-1
 262 275 l 1,33,34
 297 267 297 267 326.5 244 c 128,-1,35
 356 221 356 221 380.5 192 c 128,-1,36
 405 163 405 163 425.5 136 c 128,-1,37
 446 109 446 109 464.5 91 c 128,-1,38
 483 73 483 73 500 73 c 0,39,40
 536 73 536 73 553.5 96 c 128,-1,41
 571 119 571 119 576 155.5 c 128,-1,42
 581 192 581 192 581 232 c 2,43,-1
 581 537 l 1,44,-1
 604 537 l 2,45,46
 655 537 655 537 683.5 518.5 c 128,-1,47
 712 500 712 500 725 468.5 c 128,-1,48
 738 437 738 437 741.5 396 c 128,-1,49
 745 355 745 355 745 310 c 2,50,-1
 745 214 l 2,51,52
 745 147 745 147 766.5 110 c 128,-1,53
 788 73 788 73 838 73 c 0,54,55
 874 73 874 73 897 104 c 128,-1,56
 920 135 920 135 933 184.5 c 128,-1,57
 946 234 946 234 952 291.5 c 128,-1,58
 958 349 958 349 960 402.5 c 128,-1,59
 962 456 962 456 962 493 c 1,60,-1
 1003 493 l 1,61,62
 1003 451 1003 451 1005 396.5 c 128,-1,63
 1007 342 1007 342 1013 285.5 c 128,-1,64
 1019 229 1019 229 1032.5 180.5 c 128,-1,65
 1046 132 1046 132 1068.5 102.5 c 128,-1,66
 1091 73 1091 73 1126 73 c 0,67,68
 1177 73 1177 73 1198.5 110 c 128,-1,69
 1220 147 1220 147 1220 214 c 2,70,-1
 1220 537 l 1,71,-1
 1253 537 l 2,72,73
 1304 537 1304 537 1333 518.5 c 128,-1,74
 1362 500 1362 500 1376 468.5 c 128,-1,75
 1390 437 1390 437 1394 396 c 128,-1,76
 1398 355 1398 355 1398 310 c 2,77,-1
 1398 0 l 1,78,-1
 1359 0 l 1,79,-1
 1359 306 l 2,80,81
 1359 383 1359 383 1338 418.5 c 128,-1,82
 1317 454 1317 454 1282 454 c 2,83,-1
 1259 454 l 1,84,-1
 1259 200 l 2,85,86
 1259 121 1259 121 1240.5 75 c 128,-1,87
 1222 29 1222 29 1192.5 9.5 c 128,-1,88
 1163 -10 1163 -10 1129 -10 c 0,89,90
 1068 -10 1068 -10 1033.5 45 c 128,-1,91
 999 100 999 100 982 189 c 1,92,93
 966 100 966 100 931.5 45 c 128,-1,94
 897 -10 897 -10 835 -10 c 0,95,96
 802 -10 802 -10 772.5 9.5 c 128,-1,97
 743 29 743 29 724.5 75 c 128,-1,98
 706 121 706 121 706 200 c 2,99,-1
 706 306 l 2,100,101
 706 383 706 383 687 418.5 c 128,-1,102
 668 454 668 454 633 454 c 2,103,-1
 620 454 l 1,104,-1
 620 208 l 2,105,106
 620 151 620 151 610.5 101 c 128,-1,107
 601 51 601 51 575 20.5 c 128,-1,108
 549 -10 549 -10 501 -10 c 0,109,110
 469 -10 469 -10 443 7 c 128,-1,111
 417 24 417 24 395.5 50 c 128,-1,112
 374 76 374 76 353 104 c 128,-1,113
 332 132 332 132 310 155 c 128,-1,114
 288 178 288 178 262 188 c 1,115,-1
 262 182 l 2,116,117
 262 131 262 131 253 87 c 128,-1,118
 244 43 244 43 220.5 16.5 c 128,-1,119
 197 -10 197 -10 153 -10 c 0,0,1
155 39 m 0,120,121
 185 39 185 39 204 70.5 c 128,-1,122
 223 102 223 102 223 178 c 2,123,-1
 223 195 l 1,124,125
 195 194 195 194 169.5 186 c 128,-1,126
 144 178 144 178 128 157.5 c 128,-1,127
 112 137 112 137 112 98 c 0,128,129
 112 67 112 67 124 53 c 128,-1,130
 136 39 136 39 155 39 c 0,120,121
EndSplineSet
EndChar

StartChar: uni1B50
Encoding: 6992 6992 81
Width: 472
GlyphClass: 2
Flags: W
LayerCount: 2
Fore
SplineSet
238 469 m 256,0,1
 291 469 291 469 330 440.5 c 128,-1,2
 369 412 369 412 391 362 c 128,-1,3
 413 312 413 312 413 246 c 0,4,5
 413 146 413 146 365 86.5 c 128,-1,6
 317 27 317 27 238 27 c 0,7,8
 185 27 185 27 144.5 54.5 c 128,-1,9
 104 82 104 82 81.5 131.5 c 128,-1,10
 59 181 59 181 59 246 c 256,11,12
 59 311 59 311 81.5 361.5 c 128,-1,13
 104 412 104 412 144.5 440.5 c 128,-1,14
 185 469 185 469 238 469 c 256,0,1
236 110 m 256,15,16
 294 110 294 110 329 147 c 128,-1,17
 364 184 364 184 364 248 c 0,18,19
 364 313 364 313 329.5 349.5 c 128,-1,20
 295 386 295 386 236 386 c 0,21,22
 178 386 178 386 142.5 349.5 c 128,-1,23
 107 313 107 313 107 248 c 0,24,25
 107 184 107 184 142.5 147 c 128,-1,26
 178 110 178 110 236 110 c 256,15,16
EndSplineSet
EndChar

StartChar: uni1B51
Encoding: 6993 6993 82
Width: 1182
GlyphClass: 2
Flags: W
LayerCount: 2
Fore
SplineSet
338 0 m 2,0,1
 287 0 287 0 259 18.5 c 128,-1,2
 231 37 231 37 218 68.5 c 128,-1,3
 205 100 205 100 202 141 c 128,-1,4
 199 182 199 182 199 227 c 2,5,-1
 199 322 l 2,6,7
 199 399 199 399 187.5 431 c 128,-1,8
 176 463 176 463 141 463 c 0,9,10
 111 463 111 463 98 446.5 c 128,-1,11
 85 430 85 430 82 401.5 c 128,-1,12
 79 373 79 373 78 336 c 1,13,14
 73 335 73 335 69 333.5 c 128,-1,15
 65 332 65 332 57 332 c 0,16,17
 50 332 50 332 47 333 c 128,-1,18
 44 334 44 334 39 335 c 1,19,20
 39 361 39 361 41 397 c 128,-1,21
 43 433 43 433 52.5 467 c 128,-1,22
 62 501 62 501 82.5 523.5 c 128,-1,23
 103 546 103 546 140 546 c 0,24,25
 176 546 176 546 196 525.5 c 128,-1,26
 216 505 216 505 225 471 c 128,-1,27
 234 437 234 437 236 397.5 c 128,-1,28
 238 358 238 358 238 319 c 2,29,-1
 238 204 l 2,30,31
 238 142 238 142 258.5 112.5 c 128,-1,32
 279 83 279 83 310 83 c 2,33,-1
 322 83 l 1,34,-1
 322 301 l 2,35,36
 322 431 322 431 355.5 488.5 c 128,-1,37
 389 546 389 546 474 546 c 0,38,39
 521 546 521 546 550.5 520 c 128,-1,40
 580 494 580 494 596 445 c 1,41,42
 612 494 612 494 641.5 520 c 128,-1,43
 671 546 671 546 718 546 c 0,44,45
 803 546 803 546 836 488.5 c 128,-1,46
 869 431 869 431 869 301 c 2,47,-1
 869 83 l 1,48,-1
 926 83 l 2,49,50
 958 83 958 83 977.5 112.5 c 128,-1,51
 997 142 997 142 997 204 c 2,52,-1
 997 441 l 1,53,54
 965 446 965 446 928.5 464 c 128,-1,55
 892 482 892 482 867 517 c 128,-1,56
 842 552 842 552 842 608 c 0,57,58
 842 646 842 646 863 672 c 128,-1,59
 884 698 884 698 925 698 c 0,60,61
 960 698 960 698 984.5 672 c 128,-1,62
 1009 646 1009 646 1022 606 c 128,-1,63
 1035 566 1035 566 1036 523 c 1,64,65
 1054 523 1054 523 1079 533.5 c 128,-1,66
 1104 544 1104 544 1124.5 571 c 128,-1,67
 1145 598 1145 598 1148 646 c 1,68,-1
 1182 625 l 1,69,70
 1177 553 1177 553 1151.5 513 c 128,-1,71
 1126 473 1126 473 1094 457 c 128,-1,72
 1062 441 1062 441 1036 440 c 1,73,-1
 1036 227 l 2,74,75
 1036 182 1036 182 1033 141 c 128,-1,76
 1030 100 1030 100 1017 68.5 c 128,-1,77
 1004 37 1004 37 976 18.5 c 128,-1,78
 948 0 948 0 897 0 c 2,79,-1
 830 0 l 1,80,-1
 830 301 l 2,81,82
 830 366 830 366 816.5 401 c 128,-1,83
 803 436 803 436 778 449.5 c 128,-1,84
 753 463 753 463 718 463 c 0,85,86
 681 463 681 463 649.5 437 c 128,-1,87
 618 411 618 411 613 358 c 1,88,-1
 579 358 l 1,89,90
 579 385 579 385 565 409 c 128,-1,91
 551 433 551 433 527 448 c 128,-1,92
 503 463 503 463 474 463 c 0,93,94
 440 463 440 463 414.5 449.5 c 128,-1,95
 389 436 389 436 375 401 c 128,-1,96
 361 366 361 366 361 301 c 2,97,-1
 361 0 l 1,98,-1
 338 0 l 2,0,1
997 523 m 1,99,100
 996 574 996 574 976 611.5 c 128,-1,101
 956 649 956 649 927 649 c 0,102,103
 886 649 886 649 886 609 c 256,104,105
 886 569 886 569 918.5 548 c 128,-1,106
 951 527 951 527 997 523 c 1,99,100
EndSplineSet
EndChar

StartChar: uni1B52
Encoding: 6994 6994 83
Width: 947
GlyphClass: 2
Flags: W
LayerCount: 2
Fore
SplineSet
771 -547 m 1,0,-1
 732 -537 l 1,1,-1
 737 -521 l 1,2,3
 736 -493 736 -493 705.5 -474 c 128,-1,4
 675 -455 675 -455 625.5 -440.5 c 128,-1,5
 576 -426 576 -426 517.5 -412.5 c 128,-1,6
 459 -399 459 -399 400.5 -383 c 128,-1,7
 342 -367 342 -367 293.5 -344.5 c 128,-1,8
 245 -322 245 -322 215.5 -289 c 128,-1,9
 186 -256 186 -256 186 -209 c 0,10,11
 186 -174 186 -174 206.5 -141.5 c 128,-1,12
 227 -109 227 -109 266.5 -88.5 c 128,-1,13
 306 -68 306 -68 363 -68 c 0,14,15
 426 -68 426 -68 483.5 -84 c 128,-1,16
 541 -100 541 -100 596.5 -122.5 c 128,-1,17
 652 -145 652 -145 707 -165 c 128,-1,18
 762 -185 762 -185 819 -194 c 1,19,20
 833 -118 833 -118 841.5 -37 c 128,-1,21
 850 44 850 44 850 126 c 0,22,23
 850 224 850 224 837.5 300 c 128,-1,24
 825 376 825 376 796.5 419.5 c 128,-1,25
 768 463 768 463 718 463 c 0,26,27
 681 463 681 463 649.5 437 c 128,-1,28
 618 411 618 411 613 358 c 1,29,-1
 579 358 l 1,30,31
 579 385 579 385 565 409 c 128,-1,32
 551 433 551 433 527 448 c 128,-1,33
 503 463 503 463 474 463 c 0,34,35
 440 463 440 463 414.5 449.5 c 128,-1,36
 389 436 389 436 375 401 c 128,-1,37
 361 366 361 366 361 301 c 2,38,-1
 361 0 l 1,39,-1
 338 0 l 2,40,41
 287 0 287 0 259 18.5 c 128,-1,42
 231 37 231 37 218 68.5 c 128,-1,43
 205 100 205 100 202 141 c 128,-1,44
 199 182 199 182 199 227 c 2,45,-1
 199 322 l 2,46,47
 199 399 199 399 187.5 431 c 128,-1,48
 176 463 176 463 141 463 c 0,49,50
 111 463 111 463 98 446.5 c 128,-1,51
 85 430 85 430 82 401.5 c 128,-1,52
 79 373 79 373 78 336 c 1,53,54
 73 335 73 335 69 333.5 c 128,-1,55
 65 332 65 332 57 332 c 0,56,57
 50 332 50 332 47 333 c 128,-1,58
 44 334 44 334 39 335 c 1,59,60
 39 361 39 361 41 397 c 128,-1,61
 43 433 43 433 52.5 467 c 128,-1,62
 62 501 62 501 82.5 523.5 c 128,-1,63
 103 546 103 546 140 546 c 0,64,65
 176 546 176 546 196 525.5 c 128,-1,66
 216 505 216 505 225 471 c 128,-1,67
 234 437 234 437 236 397.5 c 128,-1,68
 238 358 238 358 238 319 c 2,69,-1
 238 204 l 2,70,71
 238 142 238 142 258.5 112.5 c 128,-1,72
 279 83 279 83 310 83 c 2,73,-1
 322 83 l 1,74,-1
 322 301 l 2,75,76
 322 431 322 431 355.5 488.5 c 128,-1,77
 389 546 389 546 474 546 c 0,78,79
 521 546 521 546 550.5 520 c 128,-1,80
 580 494 580 494 596 445 c 1,81,82
 612 494 612 494 641.5 520 c 128,-1,83
 671 546 671 546 718 546 c 0,84,85
 769 546 769 546 803.5 513 c 128,-1,86
 838 480 838 480 858.5 422 c 128,-1,87
 879 364 879 364 888.5 289.5 c 128,-1,88
 898 215 898 215 898 131 c 0,89,90
 898 43 898 43 890 -40 c 128,-1,91
 882 -123 882 -123 868 -199 c 1,92,-1
 878 -199 l 2,93,94
 964 -199 964 -199 1004 -176 c 1,95,-1
 1021 -211 l 1,96,97
 991 -230 991 -230 953 -239 c 128,-1,98
 915 -248 915 -248 883 -248 c 2,99,-1
 858 -248 l 1,100,101
 839 -335 839 -335 816.5 -410.5 c 128,-1,102
 794 -486 794 -486 771 -547 c 1,0,-1
757 -457 m 1,103,104
 771 -410 771 -410 784.5 -356 c 128,-1,105
 798 -302 798 -302 810 -244 c 1,106,107
 744 -236 744 -236 681 -219.5 c 128,-1,108
 618 -203 618 -203 558 -185 c 128,-1,109
 498 -167 498 -167 441.5 -154.5 c 128,-1,110
 385 -142 385 -142 333 -142 c 256,111,112
 281 -142 281 -142 257.5 -160.5 c 128,-1,113
 234 -179 234 -179 234 -211 c 0,114,115
 234 -248 234 -248 266.5 -274.5 c 128,-1,116
 299 -301 299 -301 351.5 -320 c 128,-1,117
 404 -339 404 -339 465.5 -354 c 128,-1,118
 527 -369 527 -369 586 -383.5 c 128,-1,119
 645 -398 645 -398 691 -415.5 c 128,-1,120
 737 -433 737 -433 757 -457 c 1,103,104
EndSplineSet
EndChar

StartChar: uni1B53
Encoding: 6995 6995 84
Width: 983
GlyphClass: 2
Flags: W
LayerCount: 2
Fore
SplineSet
541 -546 m 2,0,1
 473 -546 473 -546 434 -514 c 128,-1,2
 395 -482 395 -482 378.5 -432 c 128,-1,3
 362 -382 362 -382 362 -330 c 0,4,5
 362 -265 362 -265 387 -212.5 c 128,-1,6
 412 -160 412 -160 453.5 -115 c 128,-1,7
 495 -70 495 -70 545 -29.5 c 128,-1,8
 595 11 595 11 644.5 52 c 128,-1,9
 694 93 694 93 735.5 138 c 128,-1,10
 777 183 777 183 802 235.5 c 128,-1,11
 827 288 827 288 827 352 c 0,12,13
 827 402 827 402 799 432.5 c 128,-1,14
 771 463 771 463 718 463 c 0,15,16
 681 463 681 463 649.5 437 c 128,-1,17
 618 411 618 411 613 358 c 1,18,-1
 579 358 l 1,19,20
 579 385 579 385 565 409 c 128,-1,21
 551 433 551 433 527 448 c 128,-1,22
 503 463 503 463 474 463 c 0,23,24
 440 463 440 463 414.5 449.5 c 128,-1,25
 389 436 389 436 375 401 c 128,-1,26
 361 366 361 366 361 301 c 2,27,-1
 361 0 l 1,28,-1
 338 0 l 2,29,30
 287 0 287 0 259 18.5 c 128,-1,31
 231 37 231 37 218 68.5 c 128,-1,32
 205 100 205 100 202 141 c 128,-1,33
 199 182 199 182 199 227 c 2,34,-1
 199 322 l 2,35,36
 199 399 199 399 187.5 431 c 128,-1,37
 176 463 176 463 141 463 c 0,38,39
 111 463 111 463 98 446.5 c 128,-1,40
 85 430 85 430 82 401.5 c 128,-1,41
 79 373 79 373 78 336 c 1,42,43
 73 335 73 335 69 333.5 c 128,-1,44
 65 332 65 332 57 332 c 0,45,46
 50 332 50 332 47 333 c 128,-1,47
 44 334 44 334 39 335 c 1,48,49
 39 361 39 361 41 397 c 128,-1,50
 43 433 43 433 52.5 467 c 128,-1,51
 62 501 62 501 82.5 523.5 c 128,-1,52
 103 546 103 546 140 546 c 0,53,54
 176 546 176 546 196 525.5 c 128,-1,55
 216 505 216 505 225 471 c 128,-1,56
 234 437 234 437 236 397.5 c 128,-1,57
 238 358 238 358 238 319 c 2,58,-1
 238 204 l 2,59,60
 238 142 238 142 258.5 112.5 c 128,-1,61
 279 83 279 83 310 83 c 2,62,-1
 322 83 l 1,63,-1
 322 301 l 2,64,65
 322 431 322 431 355.5 488.5 c 128,-1,66
 389 546 389 546 474 546 c 0,67,68
 521 546 521 546 550.5 520 c 128,-1,69
 580 494 580 494 596 445 c 1,70,71
 612 494 612 494 641.5 520 c 128,-1,72
 671 546 671 546 718 546 c 0,73,74
 775 546 775 546 809.5 519 c 128,-1,75
 844 492 844 492 859.5 447.5 c 128,-1,76
 875 403 875 403 875 349 c 0,77,78
 875 264 875 264 850 197.5 c 128,-1,79
 825 131 825 131 783.5 79.5 c 128,-1,80
 742 28 742 28 692.5 -14 c 128,-1,81
 643 -56 643 -56 593.5 -93 c 128,-1,82
 544 -130 544 -130 502.5 -166.5 c 128,-1,83
 461 -203 461 -203 436 -243 c 128,-1,84
 411 -283 411 -283 411 -333 c 0,85,86
 411 -359 411 -359 423 -389.5 c 128,-1,87
 435 -420 435 -420 457.5 -441.5 c 128,-1,88
 480 -463 480 -463 512 -463 c 2,89,-1
 524 -463 l 1,90,-1
 524 -401 l 2,91,92
 524 -314 524 -314 552.5 -260 c 128,-1,93
 581 -206 581 -206 633 -180.5 c 128,-1,94
 685 -155 685 -155 753 -155 c 0,95,96
 863 -155 863 -155 923 -216 c 128,-1,97
 983 -277 983 -277 983 -402 c 2,98,-1
 983 -546 l 1,99,-1
 944 -546 l 1,100,-1
 944 -403 l 2,101,102
 944 -320 944 -320 901 -279 c 128,-1,103
 858 -238 858 -238 754 -238 c 0,104,105
 699 -238 699 -238 656 -252 c 128,-1,106
 613 -266 613 -266 588 -301 c 128,-1,107
 563 -336 563 -336 563 -401 c 2,108,-1
 563 -546 l 1,109,-1
 541 -546 l 2,0,1
EndSplineSet
EndChar

StartChar: uni1B54
Encoding: 6996 6996 85
Width: 508
GlyphClass: 2
Flags: W
LayerCount: 2
Fore
SplineSet
232 342 m 1,0,-1
 215 354 l 1,1,2
 232 406 232 406 264 437.5 c 128,-1,3
 296 469 296 469 334 469 c 0,4,5
 377 469 377 469 406.5 441.5 c 128,-1,6
 436 414 436 414 436 373 c 0,7,8
 436 300 436 300 377 262 c 1,9,10
 417 250 417 250 438 222 c 128,-1,11
 459 194 459 194 459 157 c 0,12,13
 459 83 459 83 411 36.5 c 128,-1,14
 363 -10 363 -10 283 -10 c 0,15,16
 217 -10 217 -10 164 30 c 128,-1,17
 111 70 111 70 80 138.5 c 128,-1,18
 49 207 49 207 49 292 c 0,19,20
 49 360 49 360 70.5 419 c 128,-1,21
 92 478 92 478 134 521 c 1,22,-1
 171 500 l 1,23,24
 137 463 137 463 117.5 410.5 c 128,-1,25
 98 358 98 358 98 295 c 0,26,27
 98 187 98 187 146 130 c 128,-1,28
 194 73 194 73 283 73 c 0,29,30
 351 73 351 73 380.5 96 c 128,-1,31
 410 119 410 119 410 162 c 0,32,33
 410 194 410 194 383.5 213 c 128,-1,34
 357 232 357 232 305 232 c 2,35,-1
 260 232 l 1,36,-1
 265 271 l 1,37,-1
 303 271 l 1,38,39
 338 275 338 275 362.5 295 c 128,-1,40
 387 315 387 315 387 337 c 0,41,42
 387 360 387 360 369 373 c 128,-1,43
 351 386 351 386 325 386 c 0,44,45
 259 386 259 386 232 342 c 1,0,-1
EndSplineSet
EndChar

StartChar: uni1B55
Encoding: 6997 6997 86
Width: 654
GlyphClass: 2
Flags: W
LayerCount: 2
Fore
SplineSet
605 -527 m 1,0,-1
 573 -546 l 1,1,2
 563 -533 563 -533 549 -500 c 128,-1,3
 535 -467 535 -467 521.5 -423 c 128,-1,4
 508 -379 508 -379 499.5 -332.5 c 128,-1,5
 491 -286 491 -286 491 -246 c 0,6,7
 491 -125 491 -125 521 13 c 0,8,9
 536 82 536 82 544 149.5 c 128,-1,10
 552 217 552 217 552 283 c 0,11,12
 552 407 552 407 497.5 474.5 c 128,-1,13
 443 542 443 542 337 542 c 0,14,15
 270 542 270 542 216 511 c 128,-1,16
 162 480 162 480 130 424.5 c 128,-1,17
 98 369 98 369 98 295 c 0,18,19
 98 187 98 187 146 130 c 128,-1,20
 194 73 194 73 283 73 c 0,21,22
 351 73 351 73 380.5 96 c 128,-1,23
 410 119 410 119 410 162 c 0,24,25
 410 194 410 194 383.5 213 c 128,-1,26
 357 232 357 232 305 232 c 2,27,-1
 260 232 l 1,28,-1
 265 271 l 1,29,-1
 303 271 l 1,30,31
 338 275 338 275 362.5 295 c 128,-1,32
 387 315 387 315 387 337 c 0,33,34
 387 360 387 360 369 373 c 128,-1,35
 351 386 351 386 325 386 c 0,36,37
 259 386 259 386 232 342 c 1,38,-1
 215 354 l 1,39,40
 232 406 232 406 264 437.5 c 128,-1,41
 296 469 296 469 334 469 c 0,42,43
 377 469 377 469 406.5 441.5 c 128,-1,44
 436 414 436 414 436 373 c 0,45,46
 436 300 436 300 377 262 c 1,47,48
 417 250 417 250 438 222 c 128,-1,49
 459 194 459 194 459 157 c 0,50,51
 459 83 459 83 411 36.5 c 128,-1,52
 363 -10 363 -10 283 -10 c 0,53,54
 217 -10 217 -10 164 30 c 128,-1,55
 111 70 111 70 80 138.5 c 128,-1,56
 49 207 49 207 49 292 c 0,57,58
 49 363 49 363 73 418 c 128,-1,59
 97 473 97 473 137.5 512 c 128,-1,60
 178 551 178 551 229.5 571 c 128,-1,61
 281 591 281 591 336 591 c 0,62,63
 461 591 461 591 531 509.5 c 128,-1,64
 601 428 601 428 601 277 c 0,65,66
 601 229 601 229 593 164.5 c 128,-1,67
 585 100 585 100 570 19 c 0,68,69
 540 -144 540 -144 540 -250 c 0,70,71
 540 -311 540 -311 557 -382 c 128,-1,72
 574 -453 574 -453 605 -527 c 1,0,-1
EndSplineSet
EndChar

StartChar: uni1B56
Encoding: 6998 6998 87
Width: 718
GlyphClass: 2
Flags: W
LayerCount: 2
Fore
SplineSet
192 -12 m 1,0,1
 128 26 128 26 93.5 99.5 c 128,-1,2
 59 173 59 173 59 262 c 0,3,4
 59 342 59 342 86 398.5 c 128,-1,5
 113 455 113 455 156.5 491.5 c 128,-1,6
 200 528 200 528 250 545 c 128,-1,7
 300 562 300 562 346 562 c 0,8,9
 380 562 380 562 408 556 c 1,10,-1
 397 509 l 1,11,12
 385 511 385 511 373 512 c 128,-1,13
 361 513 361 513 347 513 c 0,14,15
 285 513 285 513 230 484 c 128,-1,16
 175 455 175 455 141 400 c 128,-1,17
 107 345 107 345 107 266 c 0,18,19
 107 213 107 213 120 167 c 128,-1,20
 133 121 133 121 161 90 c 1,21,22
 175 154 175 154 209.5 199 c 128,-1,23
 244 244 244 244 293.5 268.5 c 128,-1,24
 343 293 343 293 400 293 c 0,25,26
 480 293 480 293 538 257.5 c 128,-1,27
 596 222 596 222 628 161.5 c 128,-1,28
 660 101 660 101 660 25 c 0,29,30
 660 19 660 19 660 13 c 128,-1,31
 660 7 660 7 659 0 c 1,32,-1
 610 -10 l 1,33,34
 611 -2 611 -2 611 6 c 128,-1,35
 611 14 611 14 611 21 c 0,36,37
 611 83 611 83 583.5 125 c 128,-1,38
 556 167 556 167 509 188.5 c 128,-1,39
 462 210 462 210 401 210 c 0,40,41
 333 210 333 210 286 184 c 128,-1,42
 239 158 239 158 215.5 113 c 128,-1,43
 192 68 192 68 192 12 c 2,44,-1
 192 -12 l 1,0,1
EndSplineSet
EndChar

StartChar: uni1B57
Encoding: 6999 6999 88
Width: 1093
GlyphClass: 2
Flags: W
LayerCount: 2
Fore
SplineSet
781 -10 m 0,0,1
 689 -10 689 -10 652 47.5 c 128,-1,2
 615 105 615 105 615 235 c 2,3,-1
 615 299 l 2,4,5
 615 355 615 355 605 391.5 c 128,-1,6
 595 428 595 428 567.5 445.5 c 128,-1,7
 540 463 540 463 488 463 c 0,8,9
 438 463 438 463 410.5 449.5 c 128,-1,10
 383 436 383 436 372 401 c 128,-1,11
 361 366 361 366 361 301 c 2,12,-1
 361 0 l 1,13,-1
 338 0 l 2,14,15
 287 0 287 0 259 18.5 c 128,-1,16
 231 37 231 37 218 68.5 c 128,-1,17
 205 100 205 100 202 141 c 128,-1,18
 199 182 199 182 199 227 c 2,19,-1
 199 322 l 2,20,21
 199 399 199 399 187.5 431 c 128,-1,22
 176 463 176 463 141 463 c 0,23,24
 111 463 111 463 98 446.5 c 128,-1,25
 85 430 85 430 82 401.5 c 128,-1,26
 79 373 79 373 78 336 c 1,27,28
 73 335 73 335 69 333.5 c 128,-1,29
 65 332 65 332 57 332 c 0,30,31
 50 332 50 332 47 333 c 128,-1,32
 44 334 44 334 39 335 c 1,33,34
 39 361 39 361 41 397 c 128,-1,35
 43 433 43 433 52.5 467 c 128,-1,36
 62 501 62 501 82.5 523.5 c 128,-1,37
 103 546 103 546 140 546 c 0,38,39
 176 546 176 546 196 525.5 c 128,-1,40
 216 505 216 505 225 471 c 128,-1,41
 234 437 234 437 236 397.5 c 128,-1,42
 238 358 238 358 238 319 c 2,43,-1
 238 204 l 2,44,45
 238 142 238 142 258.5 112.5 c 128,-1,46
 279 83 279 83 310 83 c 2,47,-1
 322 83 l 1,48,-1
 322 301 l 2,49,50
 322 431 322 431 359 488.5 c 128,-1,51
 396 546 396 546 488 546 c 0,52,53
 583 546 583 546 618.5 485.5 c 128,-1,54
 654 425 654 425 654 300 c 2,55,-1
 654 235 l 2,56,57
 654 171 654 171 665 135.5 c 128,-1,58
 676 100 676 100 703.5 86.5 c 128,-1,59
 731 73 731 73 781 73 c 0,60,61
 833 73 833 73 860.5 90.5 c 128,-1,62
 888 108 888 108 898 144.5 c 128,-1,63
 908 181 908 181 908 237 c 2,64,-1
 908 441 l 1,65,66
 876 446 876 446 839.5 464 c 128,-1,67
 803 482 803 482 778 517 c 128,-1,68
 753 552 753 552 753 608 c 0,69,70
 753 646 753 646 774 672 c 128,-1,71
 795 698 795 698 836 698 c 0,72,73
 871 698 871 698 895.5 672 c 128,-1,74
 920 646 920 646 933 606 c 128,-1,75
 946 566 946 566 947 523 c 1,76,77
 965 523 965 523 990 533.5 c 128,-1,78
 1015 544 1015 544 1035.5 571 c 128,-1,79
 1056 598 1056 598 1059 646 c 1,80,-1
 1093 625 l 1,81,82
 1088 553 1088 553 1062.5 513 c 128,-1,83
 1037 473 1037 473 1005 457 c 128,-1,84
 973 441 973 441 947 440 c 1,85,-1
 947 236 l 2,86,87
 947 111 947 111 911.5 50.5 c 128,-1,88
 876 -10 876 -10 781 -10 c 0,0,1
908 523 m 1,89,90
 907 574 907 574 887 611.5 c 128,-1,91
 867 649 867 649 838 649 c 0,92,93
 797 649 797 649 797 609 c 256,94,95
 797 569 797 569 829.5 548 c 128,-1,96
 862 527 862 527 908 523 c 1,89,90
EndSplineSet
EndChar

StartChar: uni1B58
Encoding: 7000 7000 89
Width: 765
GlyphClass: 2
Flags: W
LayerCount: 2
Fore
SplineSet
410 -10 m 0,0,1
 309 -10 309 -10 254 48 c 128,-1,2
 199 106 199 106 199 227 c 2,3,-1
 199 322 l 2,4,5
 199 399 199 399 187.5 431 c 128,-1,6
 176 463 176 463 141 463 c 0,7,8
 111 463 111 463 98 446.5 c 128,-1,9
 85 430 85 430 82 401.5 c 128,-1,10
 79 373 79 373 78 336 c 1,11,12
 73 335 73 335 69 333.5 c 128,-1,13
 65 332 65 332 57 332 c 0,14,15
 50 332 50 332 47 333 c 128,-1,16
 44 334 44 334 39 335 c 1,17,18
 39 361 39 361 41 397 c 128,-1,19
 43 433 43 433 52.5 467 c 128,-1,20
 62 501 62 501 82.5 523.5 c 128,-1,21
 103 546 103 546 140 546 c 0,22,23
 176 546 176 546 196 525.5 c 128,-1,24
 216 505 216 505 225 471 c 128,-1,25
 234 437 234 437 236 397.5 c 128,-1,26
 238 358 238 358 238 319 c 2,27,-1
 238 237 l 2,28,29
 238 153 238 153 275.5 113 c 128,-1,30
 313 73 313 73 409 73 c 0,31,32
 460 73 460 73 498.5 86.5 c 128,-1,33
 537 100 537 100 558.5 135.5 c 128,-1,34
 580 171 580 171 580 235 c 2,35,-1
 580 441 l 1,36,37
 548 446 548 446 511.5 464 c 128,-1,38
 475 482 475 482 450 517 c 128,-1,39
 425 552 425 552 425 608 c 0,40,41
 425 646 425 646 446 672 c 128,-1,42
 467 698 467 698 508 698 c 0,43,44
 543 698 543 698 567.5 672 c 128,-1,45
 592 646 592 646 605 606 c 128,-1,46
 618 566 618 566 619 523 c 1,47,48
 637 523 637 523 662 533.5 c 128,-1,49
 687 544 687 544 707.5 571 c 128,-1,50
 728 598 728 598 731 646 c 1,51,-1
 765 625 l 1,52,53
 760 553 760 553 734.5 513 c 128,-1,54
 709 473 709 473 677 457 c 128,-1,55
 645 441 645 441 619 440 c 1,56,-1
 619 235 l 2,57,58
 619 105 619 105 562 47.5 c 128,-1,59
 505 -10 505 -10 410 -10 c 0,0,1
580 523 m 1,60,61
 579 574 579 574 559 611.5 c 128,-1,62
 539 649 539 649 510 649 c 0,63,64
 469 649 469 649 469 609 c 256,65,66
 469 569 469 569 501.5 548 c 128,-1,67
 534 527 534 527 580 523 c 1,60,61
EndSplineSet
EndChar

